<svg width="25" height="25" viewBox="0 0 25 25" fill="none" xmlns="http://www.w3.org/2000/svg">
<path d="M21 0H4C1.79086 0 0 1.79086 0 4V21C0 23.2091 1.79086 25 4 25H21C23.2091 25 25 23.2091 25 21V4C25 1.79086 23.2091 0 21 0Z" fill="#002444"/>
<path fill-rule="evenodd" clip-rule="evenodd" d="M13.849 21.15V13.4332H16.193L16.575 10.003H13.849V8.33116C13.849 7.44816 13.872 6.57334 15.106 6.57334H16.356V4.1212C15.6401 4.02567 14.918 3.98512 14.196 4.0001C11.927 4.0001 10.506 5.42386 10.506 8.03086V10.0001H8V13.4303H10.507V21.1471L13.849 21.15Z" fill="white"/>
</svg>
