<svg width="128" height="21" viewBox="0 0 128 21" fill="none" xmlns="http://www.w3.org/2000/svg">
<path d="M0.00367299 10.3855C-0.00577803 9.03673 0.257247 7.6999 0.776981 6.45521C1.29672 5.21051 2.06245 4.0836 3.02828 3.14202C3.9941 2.20045 5.14013 1.46361 6.39763 0.975689C7.65513 0.487769 8.99822 0.258815 10.3464 0.302556C11.9923 0.316938 13.6115 0.719478 15.0726 1.47746C16.5336 2.23544 17.7952 3.32747 18.7548 4.66479C18.8518 4.80485 18.8904 4.97719 18.8625 5.14526C18.8346 5.31334 18.7424 5.46395 18.6053 5.56516L15.9826 7.50556C15.9131 7.55644 15.8343 7.59312 15.7506 7.61351C15.6669 7.6339 15.5801 7.6376 15.495 7.62441C15.4099 7.61121 15.3282 7.58137 15.2547 7.5366C15.1811 7.49182 15.1171 7.43299 15.0663 7.36346C14.562 6.56653 13.8646 5.90979 13.0389 5.4541C12.2132 4.99842 11.2858 4.75853 10.3427 4.75666C9.6029 4.73009 8.86577 4.85895 8.17887 5.13492C7.49197 5.41089 6.87058 5.82784 6.35481 6.35885C5.83904 6.88985 5.44036 7.52312 5.1845 8.21776C4.92864 8.91239 4.82129 9.65297 4.86938 10.3917C4.82136 11.1315 4.92858 11.8732 5.18414 12.5691C5.43971 13.2651 5.83798 13.8999 6.35339 14.4329C6.86879 14.9658 7.48993 15.3851 8.17694 15.6638C8.86396 15.9425 9.60166 16.0744 10.3427 16.0512C11.2967 16.0512 12.2357 15.8145 13.0757 15.3623C13.9157 14.9101 14.6304 14.2566 15.1557 13.4603C15.2581 13.3232 15.4102 13.2318 15.5794 13.2059C15.7485 13.18 15.9211 13.2216 16.0598 13.3219L18.6666 15.228C18.8036 15.329 18.8963 15.4792 18.925 15.6471C18.9538 15.8149 18.9165 15.9874 18.8209 16.1283C17.5623 17.906 15.7757 19.242 13.7147 19.9467C11.6538 20.6513 9.42318 20.6888 7.33971 20.0537C5.25624 19.4187 3.42578 18.1434 2.10824 16.409C0.790693 14.6745 0.0530344 12.5691 0 10.3917L0.00367299 10.3855Z" fill="#0A2543"/>
<path d="M40.4876 0.594116H44.279C44.416 0.594172 44.5495 0.637239 44.6608 0.717242C44.772 0.797245 44.8553 0.910145 44.8989 1.04002L49.0381 13.5485C49.0815 13.6781 49.1645 13.7908 49.2754 13.8706C49.3863 13.9504 49.5195 13.9934 49.6562 13.9934C49.7928 13.9934 49.926 13.9504 50.0369 13.8706C50.1478 13.7908 50.2308 13.6781 50.2742 13.5485L54.3779 1.04369C54.4209 0.913134 54.5039 0.799434 54.6152 0.718733C54.7265 0.638031 54.8603 0.594429 54.9978 0.594116H58.7892C58.8931 0.594515 58.9954 0.619751 59.0875 0.66772C59.1797 0.715688 59.2591 0.784998 59.319 0.869869C59.3789 0.954741 59.4177 1.05271 59.4321 1.15561C59.4465 1.25852 59.436 1.36337 59.4017 1.46142L52.9092 19.7715C52.8641 19.898 52.781 20.0075 52.6714 20.0851C52.5618 20.1627 52.431 20.2046 52.2967 20.2052H46.9655C46.8313 20.2041 46.7006 20.162 46.5911 20.0845C46.4816 20.0069 46.3985 19.8977 46.353 19.7715L39.8604 1.46142C39.8258 1.36337 39.8151 1.25843 39.8294 1.15542C39.8436 1.0524 39.8824 0.954305 39.9424 0.869355C40.0024 0.784405 40.0819 0.715078 40.1742 0.667188C40.2665 0.619298 40.369 0.59424 40.4729 0.594116H40.4876Z" fill="#0A2543"/>
<path d="M59.1662 10.3856C59.139 8.3527 59.7171 6.35767 60.8269 4.65422C61.9366 2.95078 63.5279 1.61589 65.3984 0.819348C67.2689 0.0228069 69.3341 -0.199395 71.3313 0.181006C73.3284 0.561407 75.1673 1.52722 76.614 2.9556C78.0607 4.38399 79.0499 6.21039 79.4558 8.20252C79.8616 10.1946 79.6658 12.2625 78.8932 14.143C78.1206 16.0235 76.8061 17.6318 75.117 18.7632C73.4278 19.8946 71.4403 20.498 69.4073 20.4967C68.062 20.5388 66.7222 20.307 65.4693 19.8154C64.2163 19.3239 63.0764 18.5828 62.1186 17.6371C61.1609 16.6915 60.4053 15.5611 59.8977 14.3145C59.3902 13.068 59.1414 11.7313 59.1662 10.3856ZM64.0479 10.3856C64.0126 11.1058 64.1259 11.8257 64.3808 12.5003C64.6356 13.1749 65.0265 13.7899 65.5292 14.3069C66.0319 14.824 66.6356 15.2321 67.3028 15.5058C67.9699 15.7795 68.6863 15.9131 69.4073 15.8981C70.1338 15.9286 70.8586 15.806 71.5345 15.5381C72.2105 15.2702 72.8226 14.8631 73.331 14.3432C73.8393 13.8233 74.2326 13.2022 74.4852 12.5204C74.7378 11.8386 74.8442 11.1112 74.7973 10.3856C74.8126 9.67018 74.6849 8.95894 74.4216 8.29356C74.1584 7.62818 73.765 7.02204 73.2645 6.51069C72.7639 5.99935 72.1663 5.59309 71.5067 5.31574C70.8471 5.03838 70.1388 4.89551 69.4232 4.89551C68.7077 4.89551 67.9993 5.03838 67.3397 5.31574C66.6801 5.59309 66.0825 5.99935 65.5819 6.51069C65.0814 7.02204 64.688 7.62818 64.4248 8.29356C64.1616 8.95894 64.0339 9.67018 64.0491 10.3856H64.0479Z" fill="#0A2543"/>
<path d="M19.6516 10.3856C19.6244 8.3527 20.2024 6.35767 21.3122 4.65422C22.4219 2.95078 24.0133 1.61589 25.8838 0.819348C27.7543 0.0228069 29.8195 -0.199395 31.8166 0.181006C33.8137 0.561407 35.6526 1.52722 37.0993 2.9556C38.5461 4.38399 39.5353 6.21039 39.9411 8.20252C40.347 10.1946 40.1511 12.2625 39.3785 14.143C38.6059 16.0235 37.2915 17.6318 35.6023 18.7632C33.9132 19.8946 31.9257 20.498 29.8926 20.4967C28.5473 20.5388 27.2076 20.307 25.9546 19.8154C24.7017 19.3239 23.5617 18.5828 22.604 17.6371C21.6462 16.6915 20.8906 15.5611 20.3831 14.3145C19.8756 13.068 19.6267 11.7313 19.6516 10.3856ZM24.5332 10.3856C24.498 11.1058 24.6113 11.8257 24.8661 12.5003C25.1209 13.1749 25.5119 13.7899 26.0146 14.3069C26.5172 14.824 27.1209 15.2321 27.7881 15.5058C28.4553 15.7795 29.1716 15.9131 29.8926 15.8981C30.6191 15.9286 31.3439 15.806 32.0199 15.5381C32.6959 15.2702 33.3079 14.8631 33.8163 14.3432C34.3246 13.8233 34.7179 13.2022 34.9705 12.5204C35.2232 11.8386 35.3295 11.1112 35.2826 10.3856C35.2979 9.67018 35.1702 8.95894 34.907 8.29356C34.6438 7.62818 34.2503 7.02204 33.7498 6.51069C33.2493 5.99935 32.6517 5.59309 31.9921 5.31574C31.3325 5.03838 30.6241 4.89551 29.9085 4.89551C29.193 4.89551 28.4846 5.03838 27.825 5.31574C27.1654 5.59309 26.5678 5.99935 26.0673 6.51069C25.5667 7.02204 25.1733 7.62818 24.9101 8.29356C24.6469 8.95894 24.5192 9.67018 24.5345 10.3856H24.5332Z" fill="#0A2543"/>
<path d="M81.8989 19.5571V1.24706C81.8989 1.07389 81.9677 0.907814 82.0901 0.785367C82.2126 0.66292 82.3787 0.59413 82.5518 0.59413H91.808C92.6711 0.552748 93.5337 0.68671 94.3436 0.987928C95.1536 1.28915 95.8941 1.75137 96.5204 2.3467C97.1468 2.94203 97.646 3.65811 97.9879 4.45172C98.3299 5.24533 98.5075 6.1 98.5099 6.96414C98.5363 8.1117 98.2465 9.24439 97.6722 10.2383C97.0979 11.2321 96.2613 12.0489 95.2539 12.5991C95.1774 12.6398 95.1097 12.6951 95.0548 12.7621C94.9999 12.8291 94.9588 12.9063 94.934 12.9892C94.9092 13.0722 94.901 13.1593 94.9101 13.2454C94.9192 13.3315 94.9453 13.415 94.9868 13.4909L98.2098 19.2558C98.265 19.3548 98.2934 19.4666 98.2922 19.5799C98.291 19.6933 98.2603 19.8044 98.203 19.9023C98.1457 20.0001 98.0639 20.0814 97.9656 20.1379C97.8674 20.1945 97.756 20.2244 97.6426 20.2248H94.0142C93.8974 20.225 93.7827 20.1939 93.6821 20.1346C93.5814 20.0754 93.4985 19.9902 93.4421 19.8879L90.1015 13.7898C90.0451 13.6876 89.9622 13.6024 89.8616 13.5431C89.7609 13.4838 89.6463 13.4527 89.5295 13.453H87.2877C87.2019 13.4528 87.1169 13.4696 87.0376 13.5023C86.9583 13.5351 86.8863 13.5832 86.8257 13.6438C86.765 13.7045 86.7169 13.7765 86.6842 13.8558C86.6514 13.9351 86.6346 14.0201 86.6348 14.1059V19.5633C86.6348 19.649 86.6179 19.7339 86.5851 19.8131C86.5522 19.8924 86.5042 19.9643 86.4435 20.025C86.3829 20.0856 86.3109 20.1337 86.2317 20.1665C86.1525 20.1993 86.0676 20.2162 85.9819 20.2162H82.5518C82.4661 20.2164 82.3811 20.1996 82.3018 20.1668C82.2225 20.1341 82.1505 20.086 82.0898 20.0253C82.0291 19.9647 81.981 19.8926 81.9483 19.8133C81.9155 19.734 81.8988 19.6491 81.8989 19.5633V19.5571ZM86.6384 8.75264C86.6384 8.83838 86.6554 8.92328 86.6882 9.0025C86.721 9.08172 86.7691 9.1537 86.8297 9.21433C86.8903 9.27496 86.9623 9.32305 87.0415 9.35586C87.1207 9.38867 87.2056 9.40556 87.2914 9.40556H90.7863C91.1376 9.45206 91.4948 9.42415 91.8346 9.32364C92.1745 9.22313 92.4894 9.05227 92.7589 8.82215C93.0284 8.59203 93.2465 8.3078 93.399 7.98791C93.5515 7.66802 93.6351 7.31963 93.6442 6.96536C93.6442 5.66441 92.5895 4.63786 90.7863 4.63786H87.2914C87.2056 4.63786 87.1207 4.65475 87.0415 4.68756C86.9623 4.72037 86.8903 4.76847 86.8297 4.8291C86.7691 4.88973 86.721 4.9617 86.6882 5.04092C86.6554 5.12014 86.6384 5.20504 86.6384 5.29078V8.75264Z" fill="#0A2543"/>
<path d="M99.1184 10.3856C99.0912 8.3527 99.6692 6.35767 100.779 4.65422C101.889 2.95078 103.48 1.61589 105.351 0.819348C107.221 0.0228069 109.286 -0.199395 111.283 0.181006C113.281 0.561407 115.119 1.52722 116.566 2.9556C118.013 4.38399 119.002 6.21039 119.408 8.20252C119.814 10.1946 119.618 12.2625 118.845 14.143C118.073 16.0235 116.758 17.6318 115.069 18.7632C113.38 19.8946 111.392 20.498 109.359 20.4967C108.014 20.5388 106.674 20.307 105.421 19.8154C104.168 19.3239 103.029 18.5828 102.071 17.6371C101.113 16.6915 100.357 15.5611 99.8499 14.3145C99.3424 13.068 99.0935 11.7313 99.1184 10.3856ZM104 10.3856C103.965 11.1058 104.078 11.8257 104.333 12.5003C104.588 13.1749 104.979 13.7899 105.481 14.3069C105.984 14.824 106.588 15.2321 107.255 15.5058C107.922 15.7795 108.638 15.9131 109.359 15.8981C110.086 15.9286 110.811 15.806 111.487 15.5381C112.163 15.2702 112.775 14.8631 113.283 14.3432C113.791 13.8233 114.185 13.2022 114.437 12.5204C114.69 11.8386 114.796 11.1112 114.749 10.3856C114.765 9.67018 114.637 8.95894 114.374 8.29356C114.111 7.62818 113.717 7.02204 113.217 6.51069C112.716 5.99935 112.118 5.59309 111.459 5.31574C110.799 5.03838 110.091 4.89551 109.375 4.89551C108.66 4.89551 107.951 5.03838 107.292 5.31574C106.632 5.59309 106.035 5.99935 105.534 6.51069C105.034 7.02204 104.64 7.62818 104.377 8.29356C104.114 8.95894 103.985 9.67018 104 10.3856Z" fill="#0A2543"/>
<path d="M121.658 4.36835H120.932V0.930997H119.769V0.318497H122.821V0.930997H121.658V4.36835Z" fill="#0A2543"/>
<path d="M125.181 4.36959L124.07 1.04861H124.045C124.054 1.12579 124.061 1.23114 124.066 1.36834C124.071 1.50554 124.078 1.65621 124.082 1.81791C124.086 1.97961 124.09 2.13029 124.09 2.26749V4.36959H123.438V0.314835H124.447L125.513 3.49984H125.537L126.648 0.314835H127.658V4.36959H126.966V2.23686C126.966 2.10701 126.965 1.96491 126.974 1.81546C126.983 1.66601 126.986 1.51534 126.99 1.37814C126.994 1.24094 127.002 1.13314 127.006 1.05841H126.981L125.821 4.37449H125.172L125.181 4.36959Z" fill="#0A2543"/>
</svg>
