<svg width="25" height="25" viewBox="0 0 25 25" fill="none" xmlns="http://www.w3.org/2000/svg">
<path d="M21 0H4C1.79086 0 0 1.79086 0 4V21C0 23.2091 1.79086 25 4 25H21C23.2091 25 25 23.2091 25 21V4C25 1.79086 23.2091 0 21 0Z" fill="#002444"/>
<path fill-rule="evenodd" clip-rule="evenodd" d="M21.0002 21H17.8002V15.3999C17.8002 13.8639 17.1222 13.0069 15.9072 13.0069C14.5852 13.0069 13.8002 13.9069 13.8002 15.3999V21H10.6002V10.6001H13.8002V11.7681C14.1526 11.2236 14.6366 10.7766 15.2075 10.4688C15.7784 10.161 16.4176 10.0021 17.0662 10.0069C19.3292 10.0069 21.0002 11.3921 21.0002 14.2471V21ZM6.95419 8.93704C6.56438 8.94001 6.18245 8.82721 5.85687 8.61282C5.53129 8.39843 5.27672 8.09221 5.12543 7.73293C4.97415 7.37366 4.93297 6.97746 5.00712 6.59475C5.08128 6.21204 5.26741 5.8598 5.54194 5.58303C5.81646 5.30626 6.16699 5.11734 6.54909 5.04006C6.93118 4.96279 7.32761 5.0006 7.68811 5.14895C8.04861 5.2973 8.35693 5.54974 8.57397 5.87356C8.791 6.19738 8.90698 6.57797 8.90719 6.9678C8.90824 7.22532 8.85856 7.48094 8.76099 7.71926C8.66341 7.95759 8.51984 8.17412 8.33848 8.35696C8.15713 8.5398 7.94154 8.68517 7.70402 8.78469C7.46651 8.88421 7.21171 8.93599 6.95419 8.93704ZM5.00019 21H9.00019V10.6001H5.00019V21Z" fill="white"/>
</svg>
