<svg width="175" height="31" viewBox="0 0 175 31" fill="none" xmlns="http://www.w3.org/2000/svg">
<path d="M34.7974 18.7265H3.11155C2.66725 18.7212 2.22978 18.6165 1.83125 18.42C1.43273 18.2235 1.08328 17.9402 0.808549 17.591C0.285471 16.9461 0 16.141 0 15.3106C0 14.4803 0.285471 13.6752 0.808549 13.0303C1.08328 12.6811 1.43273 12.3978 1.83125 12.2013C2.22978 12.0048 2.66725 11.9 3.11155 11.8947H34.7974C35.2417 11.9 35.6792 12.0048 36.0777 12.2013C36.4763 12.3978 36.8257 12.6811 37.1004 13.0303C37.6235 13.6752 37.909 14.4803 37.909 15.3106C37.909 16.141 37.6235 16.9461 37.1004 17.591C36.8257 17.9402 36.4763 18.2235 36.0777 18.42C35.6792 18.6165 35.2417 18.7212 34.7974 18.7265Z" fill="url(#paint0_linear_180_1448)"/>
<path d="M25.0184 23.7969H12.8921C11.0066 23.7969 9.47803 25.3254 9.47803 27.211C9.47803 29.0965 11.0066 30.6251 12.8921 30.6251H25.0184C26.9039 30.6251 28.4325 29.0965 28.4325 27.211C28.4325 25.3254 26.9039 23.7969 25.0184 23.7969Z" fill="url(#paint1_linear_180_1448)"/>
<path d="M25.0184 0H12.8921C11.0066 0 9.47803 1.52853 9.47803 3.41408C9.47803 5.29962 11.0066 6.82816 12.8921 6.82816H25.0184C26.9039 6.82816 28.4325 5.29962 28.4325 3.41408C28.4325 1.52853 26.9039 0 25.0184 0Z" fill="url(#paint2_linear_180_1448)"/>
<path d="M47.3464 15.2953C47.337 13.9465 47.6 12.6097 48.1198 11.365C48.6395 10.1203 49.4052 8.99339 50.3711 8.05182C51.3369 7.11025 52.4829 6.37341 53.7404 5.88549C54.9979 5.39757 56.341 5.16861 57.6891 5.21235C59.335 5.22674 60.9543 5.62928 62.4153 6.38726C63.8764 7.14524 65.138 8.23727 66.0975 9.57458C66.1945 9.71465 66.2332 9.88698 66.2053 10.0551C66.1774 10.2231 66.0851 10.3737 65.9481 10.475L63.3254 12.4154C63.2559 12.4662 63.177 12.5029 63.0934 12.5233C63.0097 12.5437 62.9229 12.5474 62.8378 12.5342C62.7527 12.521 62.671 12.4912 62.5974 12.4464C62.5239 12.4016 62.4599 12.3428 62.4091 12.2733C61.9047 11.4763 61.2074 10.8196 60.3817 10.3639C59.5559 9.90821 58.6286 9.66832 57.6855 9.66646C56.9457 9.63989 56.2085 9.76875 55.5216 10.0447C54.8347 10.3207 54.2133 10.7376 53.6976 11.2686C53.1818 11.7997 52.7831 12.4329 52.5273 13.1276C52.2714 13.8222 52.1641 14.5628 52.2122 15.3015C52.1641 16.0413 52.2713 16.783 52.5269 17.4789C52.7825 18.1749 53.1808 18.8097 53.6962 19.3427C54.2116 19.8756 54.8327 20.2949 55.5197 20.5736C56.2067 20.8523 56.9444 20.9842 57.6855 20.961C58.6394 20.961 59.5785 20.7243 60.4185 20.2721C61.2585 19.8199 61.9732 19.1664 62.4985 18.3701C62.6008 18.2329 62.753 18.1416 62.9221 18.1157C63.0913 18.0898 63.2638 18.1314 63.4025 18.2317L66.0093 20.1378C66.1464 20.2388 66.239 20.389 66.2678 20.5569C66.2966 20.7247 66.2593 20.8972 66.1637 21.0381C64.9051 22.8158 63.1185 24.1518 61.0575 24.8565C58.9965 25.5611 56.766 25.5986 54.6825 24.9635C52.599 24.3285 50.7686 23.0532 49.451 21.3188C48.1335 19.5843 47.3958 17.4789 47.3428 15.3015L47.3464 15.2953Z" fill="#0A2543"/>
<path d="M87.8304 5.50391H91.6218C91.7588 5.50397 91.8923 5.54704 92.0035 5.62704C92.1147 5.70704 92.198 5.81994 92.2416 5.94981L96.3809 18.4583C96.4243 18.5879 96.5073 18.7006 96.6182 18.7804C96.7291 18.8602 96.8623 18.9032 96.9989 18.9032C97.1356 18.9032 97.2688 18.8602 97.3797 18.7804C97.4906 18.7006 97.5736 18.5879 97.6169 18.4583L101.721 5.95349C101.764 5.82293 101.847 5.70923 101.958 5.62853C102.069 5.54783 102.203 5.50423 102.341 5.50391H106.132C106.236 5.50431 106.338 5.52955 106.43 5.57752C106.522 5.62549 106.602 5.6948 106.662 5.77967C106.722 5.86454 106.76 5.96251 106.775 6.06541C106.789 6.16831 106.779 6.27316 106.744 6.37121L100.252 24.6813C100.207 24.8078 100.124 24.9173 100.014 24.9949C99.9046 25.0725 99.7737 25.1144 99.6394 25.115H94.3082C94.1741 25.1139 94.0434 25.0718 93.9339 24.9943C93.8244 24.9167 93.7413 24.8075 93.6957 24.6813L87.2032 6.37121C87.1686 6.27316 87.1579 6.16823 87.1722 6.06521C87.1864 5.9622 87.2252 5.8641 87.2851 5.77915C87.3451 5.6942 87.4246 5.62488 87.5169 5.57699C87.6093 5.5291 87.7117 5.50404 87.8157 5.50391H87.8304Z" fill="#0A2543"/>
<path d="M106.509 15.2954C106.482 13.2625 107.06 11.2675 108.17 9.56402C109.279 7.86057 110.871 6.52569 112.741 5.72915C114.612 4.9326 116.677 4.7104 118.674 5.0908C120.671 5.4712 122.51 6.43702 123.957 7.8654C125.403 9.29378 126.393 11.1202 126.799 13.1123C127.204 15.1044 127.009 17.1723 126.236 19.0528C125.463 20.9333 124.149 22.5416 122.46 23.673C120.771 24.8044 118.783 25.4078 116.75 25.4065C115.405 25.4486 114.065 25.2168 112.812 24.7252C111.559 24.2337 110.419 23.4926 109.461 22.5469C108.504 21.6013 107.748 20.4709 107.241 19.2243C106.733 17.9778 106.484 16.6411 106.509 15.2954ZM111.391 15.2954C111.355 16.0156 111.469 16.7355 111.724 17.4101C111.978 18.0847 112.369 18.6997 112.872 19.2167C113.375 19.7338 113.978 20.1419 114.646 20.4156C115.313 20.6893 116.029 20.8229 116.75 20.8079C117.477 20.8384 118.201 20.7158 118.877 20.4479C119.553 20.18 120.165 19.7729 120.674 19.253C121.182 18.7331 121.575 18.112 121.828 17.4302C122.081 16.7484 122.187 16.021 122.14 15.2954C122.155 14.58 122.028 13.8687 121.764 13.2034C121.501 12.538 121.108 11.9318 120.607 11.4205C120.107 10.9091 119.509 10.5029 118.85 10.2255C118.19 9.94818 117.482 9.80531 116.766 9.80531C116.05 9.80531 115.342 9.94818 114.682 10.2255C114.023 10.5029 113.425 10.9091 112.925 11.4205C112.424 11.9318 112.031 12.538 111.768 13.2034C111.504 13.8687 111.377 14.58 111.392 15.2954H111.391Z" fill="#0A2543"/>
<path d="M66.9944 15.2954C66.9672 13.2625 67.5452 11.2675 68.655 9.56402C69.7647 7.86057 71.356 6.52569 73.2266 5.72915C75.0971 4.9326 77.1622 4.7104 79.1594 5.0908C81.1565 5.4712 82.9954 6.43702 84.4421 7.8654C85.8888 9.29378 86.8781 11.1202 87.2839 13.1123C87.6898 15.1044 87.4939 17.1723 86.7213 19.0528C85.9487 20.9333 84.6342 22.5416 82.9451 23.673C81.2559 24.8044 79.2684 25.4078 77.2354 25.4065C75.8901 25.4486 74.5503 25.2168 73.2974 24.7252C72.0445 24.2337 70.9045 23.4926 69.9467 22.5469C68.989 21.6013 68.2334 20.4709 67.7259 19.2243C67.2183 17.9778 66.9695 16.6411 66.9944 15.2954ZM71.876 15.2954C71.8407 16.0156 71.954 16.7355 72.2089 17.4101C72.4637 18.0847 72.8546 18.6997 73.3573 19.2167C73.86 19.7338 74.4637 20.1419 75.1309 20.4156C75.7981 20.6893 76.5144 20.8229 77.2354 20.8079C77.9619 20.8384 78.6867 20.7158 79.3627 20.4479C80.0386 20.18 80.6507 19.7729 81.1591 19.253C81.6674 18.7331 82.0607 18.112 82.3133 17.4302C82.5659 16.7484 82.6723 16.021 82.6254 15.2954C82.6407 14.58 82.513 13.8687 82.2497 13.2034C81.9865 12.538 81.5931 11.9318 81.0926 11.4205C80.592 10.9091 79.9945 10.5029 79.3348 10.2255C78.6752 9.94818 77.9669 9.80531 77.2513 9.80531C76.5358 9.80531 75.8274 9.94818 75.1678 10.2255C74.5082 10.5029 73.9106 10.9091 73.41 11.4205C72.9095 11.9318 72.5161 12.538 72.2529 13.2034C71.9897 13.8687 71.862 14.58 71.8772 15.2954H71.876Z" fill="#0A2543"/>
<path d="M129.242 24.4669V6.15685C129.242 5.98369 129.31 5.81761 129.433 5.69516C129.555 5.57272 129.721 5.50393 129.895 5.50393H139.151C140.014 5.46255 140.876 5.59651 141.686 5.89773C142.496 6.19894 143.237 6.66117 143.863 7.2565C144.49 7.85183 144.989 8.56791 145.331 9.36152C145.673 10.1551 145.85 11.0098 145.853 11.8739C145.879 13.0215 145.589 14.1542 145.015 15.1481C144.441 16.1419 143.604 16.9587 142.597 17.5089C142.52 17.5496 142.453 17.6049 142.398 17.6719C142.343 17.7389 142.302 17.8161 142.277 17.899C142.252 17.982 142.244 18.0691 142.253 18.1552C142.262 18.2413 142.288 18.3248 142.33 18.4007L145.553 24.1656C145.608 24.2646 145.636 24.3764 145.635 24.4897C145.634 24.6031 145.603 24.7142 145.546 24.8121C145.488 24.9099 145.407 24.9912 145.308 25.0477C145.21 25.1043 145.099 25.1342 144.985 25.1346H141.357C141.24 25.1348 141.125 25.1037 141.025 25.0444C140.924 24.9852 140.841 24.9 140.785 24.7977L137.444 18.6996C137.388 18.5974 137.305 18.5122 137.204 18.4529C137.104 18.3936 136.989 18.3625 136.872 18.3628H134.63C134.545 18.3626 134.46 18.3794 134.38 18.4121C134.301 18.4449 134.229 18.493 134.168 18.5536C134.108 18.6143 134.06 18.6863 134.027 18.7656C133.994 18.8449 133.977 18.9299 133.978 19.0157V24.4731C133.978 24.5588 133.961 24.6437 133.928 24.7229C133.895 24.8022 133.847 24.8741 133.786 24.9348C133.726 24.9954 133.654 25.0435 133.574 25.0763C133.495 25.1091 133.41 25.126 133.325 25.126H129.895C129.809 25.1262 129.724 25.1094 129.645 25.0766C129.565 25.0439 129.493 24.9958 129.433 24.9351C129.372 24.8745 129.324 24.8024 129.291 24.7231C129.258 24.6438 129.242 24.5589 129.242 24.4731V24.4669ZM133.981 13.6624C133.981 13.7482 133.998 13.8331 134.031 13.9123C134.064 13.9915 134.112 14.0635 134.172 14.1241C134.233 14.1848 134.305 14.2328 134.384 14.2657C134.464 14.2985 134.548 14.3154 134.634 14.3154H138.129C138.48 14.3619 138.838 14.3339 139.177 14.2334C139.517 14.1329 139.832 13.9621 140.102 13.7319C140.371 13.5018 140.589 13.2176 140.742 12.8977C140.894 12.5778 140.978 12.2294 140.987 11.8752C140.987 10.5742 139.932 9.54766 138.129 9.54766H134.634C134.548 9.54766 134.464 9.56454 134.384 9.59736C134.305 9.63017 134.233 9.67826 134.172 9.73889C134.112 9.79952 134.064 9.8715 134.031 9.95072C133.998 10.0299 133.981 10.1148 133.981 10.2006V13.6624Z" fill="#0A2543"/>
<path d="M146.461 15.2954C146.434 13.2625 147.012 11.2675 148.122 9.56402C149.231 7.86057 150.823 6.52569 152.693 5.72915C154.564 4.9326 156.629 4.7104 158.626 5.0908C160.623 5.4712 162.462 6.43702 163.909 7.8654C165.356 9.29378 166.345 11.1202 166.751 13.1123C167.157 15.1044 166.961 17.1723 166.188 19.0528C165.416 20.9333 164.101 22.5416 162.412 23.673C160.723 24.8044 158.735 25.4078 156.702 25.4065C155.357 25.4486 154.017 25.2168 152.764 24.7252C151.511 24.2337 150.371 23.4926 149.414 22.5469C148.456 21.6013 147.7 20.4709 147.193 19.2243C146.685 17.9778 146.436 16.6411 146.461 15.2954ZM151.343 15.2954C151.308 16.0156 151.421 16.7355 151.676 17.4101C151.93 18.0847 152.321 18.6997 152.824 19.2167C153.327 19.7338 153.931 20.1419 154.598 20.4156C155.265 20.6893 155.981 20.8229 156.702 20.8079C157.429 20.8384 158.153 20.7158 158.829 20.4479C159.505 20.18 160.117 19.7729 160.626 19.253C161.134 18.7331 161.527 18.112 161.78 17.4302C162.033 16.7484 162.139 16.021 162.092 15.2954C162.107 14.58 161.98 13.8687 161.717 13.2034C161.453 12.538 161.06 11.9318 160.559 11.4205C160.059 10.9091 159.461 10.5029 158.802 10.2255C158.142 9.94818 157.434 9.80531 156.718 9.80531C156.003 9.80531 155.294 9.94818 154.635 10.2255C153.975 10.5029 153.377 10.9091 152.877 11.4205C152.376 11.9318 151.983 12.538 151.72 13.2034C151.456 13.8687 151.328 14.58 151.343 15.2954Z" fill="#0A2543"/>
<path d="M169 9.27815H168.275V5.84079H167.111V5.22829H170.164V5.84079H169V9.27815Z" fill="#0A2543"/>
<path d="M172.523 9.27939L171.412 5.95841H171.388C171.396 6.03558 171.404 6.14093 171.409 6.27813C171.414 6.41533 171.421 6.56601 171.425 6.72771C171.428 6.88941 171.433 7.04009 171.433 7.17729V9.27939H170.78V5.22463H171.79L172.855 8.40964H172.88L173.991 5.22463H175V9.27939H174.308V7.14666C174.308 7.01681 174.308 6.87471 174.317 6.72526C174.325 6.57581 174.329 6.42513 174.333 6.28793C174.336 6.15073 174.345 6.04293 174.349 5.96821H174.324L173.164 9.28429H172.515L172.523 9.27939Z" fill="#0A2543"/>
<defs>
<linearGradient id="paint0_linear_180_1448" x1="0" y1="15.3106" x2="37.909" y2="15.3106" gradientUnits="userSpaceOnUse">
<stop stop-color="#2275B9"/>
<stop offset="1" stop-color="#2DA7DF"/>
</linearGradient>
<linearGradient id="paint1_linear_180_1448" x1="9.47803" y1="27.211" x2="28.4325" y2="27.211" gradientUnits="userSpaceOnUse">
<stop stop-color="#079247"/>
<stop offset="1" stop-color="#40B349"/>
</linearGradient>
<linearGradient id="paint2_linear_180_1448" x1="9.47803" y1="3.41408" x2="28.4325" y2="3.41408" gradientUnits="userSpaceOnUse">
<stop stop-color="#1A5C90"/>
<stop offset="1" stop-color="#2275B9"/>
</linearGradient>
</defs>
</svg>
