<svg width="38" height="7" viewBox="0 0 38 7" fill="none" xmlns="http://www.w3.org/2000/svg">
<path d="M34.7974 6.83183H3.11155C2.66725 6.82651 2.22978 6.72176 1.83125 6.52525C1.43273 6.32875 1.08328 6.04548 0.808549 5.69626C0.285471 5.05137 0 4.24627 0 3.41592C0 2.58557 0.285471 1.78046 0.808549 1.13558C1.08328 0.786351 1.43273 0.503085 1.83125 0.30658C2.22978 0.110074 2.66725 0.00531831 3.11155 0H34.7974C35.2417 0.00531831 35.6792 0.110074 36.0777 0.30658C36.4763 0.503085 36.8257 0.786351 37.1004 1.13558C37.6235 1.78046 37.909 2.58557 37.909 3.41592C37.909 4.24627 37.6235 5.05137 37.1004 5.69626C36.8257 6.04548 36.4763 6.32875 36.0777 6.52525C35.6792 6.72176 35.2417 6.82651 34.7974 6.83183Z" fill="url(#paint0_linear_545_2321)"/>
<defs>
<linearGradient id="paint0_linear_545_2321" x1="0" y1="3.41591" x2="37.909" y2="3.41591" gradientUnits="userSpaceOnUse">
<stop stop-color="#2275B9"/>
<stop offset="1" stop-color="#2DA7DF"/>
</linearGradient>
</defs>
</svg>
