<svg width="550" height="223" viewBox="0 0 550 223" fill="none" xmlns="http://www.w3.org/2000/svg">
<path d="M68.75 178.884L481.25 178.884C519.22 178.884 550 148.103 550 110.134C550 72.1642 519.22 41.3838 481.25 41.3838L68.75 41.3838C30.7804 41.3838 0 72.1642 0 110.134C0 148.103 30.7804 178.884 68.75 178.884Z" fill="#3E8FF8"/>
<path d="M481.25 41.3838H146.85C108.881 41.3838 78.1001 72.1642 78.1001 110.134C78.1001 148.103 108.881 178.884 146.85 178.884H481.25C519.22 178.884 550 148.103 550 110.134C550 72.1642 519.22 41.3838 481.25 41.3838Z" fill="#3E8FF8" fill-opacity="0.5" style="mix-blend-mode:multiply"/>
<path d="M225.894 178.884L481.25 178.884C519.22 178.884 550 148.103 550 110.134C550 72.1642 519.22 41.3838 481.25 41.3838L225.894 41.3838C187.925 41.3838 157.144 72.1642 157.144 110.134C157.144 148.103 187.925 178.884 225.894 178.884Z" fill="#3E8FF8" fill-opacity="0.5" style="mix-blend-mode:multiply"/>
<path d="M304.462 178.884L481.25 178.884C519.22 178.884 550 148.103 550 110.134C550 72.1642 519.22 41.3838 481.25 41.3838L304.462 41.3838C266.492 41.3838 235.712 72.1642 235.712 110.134C235.712 148.103 266.492 178.884 304.462 178.884Z" fill="#3E8FF8" fill-opacity="0.5" style="mix-blend-mode:multiply"/>
<path d="M356.583 124.681L449.295 71.1481L417.156 52.5947L326.104 105.166C325.361 105.587 325.361 106.66 326.104 107.081L356.583 124.681Z" fill="#75A8D2"/>
<path d="M356.583 219.015V126.441C356.583 125.314 355.978 124.269 355.006 123.71L329.184 108.805C327.076 107.585 324.445 109.107 324.445 111.536V204.11C324.445 205.238 325.05 206.283 326.021 206.842L351.844 221.747C353.952 222.966 356.583 221.445 356.583 219.015Z" fill="#0C3B5E"/>
<path d="M356.583 218.951L447.727 167.352V71.084L356.583 122.683V218.951Z" fill="#0E5A8B"/>
<path d="M443.528 117.843L438.267 114.791C435.929 113.434 432.703 113.618 429.146 115.671L434.408 118.723C437.964 116.67 441.191 116.487 443.528 117.843Z" fill="#A1C5E1"/>
<path d="M434.408 118.723L429.146 115.671L351.275 160.633L356.528 163.686L434.399 118.723H434.408Z" fill="#A1C5E1"/>
<path d="M342.164 191.205L347.425 194.257C345.106 192.91 343.676 190.05 343.667 185.97C343.64 177.812 349.387 167.811 356.528 163.686L351.266 160.634C344.125 164.759 338.378 174.76 338.405 182.918C338.415 186.997 339.854 189.857 342.164 191.205Z" fill="#A1C5E1"/>
<path d="M356.528 163.686C349.387 167.811 343.64 177.812 343.667 185.97C343.695 194.184 349.47 197.475 356.62 193.35L434.49 148.387C441.585 144.29 447.333 134.344 447.305 126.13C447.278 117.972 441.503 114.626 434.408 118.724L356.537 163.686H356.528Z" fill="#0C3B5E"/>
<path d="M419.686 142.08C419.686 145.05 421.776 146.26 424.352 144.775C426.928 143.29 429.018 139.669 429.018 136.699C429.018 133.729 426.928 132.519 424.352 134.004C421.776 135.489 419.686 139.11 419.686 142.08Z" fill="#A1C5E1"/>
<path d="M400.445 153.19C400.445 156.16 402.535 157.37 405.111 155.885C407.687 154.4 409.777 150.779 409.777 147.809C409.777 144.839 407.687 143.629 405.111 145.114C402.535 146.599 400.445 150.22 400.445 153.19Z" fill="#A1C5E1"/>
<path d="M381.195 164.3C381.195 167.28 383.285 168.48 385.861 166.995C388.437 165.51 390.527 161.89 390.527 158.92C390.527 155.95 388.437 154.74 385.861 156.225C383.285 157.71 381.195 161.33 381.195 164.3Z" fill="#A1C5E1"/>
<path d="M361.955 175.41C361.955 178.389 364.045 179.59 366.62 178.105C369.196 176.62 371.286 172.999 371.286 170.029C371.286 167.059 369.196 165.849 366.62 167.334C364.045 168.819 361.955 172.44 361.955 175.41Z" fill="#A1C5E1"/>
<path d="M352.467 87.2722C356.666 87.2722 360.057 83.8714 360.057 79.6822V65.2905C360.057 48.3505 372.46 26.8822 387.127 18.4122C392.837 15.1122 398.016 14.333 401.353 16.2489C404.681 18.1739 406.596 23.0597 406.596 29.6597V71.6064C406.596 75.8047 409.988 79.1964 414.186 79.1964C418.385 79.1964 421.776 75.7955 421.776 71.6064V29.6597C421.776 17.3122 417.221 7.8797 408.943 3.10386C400.675 -1.68114 390.216 -0.911136 379.527 5.25803C360.094 16.4872 344.868 42.8505 344.868 65.2905V79.6822C344.868 83.8805 348.269 87.2722 352.458 87.2722H352.467Z" fill="#A1C5E1"/>
<path d="M358.49 123.7L444.959 73.8794C447.37 72.4861 447.37 69.0119 444.959 67.6186L419.714 53.0711C418.596 52.4294 417.211 52.4294 416.093 53.0711L326.434 104.725C325.435 105.303 325.435 106.733 326.434 107.31L354.86 123.691C355.978 124.333 357.362 124.333 358.481 123.691L358.49 123.7Z" fill="#0C3B5E"/>
<path d="M356.345 218.979V123.435C356.345 122.271 355.74 121.198 354.768 120.611L328.946 105.221C326.837 103.965 324.207 105.532 324.207 108.044V203.588C324.207 204.752 324.812 205.825 325.783 206.411L351.606 221.802C353.714 223.058 356.345 221.491 356.345 218.979Z" fill="#0C3B5E"/>
<path d="M356.483 221.71L447.718 168.259V70.6986C447.718 69.6811 446.609 69.0395 445.729 69.562L356.336 121.922V221.628C356.336 221.701 356.409 221.747 356.473 221.71H356.483Z" fill="#80C8E7"/>
<path d="M421.822 53.7492C393.076 71.8717 364.329 90.0034 335.582 108.126C331.861 110.729 329.963 114.937 329.963 119.786L328.937 205.265C328.533 206.365 328.735 207.566 329.477 208.382C330.229 209.207 331.228 209.308 331.476 209.317C329.102 208.134 326.727 206.943 324.353 205.76C323.171 204.944 322.456 203.221 322.428 200.801L322.227 115.23C322.227 109.822 325.591 103.946 328.79 101.792C357.463 84.4484 386.127 67.1051 414.801 49.7617C417.138 51.0909 419.485 52.4109 421.822 53.7401V53.7492Z" fill="#0C3B5E"/>
<path d="M352.238 87.3269C356.437 87.3269 359.828 83.926 359.828 79.7369V65.3452C359.828 48.4052 372.231 26.9369 386.897 18.4669C392.608 15.1669 397.787 14.3877 401.124 16.3035C404.452 18.2285 406.367 23.1144 406.367 29.7144V71.661C406.367 75.8594 409.759 79.251 413.957 79.251C418.156 79.251 421.547 75.8502 421.547 71.661V29.7144C421.547 17.3669 416.992 7.93438 408.714 3.15855C400.446 -1.62645 389.987 -0.856449 379.298 5.31272C359.865 16.5419 344.639 42.9052 344.639 65.3452V79.7369C344.639 83.9352 348.04 87.3269 352.229 87.3269H352.238Z" fill="#CFE0ED"/>
<path d="M447.177 116.789L441.915 113.736C439.578 112.38 436.351 112.563 432.794 114.616L438.056 117.669C441.613 115.615 444.839 115.432 447.177 116.789Z" fill="#CFE0ED"/>
<path d="M438.047 117.669L432.785 114.616L354.915 159.579L360.167 162.631L438.038 117.669H438.047Z" fill="#CFE0ED"/>
<path d="M345.812 190.14L351.074 193.193C348.755 191.845 347.325 188.985 347.315 184.906C347.288 176.748 353.035 166.747 360.176 162.622L354.915 159.569C347.774 163.694 342.026 173.695 342.054 181.854C342.063 185.933 343.502 188.793 345.812 190.14Z" fill="#CFE0ED"/>
<path d="M360.176 162.632C353.036 166.757 347.288 176.757 347.316 184.916C347.343 193.129 353.118 196.42 360.268 192.295L438.139 147.332C445.234 143.235 450.981 133.289 450.954 125.076C450.926 116.917 445.151 113.572 438.056 117.669L360.186 162.632H360.176Z" fill="#0E5A8B"/>
<path d="M423.326 141.025C423.326 143.995 425.416 145.205 427.992 143.72C430.567 142.235 432.657 138.614 432.657 135.644C432.657 132.674 430.567 131.464 427.992 132.949C425.416 134.434 423.326 138.055 423.326 141.025Z" fill="#CFE0ED"/>
<path d="M404.084 152.127C404.084 155.097 406.174 156.307 408.75 154.822C411.326 153.337 413.416 149.716 413.416 146.746C413.416 143.776 411.326 142.566 408.75 144.051C406.174 145.536 404.084 149.157 404.084 152.127Z" fill="#CFE0ED"/>
<path d="M384.844 163.236C384.844 166.215 386.934 167.416 389.51 165.931C392.085 164.446 394.175 160.825 394.175 157.855C394.175 154.885 392.085 153.675 389.51 155.16C386.934 156.645 384.844 160.266 384.844 163.236Z" fill="#CFE0ED"/>
<path d="M365.603 174.346C365.603 177.326 367.693 178.526 370.269 177.041C372.845 175.556 374.935 171.936 374.935 168.966C374.935 165.996 372.845 164.786 370.269 166.271C367.693 167.756 365.603 171.376 365.603 174.346Z" fill="#CFE0ED"/>
<path d="M453.108 162.586L448.405 159.854C450.055 160.817 451.98 161.486 454.162 161.88C456.802 162.348 459.827 162.403 463.219 162.036L467.921 164.768C464.529 165.134 461.504 165.079 458.864 164.612C456.674 164.227 454.749 163.549 453.108 162.586Z" fill="#62BB6C"/>
<path d="M489.738 114.965C489.188 110.51 486.74 104.479 485.053 100.83L480.351 98.0986C482.038 101.747 484.476 107.779 485.035 112.234C485.328 114.617 485.429 117 485.328 119.374C485.228 121.758 484.925 124.132 484.421 126.524C483.917 128.908 483.211 131.309 482.303 133.72C481.396 136.131 480.287 138.56 478.967 141.017C477.124 144.445 474.888 147.919 472.257 151.43C469.626 154.941 466.619 158.479 463.228 162.027L467.93 164.759C471.313 161.211 474.328 157.673 476.959 154.162C479.59 150.651 481.827 147.177 483.669 143.749C484.989 141.292 486.098 138.863 487.006 136.452C487.913 134.041 488.619 131.639 489.123 129.256C489.628 126.873 489.93 124.489 490.031 122.106C490.132 119.723 490.031 117.349 489.738 114.965Z" fill="#62BB6C"/>
<path d="M449.908 120.309L449.863 120.456C448.378 125.497 445.793 134.756 445.243 140.091V140.118C444.94 142.611 444.858 144.976 444.995 147.543V147.589C445.05 149.651 445.334 151.485 445.921 153.529L445.939 153.584C446.398 155.427 446.993 156.746 447.947 158.021H447.956L447.983 158.076C448.983 159.551 449.936 160.523 451.082 161.238H451.1L451.137 161.275C453.08 162.632 455.088 163.429 457.471 163.768H457.526C459.075 164.052 460.615 164.181 462.247 164.181C463.448 164.181 464.685 164.107 466.014 163.961L466.225 163.933C473.888 148.854 473.549 108.814 468.132 102.306L449.908 120.309Z" fill="#31AA4A"/>
<path d="M488.289 113.728V113.691C487.776 109.63 485.732 104.387 484.1 100.693L483.917 100.28L468.242 102.462C473.476 110.18 472.348 148.433 466.225 163.915L466.372 163.759C469.681 160.304 472.532 156.958 475.328 153.218V153.199C477.894 149.881 480.039 146.535 482.111 142.676V142.649C483.385 140.384 484.43 138.102 485.503 135.269V135.242C486.52 132.721 487.18 130.484 487.648 128.009V127.973C488.243 125.186 488.528 122.977 488.564 120.832V120.795C488.683 118.082 488.592 115.827 488.28 113.709L488.289 113.728Z" fill="#31AA4A"/>
<path d="M491.782 114.891C491.214 110.29 488.729 104.185 486.869 100.151L485.063 100.821C486.749 104.469 489.188 110.501 489.747 114.956C490.04 117.339 490.141 119.722 490.04 122.096C489.939 124.48 489.637 126.854 489.133 129.246C488.629 131.63 487.923 134.031 487.015 136.442C486.108 138.853 484.999 141.282 483.679 143.739C481.836 147.167 479.599 150.641 476.969 154.152C474.338 157.663 471.331 161.201 467.939 164.749L469.021 166.573C472.908 162.567 475.896 158.983 478.582 155.399C481.387 151.741 483.578 148.231 485.475 144.692C486.942 142.071 487.996 139.632 488.94 137.121C489.985 134.499 490.654 132.207 491.14 129.631C491.663 127.147 492.029 124.746 492.084 122.225C492.194 119.768 492.149 117.357 491.791 114.882L491.782 114.891Z" fill="#62BB6C"/>
<path d="M445.838 150.184C445.783 149.487 445.756 149.093 445.719 148.57C445.866 150.486 446.159 152.228 446.608 153.795C447.122 155.592 447.837 157.169 448.763 158.525C449.688 159.882 450.807 161.019 452.136 161.954C453.988 163.246 456.243 164.135 458.883 164.603C461.523 165.07 464.548 165.125 467.939 164.759L469.021 166.583C465.125 167.069 462.128 166.94 459.433 166.464C456.609 166.06 454.409 165.079 452.503 163.741C451.027 162.815 449.963 161.596 449.01 160.184C447.956 158.773 447.268 157.269 446.773 155.262C446.333 153.713 445.994 152.09 445.848 150.184H445.838Z" fill="#62BB6C"/>
<path d="M486.868 100.151L485.063 100.821L467.756 103.497L468.838 102.938L486.868 100.151Z" fill="#62BB6C"/>
<path d="M467.738 95.0369L463.026 92.2961L485.503 88.8311L490.205 91.5627L467.738 95.0369Z" fill="#0C3B5E"/>
<path d="M468.819 96.8425L467.738 95.0367L490.205 91.5625L490.572 93.4875L468.819 96.8425Z" fill="#A1C5E1"/>
<path d="M496.713 111.307C498.281 124.04 494.788 135.92 489.178 146.379C483.541 156.902 475.722 166.023 469.03 172.715C462.329 173.76 454.483 173.668 448.799 169.69C443.153 165.73 439.596 157.91 441.099 143.409C442.016 134.48 447.021 118.86 447.113 118.567L468.819 96.8329L490.581 93.4688C490.673 93.6612 495.751 103.451 496.713 111.298V111.307ZM485.466 144.701C486.933 142.08 487.987 139.641 488.931 137.13C489.976 134.508 490.645 132.216 491.131 129.64C491.653 127.156 492.02 124.755 492.075 122.234C492.185 119.777 492.139 117.366 491.782 114.891C491.213 110.29 488.729 104.185 486.868 100.151L468.838 102.938L450.843 120.95C449.01 127.12 446.572 136.057 446.031 141.3C445.683 144.188 445.655 146.645 445.774 148.964C445.838 151.42 446.223 153.391 446.755 155.261C447.25 157.269 447.938 158.772 448.992 160.184C449.945 161.595 451.008 162.815 452.484 163.74C454.4 165.079 456.6 166.06 459.414 166.463C462.109 166.94 465.107 167.068 469.003 166.582C472.889 162.576 475.878 158.992 478.563 155.408C481.368 151.75 483.559 148.24 485.457 144.701H485.466Z" fill="#CFE0ED"/>
<path d="M447.003 170.222C441.182 166.143 437.524 158.076 439.055 143.198C439.999 134.068 445.05 118.311 445.316 117.477L440.614 114.745C440.348 115.57 435.297 131.337 434.353 140.467C432.813 155.344 436.47 163.411 442.3 167.49C442.694 167.765 443.098 168.022 443.51 168.269L448.213 171.001C447.8 170.763 447.397 170.506 447.003 170.222Z" fill="#0C3B5E"/>
<path d="M445.316 117.477L440.604 114.745L463.026 92.2959L467.738 95.0367L445.316 117.477Z" fill="#0C3B5E"/>
<path d="M447.214 118.787L445.417 117.687L467.839 95.2383L468.92 97.0533L447.214 118.787Z" fill="#A1C5E1"/>
<path d="M448.8 169.699C443.153 165.739 439.596 157.92 441.1 143.418C442.016 134.49 447.021 118.87 447.113 118.577L445.316 117.477C445.05 118.302 440 134.068 439.055 143.198C437.515 158.076 441.173 166.142 447.003 170.222C452.824 174.301 460.817 174.383 467.958 173.274L469.03 172.715C462.33 173.76 454.483 173.668 448.8 169.69V169.699Z" fill="#A1C5E1"/>
<path d="M481.754 116.45C482.184 116.202 482.624 116.138 482.964 116.321C483.624 116.715 483.624 117.944 482.964 119.08L468.26 144.555C467.958 145.105 467.509 145.572 467.069 145.829C466.61 146.095 466.179 146.131 465.859 145.948L460.331 142.776C459.653 142.41 459.653 141.181 460.331 140.017C460.661 139.449 461.092 139.009 461.523 138.761C461.954 138.514 462.394 138.45 462.733 138.633L467.059 141.099L480.562 117.715C480.892 117.146 481.323 116.706 481.754 116.459V116.45Z" fill="white"/>
<path d="M78.9065 105.667C78.7085 105.667 78.5555 105.613 78.4475 105.505C78.3395 105.379 78.2855 105.226 78.2855 105.046V87.415C78.2855 87.217 78.3395 87.064 78.4475 86.956C78.5555 86.83 78.7085 86.767 78.9065 86.767H85.7645C87.0965 86.767 88.2485 86.983 89.2205 87.415C90.2105 87.847 90.9755 88.495 91.5155 89.359C92.0555 90.205 92.3255 91.267 92.3255 92.545C92.3255 93.823 92.0555 94.885 91.5155 95.731C90.9755 96.577 90.2105 97.216 89.2205 97.648C88.2485 98.08 87.0965 98.296 85.7645 98.296H80.9855V105.046C80.9855 105.226 80.9225 105.379 80.7965 105.505C80.6885 105.613 80.5355 105.667 80.3375 105.667H78.9065ZM80.9585 96.028H85.6295C86.9615 96.028 87.9605 95.731 88.6265 95.137C89.2925 94.543 89.6255 93.679 89.6255 92.545C89.6255 91.429 89.3015 90.565 88.6535 89.953C88.0055 89.341 86.9975 89.035 85.6295 89.035H80.9585V96.028ZM98.9091 105.937C98.0091 105.937 97.1901 105.757 96.4521 105.397C95.7141 105.037 95.1201 104.551 94.6701 103.939C94.2201 103.327 93.9951 102.634 93.9951 101.86C93.9951 100.618 94.4991 99.628 95.5071 98.89C96.5151 98.152 97.8291 97.666 99.4491 97.432L103.472 96.865V96.082C103.472 95.218 103.22 94.543 102.716 94.057C102.23 93.571 101.429 93.328 100.313 93.328C99.5031 93.328 98.8461 93.49 98.3421 93.814C97.8561 94.138 97.5141 94.552 97.3161 95.056C97.2081 95.326 97.0191 95.461 96.7491 95.461H95.5341C95.3361 95.461 95.1831 95.407 95.0751 95.299C94.9851 95.173 94.9401 95.029 94.9401 94.867C94.9401 94.597 95.0391 94.264 95.2371 93.868C95.4531 93.472 95.7771 93.085 96.2091 92.707C96.6411 92.329 97.1901 92.014 97.8561 91.762C98.5401 91.492 99.3681 91.357 100.34 91.357C101.42 91.357 102.329 91.501 103.067 91.789C103.805 92.059 104.381 92.428 104.795 92.896C105.227 93.364 105.533 93.895 105.713 94.489C105.911 95.083 106.01 95.686 106.01 96.298V105.046C106.01 105.226 105.947 105.379 105.821 105.505C105.713 105.613 105.569 105.667 105.389 105.667H104.147C103.949 105.667 103.796 105.613 103.688 105.505C103.58 105.379 103.526 105.226 103.526 105.046V103.885C103.292 104.209 102.977 104.533 102.581 104.857C102.185 105.163 101.69 105.424 101.096 105.64C100.502 105.838 99.7731 105.937 98.9091 105.937ZM99.4761 103.912C100.214 103.912 100.889 103.759 101.501 103.453C102.113 103.129 102.59 102.634 102.932 101.968C103.292 101.302 103.472 100.465 103.472 99.457V98.701L100.34 99.16C99.0621 99.34 98.0991 99.646 97.4511 100.078C96.8031 100.492 96.4791 101.023 96.4791 101.671C96.4791 102.175 96.6231 102.598 96.9111 102.94C97.2171 103.264 97.5951 103.507 98.0451 103.669C98.5131 103.831 98.9901 103.912 99.4761 103.912ZM114.752 105.937C113.744 105.937 112.88 105.811 112.16 105.559C111.44 105.307 110.855 105.001 110.405 104.641C109.955 104.281 109.613 103.921 109.379 103.561C109.163 103.201 109.046 102.913 109.028 102.697C109.01 102.499 109.073 102.346 109.217 102.238C109.361 102.13 109.505 102.076 109.649 102.076H110.837C110.945 102.076 111.026 102.094 111.08 102.13C111.152 102.148 111.242 102.22 111.35 102.346C111.584 102.598 111.845 102.85 112.133 103.102C112.421 103.354 112.772 103.561 113.186 103.723C113.618 103.885 114.149 103.966 114.779 103.966C115.697 103.966 116.453 103.795 117.047 103.453C117.641 103.093 117.938 102.571 117.938 101.887C117.938 101.437 117.812 101.077 117.56 100.807C117.326 100.537 116.894 100.294 116.264 100.078C115.652 99.862 114.806 99.637 113.726 99.403C112.646 99.151 111.791 98.845 111.161 98.485C110.531 98.107 110.081 97.666 109.811 97.162C109.541 96.64 109.406 96.055 109.406 95.407C109.406 94.741 109.604 94.102 110 93.49C110.396 92.86 110.972 92.347 111.728 91.951C112.502 91.555 113.465 91.357 114.617 91.357C115.553 91.357 116.354 91.474 117.02 91.708C117.686 91.942 118.235 92.239 118.667 92.599C119.099 92.941 119.423 93.283 119.639 93.625C119.855 93.967 119.972 94.255 119.99 94.489C120.008 94.669 119.954 94.822 119.828 94.948C119.702 95.056 119.558 95.11 119.396 95.11H118.262C118.136 95.11 118.028 95.083 117.938 95.029C117.866 94.975 117.794 94.912 117.722 94.84C117.542 94.606 117.326 94.372 117.074 94.138C116.84 93.904 116.525 93.715 116.129 93.571C115.751 93.409 115.247 93.328 114.617 93.328C113.717 93.328 113.042 93.517 112.592 93.895C112.142 94.273 111.917 94.75 111.917 95.326C111.917 95.668 112.016 95.974 112.214 96.244C112.412 96.514 112.79 96.757 113.348 96.973C113.906 97.189 114.734 97.423 115.832 97.675C117.02 97.909 117.956 98.224 118.64 98.62C119.324 99.016 119.81 99.475 120.098 99.997C120.386 100.519 120.53 101.122 120.53 101.806C120.53 102.562 120.305 103.255 119.855 103.885C119.423 104.515 118.775 105.019 117.911 105.397C117.065 105.757 116.012 105.937 114.752 105.937ZM128.515 105.937C127.507 105.937 126.643 105.811 125.923 105.559C125.203 105.307 124.618 105.001 124.168 104.641C123.718 104.281 123.376 103.921 123.142 103.561C122.926 103.201 122.809 102.913 122.791 102.697C122.773 102.499 122.836 102.346 122.98 102.238C123.124 102.13 123.268 102.076 123.412 102.076H124.6C124.708 102.076 124.789 102.094 124.843 102.13C124.915 102.148 125.005 102.22 125.113 102.346C125.347 102.598 125.608 102.85 125.896 103.102C126.184 103.354 126.535 103.561 126.949 103.723C127.381 103.885 127.912 103.966 128.542 103.966C129.46 103.966 130.216 103.795 130.81 103.453C131.404 103.093 131.701 102.571 131.701 101.887C131.701 101.437 131.575 101.077 131.323 100.807C131.089 100.537 130.657 100.294 130.027 100.078C129.415 99.862 128.569 99.637 127.489 99.403C126.409 99.151 125.554 98.845 124.924 98.485C124.294 98.107 123.844 97.666 123.574 97.162C123.304 96.64 123.169 96.055 123.169 95.407C123.169 94.741 123.367 94.102 123.763 93.49C124.159 92.86 124.735 92.347 125.491 91.951C126.265 91.555 127.228 91.357 128.38 91.357C129.316 91.357 130.117 91.474 130.783 91.708C131.449 91.942 131.998 92.239 132.43 92.599C132.862 92.941 133.186 93.283 133.402 93.625C133.618 93.967 133.735 94.255 133.753 94.489C133.771 94.669 133.717 94.822 133.591 94.948C133.465 95.056 133.321 95.11 133.159 95.11H132.025C131.899 95.11 131.791 95.083 131.701 95.029C131.629 94.975 131.557 94.912 131.485 94.84C131.305 94.606 131.089 94.372 130.837 94.138C130.603 93.904 130.288 93.715 129.892 93.571C129.514 93.409 129.01 93.328 128.38 93.328C127.48 93.328 126.805 93.517 126.355 93.895C125.905 94.273 125.68 94.75 125.68 95.326C125.68 95.668 125.779 95.974 125.977 96.244C126.175 96.514 126.553 96.757 127.111 96.973C127.669 97.189 128.497 97.423 129.595 97.675C130.783 97.909 131.719 98.224 132.403 98.62C133.087 99.016 133.573 99.475 133.861 99.997C134.149 100.519 134.293 101.122 134.293 101.806C134.293 102.562 134.068 103.255 133.618 103.885C133.186 104.515 132.538 105.019 131.674 105.397C130.828 105.757 129.775 105.937 128.515 105.937ZM140.776 105.667C140.542 105.667 140.362 105.613 140.236 105.505C140.11 105.379 140.002 105.208 139.912 104.992L136.078 92.464C136.042 92.374 136.024 92.284 136.024 92.194C136.024 92.032 136.078 91.897 136.186 91.789C136.312 91.681 136.447 91.627 136.591 91.627H137.779C137.977 91.627 138.13 91.681 138.238 91.789C138.346 91.897 138.418 91.996 138.454 92.086L141.451 102.265L144.664 92.194C144.7 92.068 144.772 91.942 144.88 91.816C145.006 91.69 145.186 91.627 145.42 91.627H146.338C146.572 91.627 146.752 91.69 146.878 91.816C147.004 91.942 147.076 92.068 147.094 92.194L150.307 102.265L153.304 92.086C153.322 91.996 153.385 91.897 153.493 91.789C153.601 91.681 153.754 91.627 153.952 91.627H155.14C155.302 91.627 155.437 91.681 155.545 91.789C155.653 91.897 155.707 92.032 155.707 92.194C155.707 92.284 155.689 92.374 155.653 92.464L151.819 104.992C151.765 105.208 151.666 105.379 151.522 105.505C151.396 105.613 151.207 105.667 150.955 105.667H149.902C149.668 105.667 149.47 105.613 149.308 105.505C149.164 105.379 149.065 105.208 149.011 104.992L145.879 95.326L142.747 104.992C142.675 105.208 142.567 105.379 142.423 105.505C142.279 105.613 142.081 105.667 141.829 105.667H140.776ZM164.079 105.937C162.711 105.937 161.568 105.676 160.65 105.154C159.732 104.632 159.03 103.912 158.544 102.994C158.058 102.058 157.788 100.996 157.734 99.808C157.716 99.502 157.707 99.115 157.707 98.647C157.707 98.161 157.716 97.774 157.734 97.486C157.788 96.28 158.058 95.218 158.544 94.3C159.048 93.382 159.759 92.662 160.677 92.14C161.595 91.618 162.729 91.357 164.079 91.357C165.429 91.357 166.563 91.618 167.481 92.14C168.399 92.662 169.101 93.382 169.587 94.3C170.091 95.218 170.37 96.28 170.424 97.486C170.442 97.774 170.451 98.161 170.451 98.647C170.451 99.115 170.442 99.502 170.424 99.808C170.37 100.996 170.1 102.058 169.614 102.994C169.128 103.912 168.426 104.632 167.508 105.154C166.59 105.676 165.447 105.937 164.079 105.937ZM164.079 103.858C165.195 103.858 166.086 103.507 166.752 102.805C167.418 102.085 167.778 101.041 167.832 99.673C167.85 99.403 167.859 99.061 167.859 98.647C167.859 98.233 167.85 97.891 167.832 97.621C167.778 96.253 167.418 95.218 166.752 94.516C166.086 93.796 165.195 93.436 164.079 93.436C162.963 93.436 162.063 93.796 161.379 94.516C160.713 95.218 160.362 96.253 160.326 97.621C160.308 97.891 160.299 98.233 160.299 98.647C160.299 99.061 160.308 99.403 160.326 99.673C160.362 101.041 160.713 102.085 161.379 102.805C162.063 103.507 162.963 103.858 164.079 103.858ZM174.453 105.667C174.273 105.667 174.12 105.613 173.994 105.505C173.886 105.379 173.832 105.226 173.832 105.046V92.275C173.832 92.095 173.886 91.942 173.994 91.816C174.12 91.69 174.273 91.627 174.453 91.627H175.695C175.875 91.627 176.028 91.69 176.154 91.816C176.28 91.942 176.343 92.095 176.343 92.275V93.463C176.703 92.851 177.198 92.392 177.828 92.086C178.458 91.78 179.214 91.627 180.096 91.627H181.176C181.356 91.627 181.5 91.69 181.608 91.816C181.716 91.924 181.77 92.068 181.77 92.248V93.355C181.77 93.535 181.716 93.679 181.608 93.787C181.5 93.895 181.356 93.949 181.176 93.949H179.556C178.584 93.949 177.819 94.237 177.261 94.813C176.703 95.371 176.424 96.136 176.424 97.108V105.046C176.424 105.226 176.361 105.379 176.235 105.505C176.109 105.613 175.956 105.667 175.776 105.667H174.453ZM188.929 105.937C187.939 105.937 187.084 105.766 186.364 105.424C185.644 105.064 185.05 104.587 184.582 103.993C184.132 103.381 183.79 102.688 183.556 101.914C183.34 101.14 183.214 100.321 183.178 99.457C183.16 99.169 183.151 98.899 183.151 98.647C183.151 98.395 183.16 98.125 183.178 97.837C183.214 96.991 183.34 96.181 183.556 95.407C183.79 94.633 184.132 93.94 184.582 93.328C185.05 92.716 185.644 92.239 186.364 91.897C187.084 91.537 187.939 91.357 188.929 91.357C189.991 91.357 190.873 91.546 191.575 91.924C192.277 92.302 192.853 92.77 193.303 93.328V87.118C193.303 86.938 193.357 86.794 193.465 86.686C193.591 86.56 193.744 86.497 193.924 86.497H195.22C195.4 86.497 195.544 86.56 195.652 86.686C195.778 86.794 195.841 86.938 195.841 87.118V105.046C195.841 105.226 195.778 105.379 195.652 105.505C195.544 105.613 195.4 105.667 195.22 105.667H194.005C193.807 105.667 193.654 105.613 193.546 105.505C193.438 105.379 193.384 105.226 193.384 105.046V103.912C192.934 104.488 192.349 104.974 191.629 105.37C190.909 105.748 190.009 105.937 188.929 105.937ZM189.496 103.75C190.396 103.75 191.116 103.543 191.656 103.129C192.196 102.715 192.601 102.193 192.871 101.563C193.141 100.915 193.285 100.258 193.303 99.592C193.321 99.304 193.33 98.962 193.33 98.566C193.33 98.152 193.321 97.801 193.303 97.513C193.285 96.883 193.132 96.262 192.844 95.65C192.574 95.038 192.16 94.534 191.602 94.138C191.062 93.742 190.36 93.544 189.496 93.544C188.578 93.544 187.849 93.751 187.309 94.165C186.769 94.561 186.382 95.092 186.148 95.758C185.914 96.406 185.779 97.108 185.743 97.864C185.725 98.386 185.725 98.908 185.743 99.43C185.779 100.186 185.914 100.897 186.148 101.563C186.382 102.211 186.769 102.742 187.309 103.156C187.849 103.552 188.578 103.75 189.496 103.75ZM85.0895 137.937C83.4335 137.937 82.0565 137.631 80.9585 137.019C79.8785 136.407 79.0595 135.552 78.5015 134.454C77.9435 133.356 77.6375 132.078 77.5835 130.62C77.5655 129.882 77.5565 129.09 77.5565 128.244C77.5565 127.398 77.5655 126.588 77.5835 125.814C77.6375 124.356 77.9435 123.078 78.5015 121.98C79.0595 120.882 79.8785 120.027 80.9585 119.415C82.0565 118.803 83.4335 118.497 85.0895 118.497C86.3315 118.497 87.4205 118.668 88.3565 119.01C89.2925 119.352 90.0665 119.811 90.6785 120.387C91.3085 120.963 91.7855 121.611 92.1095 122.331C92.4335 123.033 92.6135 123.762 92.6495 124.518C92.6675 124.68 92.6135 124.815 92.4875 124.923C92.3795 125.031 92.2445 125.085 92.0825 125.085H90.5975C90.4355 125.085 90.2915 125.04 90.1655 124.95C90.0575 124.86 89.9765 124.698 89.9225 124.464C89.6165 123.06 89.0405 122.097 88.1945 121.575C87.3665 121.053 86.3225 120.792 85.0625 120.792C83.6225 120.792 82.4795 121.206 81.6335 122.034C80.7875 122.844 80.3285 124.149 80.2565 125.949C80.2025 127.425 80.2025 128.937 80.2565 130.485C80.3285 132.285 80.7875 133.599 81.6335 134.427C82.4795 135.237 83.6225 135.642 85.0625 135.642C86.3225 135.642 87.3665 135.381 88.1945 134.859C89.0405 134.337 89.6165 133.374 89.9225 131.97C89.9765 131.736 90.0575 131.574 90.1655 131.484C90.2915 131.394 90.4355 131.349 90.5975 131.349H92.0825C92.2445 131.349 92.3795 131.403 92.4875 131.511C92.6135 131.619 92.6675 131.754 92.6495 131.916C92.6135 132.672 92.4335 133.41 92.1095 134.13C91.7855 134.832 91.3085 135.471 90.6785 136.047C90.0665 136.623 89.2925 137.082 88.3565 137.424C87.4205 137.766 86.3315 137.937 85.0895 137.937ZM96.5379 137.667C96.3579 137.667 96.2049 137.613 96.0789 137.505C95.9709 137.379 95.9169 137.226 95.9169 137.046V124.275C95.9169 124.095 95.9709 123.942 96.0789 123.816C96.2049 123.69 96.3579 123.627 96.5379 123.627H97.7799C97.9599 123.627 98.1129 123.69 98.2389 123.816C98.3649 123.942 98.4279 124.095 98.4279 124.275V125.463C98.7879 124.851 99.2829 124.392 99.9129 124.086C100.543 123.78 101.299 123.627 102.181 123.627H103.261C103.441 123.627 103.585 123.69 103.693 123.816C103.801 123.924 103.855 124.068 103.855 124.248V125.355C103.855 125.535 103.801 125.679 103.693 125.787C103.585 125.895 103.441 125.949 103.261 125.949H101.641C100.669 125.949 99.9039 126.237 99.3459 126.813C98.7879 127.371 98.5089 128.136 98.5089 129.108V137.046C98.5089 137.226 98.4459 137.379 98.3199 137.505C98.1939 137.613 98.0409 137.667 97.8609 137.667H96.5379ZM111.499 137.937C109.645 137.937 108.169 137.37 107.071 136.236C105.973 135.084 105.37 133.518 105.262 131.538C105.244 131.304 105.235 131.007 105.235 130.647C105.235 130.269 105.244 129.963 105.262 129.729C105.334 128.451 105.631 127.335 106.153 126.381C106.675 125.409 107.386 124.662 108.286 124.14C109.204 123.618 110.275 123.357 111.499 123.357C112.867 123.357 114.01 123.645 114.928 124.221C115.864 124.797 116.575 125.616 117.061 126.678C117.547 127.74 117.79 128.982 117.79 130.404V130.863C117.79 131.061 117.727 131.214 117.601 131.322C117.493 131.43 117.349 131.484 117.169 131.484H107.827C107.827 131.502 107.827 131.538 107.827 131.592C107.827 131.646 107.827 131.691 107.827 131.727C107.863 132.465 108.025 133.158 108.313 133.806C108.601 134.436 109.015 134.949 109.555 135.345C110.095 135.741 110.743 135.939 111.499 135.939C112.147 135.939 112.687 135.84 113.119 135.642C113.551 135.444 113.902 135.228 114.172 134.994C114.442 134.742 114.622 134.553 114.712 134.427C114.874 134.193 115 134.058 115.09 134.022C115.18 133.968 115.324 133.941 115.522 133.941H116.818C116.998 133.941 117.142 133.995 117.25 134.103C117.376 134.193 117.43 134.328 117.412 134.508C117.394 134.778 117.25 135.111 116.98 135.507C116.71 135.885 116.323 136.263 115.819 136.641C115.315 137.019 114.703 137.334 113.983 137.586C113.263 137.82 112.435 137.937 111.499 137.937ZM107.827 129.621H115.225V129.54C115.225 128.73 115.072 128.01 114.766 127.38C114.478 126.75 114.055 126.255 113.497 125.895C112.939 125.517 112.273 125.328 111.499 125.328C110.725 125.328 110.059 125.517 109.501 125.895C108.961 126.255 108.547 126.75 108.259 127.38C107.971 128.01 107.827 128.73 107.827 129.54V129.621ZM124.934 137.937C124.034 137.937 123.215 137.757 122.477 137.397C121.739 137.037 121.145 136.551 120.695 135.939C120.245 135.327 120.02 134.634 120.02 133.86C120.02 132.618 120.524 131.628 121.532 130.89C122.54 130.152 123.854 129.666 125.474 129.432L129.497 128.865V128.082C129.497 127.218 129.245 126.543 128.741 126.057C128.255 125.571 127.454 125.328 126.338 125.328C125.528 125.328 124.871 125.49 124.367 125.814C123.881 126.138 123.539 126.552 123.341 127.056C123.233 127.326 123.044 127.461 122.774 127.461H121.559C121.361 127.461 121.208 127.407 121.1 127.299C121.01 127.173 120.965 127.029 120.965 126.867C120.965 126.597 121.064 126.264 121.262 125.868C121.478 125.472 121.802 125.085 122.234 124.707C122.666 124.329 123.215 124.014 123.881 123.762C124.565 123.492 125.393 123.357 126.365 123.357C127.445 123.357 128.354 123.501 129.092 123.789C129.83 124.059 130.406 124.428 130.82 124.896C131.252 125.364 131.558 125.895 131.738 126.489C131.936 127.083 132.035 127.686 132.035 128.298V137.046C132.035 137.226 131.972 137.379 131.846 137.505C131.738 137.613 131.594 137.667 131.414 137.667H130.172C129.974 137.667 129.821 137.613 129.713 137.505C129.605 137.379 129.551 137.226 129.551 137.046V135.885C129.317 136.209 129.002 136.533 128.606 136.857C128.21 137.163 127.715 137.424 127.121 137.64C126.527 137.838 125.798 137.937 124.934 137.937ZM125.501 135.912C126.239 135.912 126.914 135.759 127.526 135.453C128.138 135.129 128.615 134.634 128.957 133.968C129.317 133.302 129.497 132.465 129.497 131.457V130.701L126.365 131.16C125.087 131.34 124.124 131.646 123.476 132.078C122.828 132.492 122.504 133.023 122.504 133.671C122.504 134.175 122.648 134.598 122.936 134.94C123.242 135.264 123.62 135.507 124.07 135.669C124.538 135.831 125.015 135.912 125.501 135.912ZM141.265 137.667C140.257 137.667 139.438 137.478 138.808 137.1C138.178 136.704 137.719 136.155 137.431 135.453C137.143 134.733 136.999 133.887 136.999 132.915V125.787H134.893C134.713 125.787 134.56 125.733 134.434 125.625C134.326 125.499 134.272 125.346 134.272 125.166V124.248C134.272 124.068 134.326 123.924 134.434 123.816C134.56 123.69 134.713 123.627 134.893 123.627H136.999V119.118C136.999 118.938 137.053 118.794 137.161 118.686C137.287 118.56 137.44 118.497 137.62 118.497H138.889C139.069 118.497 139.213 118.56 139.321 118.686C139.447 118.794 139.51 118.938 139.51 119.118V123.627H142.858C143.038 123.627 143.182 123.69 143.29 123.816C143.416 123.924 143.479 124.068 143.479 124.248V125.166C143.479 125.346 143.416 125.499 143.29 125.625C143.182 125.733 143.038 125.787 142.858 125.787H139.51V132.726C139.51 133.572 139.654 134.238 139.942 134.724C140.23 135.21 140.743 135.453 141.481 135.453H143.128C143.308 135.453 143.452 135.516 143.56 135.642C143.686 135.75 143.749 135.894 143.749 136.074V137.046C143.749 137.226 143.686 137.379 143.56 137.505C143.452 137.613 143.308 137.667 143.128 137.667H141.265ZM151.92 137.937C150.066 137.937 148.59 137.37 147.492 136.236C146.394 135.084 145.791 133.518 145.683 131.538C145.665 131.304 145.656 131.007 145.656 130.647C145.656 130.269 145.665 129.963 145.683 129.729C145.755 128.451 146.052 127.335 146.574 126.381C147.096 125.409 147.807 124.662 148.707 124.14C149.625 123.618 150.696 123.357 151.92 123.357C153.288 123.357 154.431 123.645 155.349 124.221C156.285 124.797 156.996 125.616 157.482 126.678C157.968 127.74 158.211 128.982 158.211 130.404V130.863C158.211 131.061 158.148 131.214 158.022 131.322C157.914 131.43 157.77 131.484 157.59 131.484H148.248C148.248 131.502 148.248 131.538 148.248 131.592C148.248 131.646 148.248 131.691 148.248 131.727C148.284 132.465 148.446 133.158 148.734 133.806C149.022 134.436 149.436 134.949 149.976 135.345C150.516 135.741 151.164 135.939 151.92 135.939C152.568 135.939 153.108 135.84 153.54 135.642C153.972 135.444 154.323 135.228 154.593 134.994C154.863 134.742 155.043 134.553 155.133 134.427C155.295 134.193 155.421 134.058 155.511 134.022C155.601 133.968 155.745 133.941 155.943 133.941H157.239C157.419 133.941 157.563 133.995 157.671 134.103C157.797 134.193 157.851 134.328 157.833 134.508C157.815 134.778 157.671 135.111 157.401 135.507C157.131 135.885 156.744 136.263 156.24 136.641C155.736 137.019 155.124 137.334 154.404 137.586C153.684 137.82 152.856 137.937 151.92 137.937ZM148.248 129.621H155.646V129.54C155.646 128.73 155.493 128.01 155.187 127.38C154.899 126.75 154.476 126.255 153.918 125.895C153.36 125.517 152.694 125.328 151.92 125.328C151.146 125.328 150.48 125.517 149.922 125.895C149.382 126.255 148.968 126.75 148.68 127.38C148.392 128.01 148.248 128.73 148.248 129.54V129.621ZM166.569 137.937C165.579 137.937 164.724 137.766 164.004 137.424C163.284 137.064 162.69 136.587 162.222 135.993C161.772 135.381 161.43 134.688 161.196 133.914C160.98 133.14 160.854 132.321 160.818 131.457C160.8 131.169 160.791 130.899 160.791 130.647C160.791 130.395 160.8 130.125 160.818 129.837C160.854 128.991 160.98 128.181 161.196 127.407C161.43 126.633 161.772 125.94 162.222 125.328C162.69 124.716 163.284 124.239 164.004 123.897C164.724 123.537 165.579 123.357 166.569 123.357C167.631 123.357 168.513 123.546 169.215 123.924C169.917 124.302 170.493 124.77 170.943 125.328V119.118C170.943 118.938 170.997 118.794 171.105 118.686C171.231 118.56 171.384 118.497 171.564 118.497H172.86C173.04 118.497 173.184 118.56 173.292 118.686C173.418 118.794 173.481 118.938 173.481 119.118V137.046C173.481 137.226 173.418 137.379 173.292 137.505C173.184 137.613 173.04 137.667 172.86 137.667H171.645C171.447 137.667 171.294 137.613 171.186 137.505C171.078 137.379 171.024 137.226 171.024 137.046V135.912C170.574 136.488 169.989 136.974 169.269 137.37C168.549 137.748 167.649 137.937 166.569 137.937ZM167.136 135.75C168.036 135.75 168.756 135.543 169.296 135.129C169.836 134.715 170.241 134.193 170.511 133.563C170.781 132.915 170.925 132.258 170.943 131.592C170.961 131.304 170.97 130.962 170.97 130.566C170.97 130.152 170.961 129.801 170.943 129.513C170.925 128.883 170.772 128.262 170.484 127.65C170.214 127.038 169.8 126.534 169.242 126.138C168.702 125.742 168 125.544 167.136 125.544C166.218 125.544 165.489 125.751 164.949 126.165C164.409 126.561 164.022 127.092 163.788 127.758C163.554 128.406 163.419 129.108 163.383 129.864C163.365 130.386 163.365 130.908 163.383 131.43C163.419 132.186 163.554 132.897 163.788 133.563C164.022 134.211 164.409 134.742 164.949 135.156C165.489 135.552 166.218 135.75 167.136 135.75Z" fill="white"/>
</svg>
