<svg width="550" height="230" viewBox="0 0 550 230" fill="none" xmlns="http://www.w3.org/2000/svg">
<path d="M68.75 183.559L481.25 183.559C519.22 183.559 550 152.778 550 114.809C550 76.839 519.22 46.0586 481.25 46.0586L68.75 46.0586C30.7804 46.0586 0 76.839 0 114.809C0 152.778 30.7804 183.559 68.75 183.559Z" fill="#3E8FF8"/>
<path d="M481.25 46.0586H146.85C108.881 46.0586 78.1001 76.839 78.1001 114.809C78.1001 152.778 108.881 183.559 146.85 183.559H481.25C519.22 183.559 550 152.778 550 114.809C550 76.839 519.22 46.0586 481.25 46.0586Z" fill="#3E8FF8" fill-opacity="0.5" style="mix-blend-mode:multiply"/>
<path d="M225.894 183.559L481.25 183.559C519.22 183.559 550 152.778 550 114.809C550 76.839 519.22 46.0586 481.25 46.0586L225.894 46.0586C187.925 46.0586 157.144 76.839 157.144 114.809C157.144 152.778 187.925 183.559 225.894 183.559Z" fill="#3E8FF8" fill-opacity="0.5" style="mix-blend-mode:multiply"/>
<path d="M304.462 183.559L481.25 183.559C519.22 183.559 550 152.778 550 114.809C550 76.839 519.22 46.0586 481.25 46.0586L304.462 46.0586C266.492 46.0586 235.712 76.839 235.712 114.809C235.712 152.778 266.492 183.559 304.462 183.559Z" fill="#3E8FF8" fill-opacity="0.5" style="mix-blend-mode:multiply"/>
<path d="M379.271 110.014L461.074 62.7877L432.722 46.416L350.918 93.6427L379.271 110.014Z" fill="#0E5A8B"/>
<path d="M379.271 198.079V109.96L350.918 93.5879V181.707L379.271 198.079Z" fill="#2C353B"/>
<path d="M379.271 198.078L461.074 150.852V62.7324L379.271 109.959V198.078Z" fill="#80C8E7"/>
<path d="M375.641 77.0059C379.344 77.0059 382.342 74.0084 382.342 70.305V57.6092C382.342 42.6675 393.278 23.72 406.221 16.2492C411.263 13.3342 415.828 12.6467 418.779 14.3425C421.713 16.0475 423.408 20.3559 423.408 26.1675V63.1825C423.408 66.8859 426.406 69.8834 430.109 69.8834C433.813 69.8834 436.81 66.8859 436.81 63.1825V26.1675C436.81 15.2775 432.786 6.95419 425.48 2.73752C418.183 -1.47915 408.962 -0.809981 399.529 4.64419C382.378 14.5534 368.949 37.8184 368.949 57.6184V70.3142C368.949 74.0175 371.947 77.015 375.65 77.015L375.641 77.0059Z" fill="#CFE0ED"/>
<path d="M367.309 104.359C367.244 104.029 367.235 103.689 367.263 103.359C367.263 103.699 367.281 104.029 367.309 104.359Z" fill="#DCDCDC"/>
<path d="M327.241 221.601V169.644L322.603 166.885V218.841C322.603 221.216 323.437 222.884 324.784 223.672L329.432 226.431C328.075 225.643 327.241 223.975 327.232 221.601H327.241Z" fill="#E3E3E3"/>
<path d="M327.25 171.871L405.973 126.139V178.095C405.973 182.871 402.618 188.692 398.456 191.094L334.785 228.136C330.623 230.538 327.25 228.604 327.231 223.828V171.871H327.241H327.25Z" fill="white"/>
<path d="M329.34 223.819V173.081L403.407 130.062L403.883 129.787V178.095C403.883 182.129 400.932 187.253 397.421 189.279L333.74 226.321C332.667 226.935 331.888 227.073 331.421 227.073C330.11 227.073 329.349 225.89 329.34 223.819ZM329.982 173.439V223.819C329.982 224.8 330.165 226.44 331.421 226.44C331.815 226.44 332.475 226.321 333.428 225.78L397.109 188.738C400.446 186.813 403.26 181.936 403.251 178.095V130.878L329.991 173.439H329.982Z" fill="#FF8CCD"/>
<path d="M398.42 118.219C402.581 115.818 405.955 117.743 405.973 122.528V126.139L327.259 171.872V168.26C327.231 163.484 330.596 157.663 334.748 155.262L398.42 118.219Z" fill="#A1C5E1"/>
<path d="M336.389 159.369C336.838 159.103 337.205 159.323 337.205 159.837V161.908C337.205 162.422 336.848 163.045 336.398 163.311L333.456 165.007C333.007 165.263 332.64 165.062 332.64 164.548V162.477C332.64 161.963 332.998 161.322 333.447 161.065L336.389 159.369Z" fill="#F6D13A"/>
<path d="M343.732 155.068C344.181 154.803 344.548 155.023 344.548 155.536V157.608C344.548 158.121 344.19 158.744 343.741 159.01L340.808 160.706C340.358 160.972 339.992 160.761 339.992 160.248V158.176C339.992 157.663 340.349 157.03 340.798 156.764L343.732 155.068Z" fill="#F6D13A"/>
<path d="M350.854 151.008C351.303 150.751 351.67 150.962 351.67 151.475V153.547C351.67 154.06 351.312 154.693 350.863 154.949L347.921 156.645C347.472 156.911 347.105 156.7 347.105 156.187V154.115C347.105 153.602 347.462 152.969 347.912 152.704L350.854 151.008Z" fill="#F6D13A"/>
<path d="M399.126 114.946C397.76 114.148 395.862 114.258 393.772 115.468L330.101 152.511C325.939 154.913 322.584 160.724 322.593 165.509V169.121L327.25 171.88V168.268C327.222 163.493 330.587 157.672 334.739 155.27L398.411 118.228C400.501 117.018 402.398 116.908 403.764 117.705L399.117 114.946H399.126Z" fill="#0C3B5E"/>
<path d="M391.114 158.992L337.498 189.948C336.939 190.269 336.407 190.452 335.912 190.535C335.738 190.085 335.637 189.545 335.637 188.93V184.21C335.619 181.313 337.654 177.784 340.175 176.335L393.791 145.38C394.35 145.059 394.882 144.875 395.377 144.793C395.551 145.242 395.652 145.783 395.652 146.397V151.118C395.67 154.015 393.635 157.544 391.114 158.992Z" fill="#0E5A8B"/>
<path d="M398.374 147.974C398.374 146.535 397.861 145.526 397.045 145.05C396.578 144.775 396.009 144.692 395.377 144.784C395.551 145.233 395.652 145.774 395.652 146.388V151.109C395.67 154.006 393.635 157.535 391.114 158.983L337.498 189.939C336.939 190.26 336.408 190.443 335.913 190.526C336.142 191.121 336.499 191.571 336.967 191.846C337.801 192.331 338.947 192.258 340.212 191.525L393.828 160.569C396.348 159.111 398.383 155.582 398.374 152.695V147.974Z" fill="#80C8E7"/>
<path d="M349.323 174.494L350.139 174.567L349.14 176.529V176.557L350.643 175.337V176.428L349.131 177.015V177.033L350.148 177.794L349.323 178.821L348.773 177.473L348.755 177.482L348.223 179.453L347.416 179.371L348.416 177.437L348.406 177.418L346.931 178.573V177.482L348.397 176.987V176.96L347.407 176.162L348.241 175.117L348.764 176.492L348.782 176.483L349.323 174.494Z" fill="#80C8E7"/>
<path d="M353.595 172.027L354.411 172.101L353.412 174.062V174.09L354.915 172.871V173.962L353.403 174.548V174.567L354.42 175.327L353.595 176.354L353.045 175.007L353.027 175.016L352.495 176.987L351.688 176.904L352.688 174.97L352.678 174.952L351.203 176.107V175.016L352.669 174.521V174.493L351.679 173.696L352.513 172.651L353.036 174.026L353.054 174.017L353.595 172.027Z" fill="#80C8E7"/>
<path d="M357.867 169.562L358.682 169.636L357.683 171.598V171.625L359.187 170.406V171.497L357.674 172.083V172.102L358.692 172.853L357.867 173.889L357.317 172.533L357.298 172.551L356.767 174.522L355.96 174.439L356.959 172.505L356.95 172.487L355.474 173.642V172.551L356.941 172.047V172.028L355.951 171.231L356.785 170.186L357.307 171.561L357.326 171.552L357.867 169.562Z" fill="#80C8E7"/>
<path d="M362.138 167.096L362.954 167.169L361.955 169.131V169.158L363.458 167.939V169.03L361.946 169.617V169.635L362.963 170.387L362.138 171.422L361.588 170.066L361.57 170.084L361.038 172.055L360.231 171.972L361.231 170.038L361.221 170.02L359.746 171.175V170.084L361.212 169.58V169.562L360.222 168.764L361.056 167.719L361.579 169.094L361.597 169.076L362.138 167.096Z" fill="#80C8E7"/>
<path d="M366.41 164.621L367.226 164.704L366.227 166.665V166.693L367.73 165.474V166.564L366.218 167.151V167.169L367.235 167.921L366.41 168.957L365.86 167.6L365.842 167.619L365.31 169.589L364.503 169.507L365.503 167.573L365.493 167.554L364.018 168.709V167.619L365.484 167.114V167.096L364.494 166.299L365.328 165.254L365.851 166.629L365.869 166.61L366.41 164.621Z" fill="#80C8E7"/>
<path d="M370.682 162.154L371.497 162.237L370.498 164.198V164.217L372.002 163.007L372.011 164.098L370.489 164.684V164.703L371.507 165.454L370.682 166.481L370.132 165.133L370.113 165.152L369.582 167.123L368.775 167.04L369.774 165.106L369.765 165.088L368.289 166.243V165.152L369.756 164.648V164.629L368.766 163.832L369.6 162.778L370.122 164.162L370.141 164.143L370.682 162.154Z" fill="#80C8E7"/>
<path d="M374.954 159.689L375.779 159.772L374.77 161.734V161.752L376.274 160.542L376.283 161.633L374.761 162.219V162.238L375.788 162.989L374.954 164.016L374.404 162.669L374.385 162.687L373.854 164.658L373.047 164.575L374.046 162.641L374.037 162.623L372.561 163.778V162.687L374.028 162.183V162.164L373.038 161.367L373.872 160.313L374.394 161.697L374.413 161.679L374.954 159.689Z" fill="#80C8E7"/>
<path d="M379.225 157.223L380.05 157.305L379.042 159.267V159.285L380.545 158.075L380.554 159.166L379.033 159.753V159.771L380.059 160.523L379.225 161.549L378.675 160.202L378.657 160.211L378.125 162.191L377.318 162.108L378.318 160.174L378.308 160.156L376.833 161.311V160.22L378.299 159.716V159.698L377.309 158.891L378.143 157.846L378.666 159.221L378.684 159.212L379.225 157.223Z" fill="#80C8E7"/>
<path d="M383.496 154.758L384.322 154.84L383.313 156.802V156.82L384.816 155.61L384.826 156.701L383.304 157.288V157.306L384.331 158.058L383.496 159.084L382.947 157.737L382.928 157.746L382.397 159.726L381.59 159.634L382.589 157.709L382.58 157.691L381.104 158.846V157.755L382.571 157.251V157.233L381.581 156.426L382.415 155.381L382.937 156.756L382.956 156.747L383.496 154.758Z" fill="#80C8E7"/>
<path d="M391.114 181.891L337.498 212.846C336.939 213.167 336.407 213.351 335.912 213.433C335.738 212.984 335.637 212.443 335.637 211.829V207.108C335.619 204.211 337.654 200.682 340.175 199.234L393.791 168.278C394.35 167.957 394.882 167.774 395.377 167.691C395.551 168.141 395.652 168.681 395.652 169.296V174.016C395.67 176.913 393.635 180.442 391.114 181.891Z" fill="#0E5A8B"/>
<path d="M398.374 170.872C398.374 169.433 397.861 168.425 397.045 167.948C396.578 167.673 396.009 167.591 395.377 167.682C395.551 168.132 395.652 168.672 395.652 169.287V174.007C395.67 176.904 393.635 180.433 391.114 181.882L337.498 212.837C336.939 213.158 336.408 213.342 335.913 213.424C336.142 214.02 336.499 214.469 336.967 214.744C337.801 215.23 338.947 215.157 340.212 214.423L393.828 183.467C396.348 182.01 398.383 178.481 398.374 175.593V170.872Z" fill="#80C8E7"/>
<path d="M349.323 197.393L350.139 197.466L349.14 199.428V199.455L350.643 198.236V199.327L349.131 199.913V199.932L350.148 200.693L349.323 201.719L348.773 200.372L348.755 200.381L348.223 202.352L347.416 202.269L348.416 200.335L348.406 200.317L346.931 201.472V200.381L348.397 199.886V199.858L347.407 199.061L348.241 198.016L348.764 199.391L348.782 199.382L349.323 197.393Z" fill="#80C8E7"/>
<path d="M353.595 194.926L354.411 194.999L353.412 196.961V196.988L354.915 195.769V196.86L353.403 197.447V197.465L354.42 198.226L353.595 199.252L353.045 197.905L353.027 197.914L352.495 199.885L351.688 199.802L352.688 197.868L352.678 197.85L351.203 199.005V197.914L352.669 197.419V197.392L351.679 196.594L352.513 195.549L353.036 196.924L353.054 196.915L353.595 194.926Z" fill="#80C8E7"/>
<path d="M357.867 192.461L358.682 192.534L357.683 194.496V194.523L359.187 193.304V194.395L357.674 194.982V195L358.692 195.752L357.867 196.788L357.317 195.431L357.298 195.449L356.767 197.42L355.96 197.338L356.959 195.403L356.95 195.385L355.474 196.54V195.449L356.941 194.945V194.927L355.951 194.129L356.785 193.084L357.307 194.459L357.326 194.45L357.867 192.461Z" fill="#80C8E7"/>
<path d="M362.138 189.994L362.954 190.067L361.955 192.029V192.057L363.458 190.837V191.928L361.946 192.515V192.533L362.963 193.285L362.138 194.321L361.588 192.964L361.57 192.982L361.038 194.953L360.231 194.871L361.231 192.937L361.221 192.918L359.746 194.073V192.982L361.212 192.478V192.46L360.222 191.662L361.056 190.617L361.579 191.992L361.597 191.974L362.138 189.994Z" fill="#80C8E7"/>
<path d="M366.41 187.52L367.226 187.602L366.227 189.564V189.591L367.73 188.372V189.463L366.218 190.05V190.068L367.235 190.82L366.41 191.855L365.86 190.499L365.842 190.517L365.31 192.488L364.503 192.405L365.503 190.471L365.493 190.453L364.018 191.608V190.517L365.484 190.013V189.995L364.494 189.197L365.328 188.152L365.851 189.527L365.869 189.509L366.41 187.52Z" fill="#80C8E7"/>
<path d="M370.682 185.053L371.497 185.135L370.498 187.097V187.115L372.002 185.905L372.011 186.996L370.489 187.583V187.601L371.507 188.353L370.682 189.379L370.132 188.032L370.113 188.05L369.582 190.021L368.775 189.939L369.774 188.004L369.765 187.986L368.289 189.141V188.05L369.756 187.546V187.528L368.766 186.73L369.6 185.676L370.122 187.06L370.141 187.042L370.682 185.053Z" fill="#80C8E7"/>
<path d="M374.954 182.588L375.779 182.67L374.77 184.632V184.65L376.274 183.44L376.283 184.531L374.761 185.118V185.136L375.788 185.888L374.954 186.915L374.404 185.567L374.385 185.585L373.854 187.556L373.047 187.474L374.046 185.54L374.037 185.521L372.561 186.676V185.585L374.028 185.081V185.063L373.038 184.265L373.872 183.211L374.394 184.595L374.413 184.577L374.954 182.588Z" fill="#80C8E7"/>
<path d="M379.225 180.121L380.05 180.204L379.042 182.165V182.184L380.545 180.974L380.554 182.064L379.033 182.651V182.669L380.059 183.421L379.225 184.448L378.675 183.1L378.657 183.109L378.125 185.089L377.318 185.007L378.318 183.073L378.308 183.054L376.833 184.209V183.119L378.299 182.614V182.596L377.309 181.789L378.143 180.744L378.666 182.119L378.684 182.11L379.225 180.121Z" fill="#80C8E7"/>
<path d="M383.496 177.656L384.322 177.739L383.313 179.7V179.719L384.816 178.509L384.826 179.6L383.304 180.186V180.205L384.331 180.956L383.496 181.983L382.947 180.635L382.928 180.645L382.397 182.625L381.59 182.533L382.589 180.608L382.58 180.59L381.104 181.745V180.654L382.571 180.15V180.131L381.581 179.325L382.415 178.28L382.937 179.655L382.956 179.645L383.496 177.656Z" fill="#80C8E7"/>
<path d="M412.317 138.753C412.317 136.617 412.812 134.325 413.674 132.098L427.607 140.192L427.634 150.614C427.634 153.804 425.407 157.682 422.629 159.286C421.236 160.093 419.971 160.166 419.064 159.634C418.165 159.112 417.606 157.993 417.597 156.417L417.569 145.994L413.609 143.693C412.794 142.474 412.326 140.815 412.317 138.762V138.753Z" fill="#0E5A8B"/>
<path d="M415.305 145.316C414.645 144.931 414.068 144.381 413.609 143.693L417.569 145.994C416.735 145.939 415.974 145.71 415.305 145.316Z" fill="#0E5A8B"/>
<path d="M413.673 132.097C413.875 131.575 414.104 131.052 414.343 130.548C414.379 130.484 414.407 130.411 414.443 130.347C414.563 130.099 414.682 129.861 414.81 129.613C414.837 129.558 414.865 129.512 414.892 129.457C415.122 129.036 415.36 128.614 415.608 128.211C415.681 128.092 415.745 127.982 415.818 127.862C415.938 127.67 416.066 127.477 416.194 127.285C416.304 127.129 416.414 126.964 416.524 126.808C416.698 126.561 416.873 126.322 417.056 126.075C417.193 125.901 417.331 125.717 417.468 125.543C417.578 125.406 417.688 125.277 417.798 125.149C418 124.911 418.211 124.672 418.422 124.443C418.513 124.342 418.605 124.251 418.697 124.159C418.908 123.939 419.128 123.719 419.338 123.517C419.43 123.435 419.522 123.343 419.604 123.261C419.879 123.004 420.154 122.757 420.448 122.527C420.466 122.509 420.493 122.491 420.512 122.472C420.787 122.252 421.071 122.042 421.355 121.84C421.438 121.785 421.511 121.73 421.593 121.675C421.896 121.464 422.208 121.262 422.519 121.088C425.37 119.447 427.946 119.292 429.807 120.373C431.64 121.437 432.786 123.71 432.795 126.937C432.804 131.337 430.714 136.387 427.607 140.201L413.673 132.107V132.097Z" fill="#0C3B5E"/>
<path d="M388.657 93.1854C388.63 92.7729 388.603 92.3604 388.575 91.957C388.694 93.6162 388.685 95.257 388.612 96.907C388.566 99.4279 388.19 101.83 387.668 104.314C387.182 106.89 386.503 109.181 385.468 111.803C384.523 114.315 383.469 116.753 382.003 119.375C380.105 122.913 377.914 126.433 375.109 130.081C372.423 133.665 369.444 137.25 365.548 141.255L366.621 140.678C370.003 137.13 373.019 133.592 375.65 130.081C378.281 126.57 380.518 123.096 382.36 119.668C383.68 117.211 384.789 114.782 385.697 112.371C386.604 109.96 387.31 107.559 387.814 105.175C388.318 102.792 388.621 100.409 388.722 98.0254C388.795 96.412 388.767 94.7987 388.657 93.1762V93.1854Z" fill="#A3ABB3"/>
<path d="M356.51 141.245L351.808 138.514C353.458 139.476 355.383 140.145 357.564 140.54C360.204 141.007 363.229 141.062 366.621 140.695L371.323 143.427C367.932 143.794 364.907 143.739 362.267 143.271C360.076 142.886 358.151 142.208 356.51 141.245Z" fill="#62BB6C"/>
<path d="M393.14 93.6245C392.59 89.1695 390.142 83.1378 388.456 79.4895L383.753 76.7578C385.44 80.4061 387.878 86.4378 388.437 90.8928C388.731 93.2762 388.832 95.6595 388.731 98.0336C388.63 100.417 388.327 102.791 387.823 105.184C387.319 107.567 386.613 109.969 385.706 112.379C384.798 114.79 383.689 117.219 382.369 119.676C380.527 123.104 378.29 126.579 375.659 130.089C373.028 133.6 370.022 137.139 366.63 140.686L371.332 143.418C374.715 139.87 377.731 136.332 380.362 132.821C382.992 129.31 385.229 125.836 387.072 122.408C388.392 119.951 389.501 117.522 390.408 115.111C391.316 112.7 392.022 110.299 392.526 107.915C393.03 105.532 393.332 103.149 393.433 100.765C393.534 98.382 393.433 96.0078 393.14 93.6245Z" fill="#62BB6C"/>
<path d="M353.311 98.9701L353.265 99.1168C351.78 104.158 349.195 113.417 348.645 118.752V118.779C348.342 121.273 348.26 123.638 348.397 126.204V126.25C348.452 128.313 348.737 130.146 349.323 132.19L349.342 132.245C349.8 134.088 350.396 135.408 351.349 136.682H351.358L351.386 136.737C352.385 138.213 353.338 139.184 354.484 139.899H354.502L354.539 139.936C356.482 141.293 358.49 142.09 360.873 142.429H360.928C362.477 142.713 364.017 142.842 365.649 142.842C366.85 142.842 368.087 142.768 369.417 142.622L369.627 142.594C377.291 127.515 376.952 87.4751 371.534 80.9668L353.311 98.9701Z" fill="#31AA4A"/>
<path d="M391.692 92.387V92.3503C391.178 88.2895 389.134 83.0461 387.502 79.352L387.319 78.9395L371.644 81.1211C376.878 88.8395 375.751 127.092 369.627 142.574L369.774 142.419C373.083 138.963 375.934 135.617 378.73 131.877V131.859C381.297 128.54 383.442 125.194 385.513 121.335V121.308C386.787 119.044 387.832 116.761 388.905 113.929V113.901C389.922 111.38 390.582 109.144 391.05 106.669V106.632C391.646 103.845 391.93 101.636 391.967 99.4911V99.4545C392.086 96.7411 391.994 94.4861 391.682 92.3686L391.692 92.387Z" fill="#31AA4A"/>
<path d="M395.184 93.5525C394.616 88.9508 392.132 82.8458 390.271 78.8125L388.465 79.4817C390.152 83.13 392.59 89.1617 393.149 93.6167C393.443 96 393.543 98.3833 393.443 100.757C393.342 103.141 393.039 105.515 392.535 107.907C392.031 110.291 391.325 112.692 390.418 115.103C389.51 117.514 388.401 119.943 387.081 122.4C385.238 125.828 383.002 129.302 380.371 132.813C377.74 136.324 374.733 139.862 371.342 143.41L372.423 145.234C376.31 141.228 379.298 137.644 381.984 134.06C384.789 130.402 386.98 126.892 388.878 123.353C390.344 120.732 391.398 118.293 392.343 115.782C393.388 113.16 394.057 110.868 394.543 108.292C395.065 105.808 395.432 103.407 395.487 100.886C395.597 98.4292 395.551 96.0183 395.193 93.5433L395.184 93.5525Z" fill="#62BB6C"/>
<path d="M393.974 72.1477L393.607 70.2227C393.873 70.7452 398.997 80.6268 399.987 88.6477L400.107 89.9677C399.144 82.1302 394.066 72.331 393.974 72.1385V72.1477Z" fill="#A1C5E1"/>
<path d="M349.241 128.844C349.186 128.147 349.158 127.753 349.122 127.23C349.268 129.146 349.562 130.888 350.011 132.455C350.524 134.252 351.239 135.829 352.165 137.185C353.091 138.542 354.209 139.679 355.538 140.614C357.39 141.906 359.645 142.795 362.285 143.263C364.925 143.73 367.95 143.785 371.342 143.419L372.423 145.243C368.527 145.729 365.53 145.6 362.835 145.124C360.012 144.72 357.812 143.74 355.905 142.401C354.429 141.475 353.366 140.256 352.412 138.845C351.358 137.433 350.671 135.93 350.176 133.922C349.736 132.373 349.397 130.75 349.25 128.844H349.241Z" fill="#62BB6C"/>
<path d="M390.271 78.8125L388.465 79.4817L371.158 82.1583L372.24 81.5992L390.271 78.8125Z" fill="#62BB6C"/>
<path d="M371.14 73.6961L366.428 70.9552L388.905 67.4902L393.607 70.2219L371.14 73.6961Z" fill="#0C3B5E"/>
<path d="M372.222 75.5027L371.14 73.6968L393.608 70.2227L393.974 72.1477L372.222 75.5027Z" fill="#A1C5E1"/>
<path d="M400.116 89.9672C401.683 102.7 398.191 114.58 392.581 125.039C386.943 135.562 379.124 144.683 372.432 151.375C365.732 152.42 357.885 152.328 352.202 148.35C346.555 144.39 342.998 136.571 344.502 122.069C345.418 113.141 350.423 97.5206 350.515 97.2272L372.222 75.4931L393.983 72.1289C394.075 72.3214 399.153 82.1114 400.116 89.9581V89.9672ZM388.868 123.361C390.335 120.74 391.389 118.301 392.333 115.79C393.378 113.168 394.047 110.876 394.533 108.301C395.056 105.816 395.422 103.415 395.477 100.894C395.587 98.4372 395.542 96.0264 395.184 93.5514C394.616 88.9497 392.132 82.8447 390.271 78.8114L372.24 81.5981L354.246 99.6106C352.413 105.78 349.974 114.717 349.433 119.961C349.085 122.848 349.058 125.305 349.177 127.624C349.241 130.081 349.626 132.051 350.157 133.921C350.652 135.929 351.34 137.432 352.394 138.844C353.347 140.256 354.411 141.475 355.887 142.401C357.802 143.739 360.002 144.72 362.817 145.123C365.512 145.6 368.509 145.728 372.405 145.242C376.292 141.236 379.28 137.652 381.966 134.068C384.771 130.411 386.962 126.9 388.859 123.361H388.868Z" fill="#CFE0ED"/>
<path d="M350.405 148.881C344.584 144.802 340.927 136.735 342.458 121.858C343.402 112.728 348.453 96.9701 348.718 96.136L344.016 93.4043C343.75 94.2293 338.699 109.996 337.755 119.126C336.215 134.003 339.873 142.07 345.703 146.149C346.097 146.424 346.5 146.681 346.913 146.928L351.615 149.66C351.203 149.422 350.799 149.165 350.405 148.881Z" fill="#0C3B5E"/>
<path d="M348.719 96.1359L344.007 93.4042L366.428 70.9551L371.14 73.6959L348.719 96.1359Z" fill="#0C3B5E"/>
<path d="M350.616 97.4476L348.819 96.3476L371.241 73.8984L372.323 75.7134L350.616 97.4476Z" fill="#A1C5E1"/>
<path d="M352.202 148.359C346.555 144.399 342.999 136.58 344.502 122.078C345.419 113.15 350.424 97.5301 350.515 97.2367L348.719 96.1367C348.453 96.9617 343.402 112.728 342.458 121.858C340.918 136.736 344.575 144.803 350.405 148.882C356.226 152.961 364.219 153.043 371.36 151.934L372.433 151.375C365.732 152.42 357.885 152.328 352.202 148.35V148.359Z" fill="#A1C5E1"/>
<path d="M385.156 95.1107C385.587 94.8632 386.027 94.799 386.366 94.9823C387.026 95.3765 387.026 96.6048 386.366 97.7415L371.663 123.216C371.36 123.766 370.911 124.233 370.471 124.49C370.013 124.756 369.582 124.792 369.261 124.609L363.733 121.437C363.055 121.071 363.055 119.842 363.733 118.678C364.063 118.11 364.494 117.67 364.925 117.422C365.356 117.175 365.796 117.111 366.135 117.294L370.462 119.76L383.964 96.3757C384.294 95.8073 384.725 95.3673 385.156 95.1198V95.1107Z" fill="white"/>
<path d="M78.97 106.648C78.772 106.648 78.619 106.594 78.511 106.486C78.403 106.36 78.349 106.207 78.349 106.027V88.3964C78.349 88.1984 78.403 88.0454 78.511 87.9374C78.619 87.8114 78.772 87.7484 78.97 87.7484H85.828C87.16 87.7484 88.312 87.9644 89.284 88.3964C90.274 88.8284 91.039 89.4764 91.579 90.3404C92.119 91.1864 92.389 92.2484 92.389 93.5264C92.389 94.8044 92.119 95.8664 91.579 96.7124C91.039 97.5584 90.274 98.1974 89.284 98.6294C88.312 99.0614 87.16 99.2774 85.828 99.2774H81.049V106.027C81.049 106.207 80.986 106.36 80.86 106.486C80.752 106.594 80.599 106.648 80.401 106.648H78.97ZM81.022 97.0094H85.693C87.025 97.0094 88.024 96.7124 88.69 96.1184C89.356 95.5244 89.689 94.6604 89.689 93.5264C89.689 92.4104 89.365 91.5464 88.717 90.9344C88.069 90.3224 87.061 90.0164 85.693 90.0164H81.022V97.0094ZM98.9726 106.918C98.0726 106.918 97.2536 106.738 96.5156 106.378C95.7776 106.018 95.1836 105.532 94.7336 104.92C94.2836 104.308 94.0586 103.615 94.0586 102.841C94.0586 101.599 94.5626 100.609 95.5706 99.8714C96.5786 99.1334 97.8926 98.6474 99.5126 98.4134L103.536 97.8464V97.0634C103.536 96.1994 103.284 95.5244 102.78 95.0384C102.294 94.5524 101.493 94.3094 100.377 94.3094C99.5846 94.3094 98.9366 94.4714 98.4326 94.7954C97.9286 95.1194 97.5776 95.5334 97.3796 96.0374C97.2716 96.3074 97.0826 96.4424 96.8126 96.4424H95.5976C95.3996 96.4424 95.2466 96.3884 95.1386 96.2804C95.0486 96.1544 95.0036 96.0104 95.0036 95.8484C95.0036 95.5784 95.1026 95.2454 95.3006 94.8494C95.5166 94.4534 95.8406 94.0664 96.2726 93.6884C96.7046 93.3104 97.2536 92.9954 97.9196 92.7434C98.6036 92.4734 99.4316 92.3384 100.404 92.3384C101.484 92.3384 102.393 92.4824 103.131 92.7704C103.869 93.0404 104.445 93.4094 104.859 93.8774C105.291 94.3454 105.597 94.8764 105.777 95.4704C105.975 96.0644 106.074 96.6674 106.074 97.2794V106.027C106.074 106.207 106.011 106.36 105.885 106.486C105.777 106.594 105.633 106.648 105.453 106.648H104.211C104.013 106.648 103.86 106.594 103.752 106.486C103.644 106.36 103.59 106.207 103.59 106.027V104.866C103.356 105.19 103.041 105.514 102.645 105.838C102.249 106.144 101.754 106.405 101.16 106.621C100.566 106.819 99.8366 106.918 98.9726 106.918ZM99.5396 104.893C100.278 104.893 100.953 104.74 101.565 104.434C102.177 104.11 102.654 103.615 102.996 102.949C103.356 102.283 103.536 101.446 103.536 100.438V99.6824L100.404 100.141C99.1256 100.321 98.1626 100.627 97.5146 101.059C96.8666 101.473 96.5426 102.004 96.5426 102.652C96.5426 103.156 96.6866 103.579 96.9746 103.921C97.2806 104.245 97.6586 104.488 98.1086 104.65C98.5766 104.812 99.0536 104.893 99.5396 104.893ZM114.815 106.918C113.807 106.918 112.943 106.792 112.223 106.54C111.503 106.288 110.918 105.982 110.468 105.622C110.018 105.262 109.676 104.902 109.442 104.542C109.226 104.182 109.109 103.894 109.091 103.678C109.073 103.48 109.136 103.327 109.28 103.219C109.424 103.111 109.568 103.057 109.712 103.057H110.927C111.017 103.057 111.089 103.075 111.143 103.111C111.215 103.129 111.305 103.201 111.413 103.327C111.647 103.579 111.908 103.831 112.196 104.083C112.484 104.335 112.835 104.542 113.249 104.704C113.681 104.866 114.212 104.947 114.842 104.947C115.76 104.947 116.516 104.776 117.11 104.434C117.704 104.074 118.001 103.552 118.001 102.868C118.001 102.418 117.875 102.058 117.623 101.788C117.389 101.518 116.957 101.275 116.327 101.059C115.715 100.843 114.869 100.618 113.789 100.384C112.709 100.132 111.854 99.8264 111.224 99.4664C110.594 99.0884 110.144 98.6474 109.874 98.1434C109.604 97.6214 109.469 97.0364 109.469 96.3884C109.469 95.7224 109.667 95.0834 110.063 94.4714C110.459 93.8414 111.035 93.3284 111.791 92.9324C112.565 92.5364 113.528 92.3384 114.68 92.3384C115.616 92.3384 116.417 92.4554 117.083 92.6894C117.749 92.9234 118.298 93.2204 118.73 93.5804C119.162 93.9224 119.486 94.2644 119.702 94.6064C119.918 94.9484 120.035 95.2364 120.053 95.4704C120.071 95.6504 120.017 95.8034 119.891 95.9294C119.765 96.0374 119.621 96.0914 119.459 96.0914H118.325C118.199 96.0914 118.091 96.0644 118.001 96.0104C117.929 95.9564 117.857 95.8934 117.785 95.8214C117.605 95.5874 117.389 95.3534 117.137 95.1194C116.903 94.8854 116.588 94.6964 116.192 94.5524C115.814 94.3904 115.31 94.3094 114.68 94.3094C113.78 94.3094 113.105 94.4984 112.655 94.8764C112.205 95.2544 111.98 95.7314 111.98 96.3074C111.98 96.6494 112.079 96.9554 112.277 97.2254C112.475 97.4954 112.853 97.7384 113.411 97.9544C113.969 98.1704 114.797 98.4044 115.895 98.6564C117.083 98.8904 118.019 99.2054 118.703 99.6014C119.387 99.9974 119.873 100.456 120.161 100.978C120.449 101.5 120.593 102.103 120.593 102.787C120.593 103.543 120.377 104.236 119.945 104.866C119.513 105.496 118.865 106 118.001 106.378C117.137 106.738 116.075 106.918 114.815 106.918ZM128.579 106.918C127.571 106.918 126.707 106.792 125.987 106.54C125.267 106.288 124.682 105.982 124.232 105.622C123.782 105.262 123.44 104.902 123.206 104.542C122.99 104.182 122.873 103.894 122.855 103.678C122.837 103.48 122.9 103.327 123.044 103.219C123.188 103.111 123.332 103.057 123.476 103.057H124.691C124.781 103.057 124.853 103.075 124.907 103.111C124.979 103.129 125.069 103.201 125.177 103.327C125.411 103.579 125.672 103.831 125.96 104.083C126.248 104.335 126.599 104.542 127.013 104.704C127.445 104.866 127.976 104.947 128.606 104.947C129.524 104.947 130.28 104.776 130.874 104.434C131.468 104.074 131.765 103.552 131.765 102.868C131.765 102.418 131.639 102.058 131.387 101.788C131.153 101.518 130.721 101.275 130.091 101.059C129.479 100.843 128.633 100.618 127.553 100.384C126.473 100.132 125.618 99.8264 124.988 99.4664C124.358 99.0884 123.908 98.6474 123.638 98.1434C123.368 97.6214 123.233 97.0364 123.233 96.3884C123.233 95.7224 123.431 95.0834 123.827 94.4714C124.223 93.8414 124.799 93.3284 125.555 92.9324C126.329 92.5364 127.292 92.3384 128.444 92.3384C129.38 92.3384 130.181 92.4554 130.847 92.6894C131.513 92.9234 132.062 93.2204 132.494 93.5804C132.926 93.9224 133.25 94.2644 133.466 94.6064C133.682 94.9484 133.799 95.2364 133.817 95.4704C133.835 95.6504 133.781 95.8034 133.655 95.9294C133.529 96.0374 133.385 96.0914 133.223 96.0914H132.089C131.963 96.0914 131.855 96.0644 131.765 96.0104C131.693 95.9564 131.621 95.8934 131.549 95.8214C131.369 95.5874 131.153 95.3534 130.901 95.1194C130.667 94.8854 130.352 94.6964 129.956 94.5524C129.578 94.3904 129.074 94.3094 128.444 94.3094C127.544 94.3094 126.869 94.4984 126.419 94.8764C125.969 95.2544 125.744 95.7314 125.744 96.3074C125.744 96.6494 125.843 96.9554 126.041 97.2254C126.239 97.4954 126.617 97.7384 127.175 97.9544C127.733 98.1704 128.561 98.4044 129.659 98.6564C130.847 98.8904 131.783 99.2054 132.467 99.6014C133.151 99.9974 133.637 100.456 133.925 100.978C134.213 101.5 134.357 102.103 134.357 102.787C134.357 103.543 134.141 104.236 133.709 104.866C133.277 105.496 132.629 106 131.765 106.378C130.901 106.738 129.839 106.918 128.579 106.918ZM140.839 106.648C140.605 106.648 140.425 106.594 140.299 106.486C140.173 106.36 140.065 106.189 139.975 105.973L136.141 93.4454C136.105 93.3554 136.087 93.2654 136.087 93.1754C136.087 93.0134 136.141 92.8784 136.249 92.7704C136.375 92.6624 136.51 92.6084 136.654 92.6084H137.842C138.04 92.6084 138.193 92.6624 138.301 92.7704C138.409 92.8784 138.481 92.9774 138.517 93.0674L141.514 103.246L144.727 93.1754C144.763 93.0494 144.835 92.9234 144.943 92.7974C145.069 92.6714 145.249 92.6084 145.483 92.6084H146.401C146.635 92.6084 146.815 92.6714 146.941 92.7974C147.067 92.9234 147.139 93.0494 147.157 93.1754L150.37 103.246L153.367 93.0674C153.385 92.9774 153.448 92.8784 153.556 92.7704C153.664 92.6624 153.817 92.6084 154.015 92.6084H155.23C155.374 92.6084 155.5 92.6624 155.608 92.7704C155.716 92.8784 155.77 93.0134 155.77 93.1754C155.77 93.2654 155.752 93.3554 155.716 93.4454L151.909 105.973C151.837 106.189 151.738 106.36 151.612 106.486C151.486 106.594 151.288 106.648 151.018 106.648H149.965C149.731 106.648 149.533 106.594 149.371 106.486C149.227 106.36 149.128 106.189 149.074 105.973L145.942 96.3074L142.81 105.973C142.738 106.189 142.63 106.36 142.486 106.486C142.342 106.594 142.144 106.648 141.892 106.648H140.839ZM164.143 106.918C162.775 106.918 161.632 106.657 160.714 106.135C159.796 105.613 159.094 104.893 158.608 103.975C158.122 103.039 157.852 101.977 157.798 100.789C157.78 100.483 157.771 100.096 157.771 99.6284C157.771 99.1424 157.78 98.7554 157.798 98.4674C157.852 97.2614 158.122 96.1994 158.608 95.2814C159.112 94.3634 159.823 93.6434 160.741 93.1214C161.659 92.5994 162.793 92.3384 164.143 92.3384C165.493 92.3384 166.627 92.5994 167.545 93.1214C168.463 93.6434 169.165 94.3634 169.651 95.2814C170.155 96.1994 170.434 97.2614 170.488 98.4674C170.506 98.7554 170.515 99.1424 170.515 99.6284C170.515 100.096 170.506 100.483 170.488 100.789C170.434 101.977 170.164 103.039 169.678 103.975C169.192 104.893 168.49 105.613 167.572 106.135C166.654 106.657 165.511 106.918 164.143 106.918ZM164.143 104.839C165.259 104.839 166.15 104.488 166.816 103.786C167.482 103.066 167.842 102.022 167.896 100.654C167.914 100.384 167.923 100.042 167.923 99.6284C167.923 99.2144 167.914 98.8724 167.896 98.6024C167.842 97.2344 167.482 96.1994 166.816 95.4974C166.15 94.7774 165.259 94.4174 164.143 94.4174C163.027 94.4174 162.127 94.7774 161.443 95.4974C160.777 96.1994 160.426 97.2344 160.39 98.6024C160.372 98.8724 160.363 99.2144 160.363 99.6284C160.363 100.042 160.372 100.384 160.39 100.654C160.426 102.022 160.777 103.066 161.443 103.786C162.127 104.488 163.027 104.839 164.143 104.839ZM174.516 106.648C174.336 106.648 174.183 106.594 174.057 106.486C173.949 106.36 173.895 106.207 173.895 106.027V93.2564C173.895 93.0764 173.949 92.9234 174.057 92.7974C174.183 92.6714 174.336 92.6084 174.516 92.6084H175.758C175.938 92.6084 176.091 92.6714 176.217 92.7974C176.343 92.9234 176.406 93.0764 176.406 93.2564V94.4444C176.766 93.8324 177.261 93.3734 177.891 93.0674C178.521 92.7614 179.286 92.6084 180.186 92.6084H181.239C181.419 92.6084 181.563 92.6714 181.671 92.7974C181.797 92.9054 181.86 93.0494 181.86 93.2294V94.3364C181.86 94.5164 181.797 94.6604 181.671 94.7684C181.563 94.8764 181.419 94.9304 181.239 94.9304H179.619C178.647 94.9304 177.882 95.2184 177.324 95.7944C176.766 96.3524 176.487 97.1174 176.487 98.0894V106.027C176.487 106.207 176.424 106.36 176.298 106.486C176.172 106.594 176.019 106.648 175.839 106.648H174.516ZM188.992 106.918C188.002 106.918 187.147 106.747 186.427 106.405C185.707 106.045 185.113 105.568 184.645 104.974C184.195 104.362 183.853 103.669 183.619 102.895C183.403 102.121 183.277 101.302 183.241 100.438C183.223 100.15 183.214 99.8804 183.214 99.6284C183.214 99.3764 183.223 99.1064 183.241 98.8184C183.277 97.9724 183.403 97.1624 183.619 96.3884C183.853 95.6144 184.195 94.9214 184.645 94.3094C185.113 93.6974 185.707 93.2204 186.427 92.8784C187.147 92.5184 188.002 92.3384 188.992 92.3384C190.054 92.3384 190.936 92.5274 191.638 92.9054C192.34 93.2834 192.916 93.7514 193.366 94.3094V88.0994C193.366 87.9194 193.42 87.7754 193.528 87.6674C193.654 87.5414 193.807 87.4784 193.987 87.4784H195.283C195.463 87.4784 195.607 87.5414 195.715 87.6674C195.841 87.7754 195.904 87.9194 195.904 88.0994V106.027C195.904 106.207 195.841 106.36 195.715 106.486C195.607 106.594 195.463 106.648 195.283 106.648H194.068C193.87 106.648 193.717 106.594 193.609 106.486C193.501 106.36 193.447 106.207 193.447 106.027V104.893C192.997 105.469 192.412 105.955 191.692 106.351C190.972 106.729 190.072 106.918 188.992 106.918ZM189.559 104.731C190.459 104.731 191.179 104.524 191.719 104.11C192.259 103.696 192.664 103.174 192.934 102.544C193.204 101.896 193.348 101.239 193.366 100.573C193.384 100.285 193.393 99.9434 193.393 99.5474C193.393 99.1334 193.384 98.7824 193.366 98.4944C193.348 97.8644 193.195 97.2434 192.907 96.6314C192.637 96.0194 192.223 95.5154 191.665 95.1194C191.125 94.7234 190.423 94.5254 189.559 94.5254C188.641 94.5254 187.912 94.7324 187.372 95.1464C186.832 95.5424 186.445 96.0734 186.211 96.7394C185.977 97.3874 185.842 98.0894 185.806 98.8454C185.788 99.3674 185.788 99.8894 185.806 100.411C185.842 101.167 185.977 101.878 186.211 102.544C186.445 103.192 186.832 103.723 187.372 104.137C187.912 104.533 188.641 104.731 189.559 104.731ZM78.97 138.648C78.772 138.648 78.619 138.594 78.511 138.486C78.403 138.36 78.349 138.207 78.349 138.027V120.396C78.349 120.198 78.403 120.045 78.511 119.937C78.619 119.811 78.772 119.748 78.97 119.748H85.558C87.592 119.748 89.203 120.225 90.391 121.179C91.579 122.133 92.173 123.546 92.173 125.418C92.173 126.804 91.822 127.938 91.12 128.82C90.436 129.684 89.5 130.287 88.312 130.629L92.47 137.811C92.524 137.919 92.551 138.018 92.551 138.108C92.551 138.252 92.488 138.378 92.362 138.486C92.254 138.594 92.128 138.648 91.984 138.648H90.688C90.382 138.648 90.157 138.567 90.013 138.405C89.869 138.243 89.743 138.081 89.635 137.919L85.72 131.061H80.995V138.027C80.995 138.207 80.932 138.36 80.806 138.486C80.698 138.594 80.545 138.648 80.347 138.648H78.97ZM80.995 128.766H85.45C86.8 128.766 87.808 128.487 88.474 127.929C89.14 127.353 89.473 126.507 89.473 125.391C89.473 124.293 89.14 123.456 88.474 122.88C87.826 122.304 86.818 122.016 85.45 122.016H80.995V128.766ZM101.148 138.918C99.2762 138.918 97.7912 138.351 96.6932 137.217C95.5952 136.065 94.9922 134.499 94.8842 132.519C94.8662 132.285 94.8572 131.988 94.8572 131.628C94.8572 131.25 94.8662 130.944 94.8842 130.71C94.9562 129.432 95.2532 128.316 95.7752 127.362C96.2972 126.39 97.0082 125.643 97.9082 125.121C98.8262 124.599 99.8972 124.338 101.121 124.338C102.489 124.338 103.632 124.626 104.55 125.202C105.486 125.778 106.197 126.597 106.683 127.659C107.169 128.721 107.412 129.963 107.412 131.385V131.844C107.412 132.042 107.349 132.195 107.223 132.303C107.115 132.411 106.971 132.465 106.791 132.465H97.4492C97.4492 132.483 97.4492 132.519 97.4492 132.573C97.4492 132.627 97.4492 132.672 97.4492 132.708C97.4852 133.446 97.6472 134.139 97.9352 134.787C98.2232 135.417 98.6372 135.93 99.1772 136.326C99.7352 136.722 100.383 136.92 101.121 136.92C101.769 136.92 102.309 136.821 102.741 136.623C103.173 136.425 103.524 136.209 103.794 135.975C104.064 135.723 104.244 135.525 104.334 135.381C104.496 135.165 104.622 135.039 104.712 135.003C104.802 134.949 104.946 134.922 105.144 134.922H106.467C106.629 134.922 106.764 134.976 106.872 135.084C106.998 135.174 107.052 135.309 107.034 135.489C107.016 135.759 106.872 136.092 106.602 136.488C106.332 136.866 105.945 137.244 105.441 137.622C104.955 138 104.343 138.315 103.605 138.567C102.885 138.801 102.066 138.918 101.148 138.918ZM97.4492 130.602H104.847V130.521C104.847 129.711 104.694 128.991 104.388 128.361C104.1 127.731 103.677 127.236 103.119 126.876C102.561 126.498 101.895 126.309 101.121 126.309C100.347 126.309 99.6812 126.498 99.1232 126.876C98.5832 127.236 98.1692 127.731 97.8812 128.361C97.5932 128.991 97.4492 129.711 97.4492 130.521V130.602ZM115.501 138.918C114.493 138.918 113.629 138.792 112.909 138.54C112.189 138.288 111.604 137.982 111.154 137.622C110.704 137.262 110.362 136.902 110.128 136.542C109.912 136.182 109.795 135.894 109.777 135.678C109.759 135.48 109.822 135.327 109.966 135.219C110.11 135.111 110.254 135.057 110.398 135.057H111.613C111.703 135.057 111.775 135.075 111.829 135.111C111.901 135.129 111.991 135.201 112.099 135.327C112.333 135.579 112.594 135.831 112.882 136.083C113.17 136.335 113.521 136.542 113.935 136.704C114.367 136.866 114.898 136.947 115.528 136.947C116.446 136.947 117.202 136.776 117.796 136.434C118.39 136.074 118.687 135.552 118.687 134.868C118.687 134.418 118.561 134.058 118.309 133.788C118.075 133.518 117.643 133.275 117.013 133.059C116.401 132.843 115.555 132.618 114.475 132.384C113.395 132.132 112.54 131.826 111.91 131.466C111.28 131.088 110.83 130.647 110.56 130.143C110.29 129.621 110.155 129.036 110.155 128.388C110.155 127.722 110.353 127.083 110.749 126.471C111.145 125.841 111.721 125.328 112.477 124.932C113.251 124.536 114.214 124.338 115.366 124.338C116.302 124.338 117.103 124.455 117.769 124.689C118.435 124.923 118.984 125.22 119.416 125.58C119.848 125.922 120.172 126.264 120.388 126.606C120.604 126.948 120.721 127.236 120.739 127.47C120.757 127.65 120.703 127.803 120.577 127.929C120.451 128.037 120.307 128.091 120.145 128.091H119.011C118.885 128.091 118.777 128.064 118.687 128.01C118.615 127.956 118.543 127.893 118.471 127.821C118.291 127.587 118.075 127.353 117.823 127.119C117.589 126.885 117.274 126.696 116.878 126.552C116.5 126.39 115.996 126.309 115.366 126.309C114.466 126.309 113.791 126.498 113.341 126.876C112.891 127.254 112.666 127.731 112.666 128.307C112.666 128.649 112.765 128.955 112.963 129.225C113.161 129.495 113.539 129.738 114.097 129.954C114.655 130.17 115.483 130.404 116.581 130.656C117.769 130.89 118.705 131.205 119.389 131.601C120.073 131.997 120.559 132.456 120.847 132.978C121.135 133.5 121.279 134.103 121.279 134.787C121.279 135.543 121.063 136.236 120.631 136.866C120.199 137.496 119.551 138 118.687 138.378C117.823 138.738 116.761 138.918 115.501 138.918ZM130.02 138.918C128.148 138.918 126.663 138.351 125.565 137.217C124.467 136.065 123.864 134.499 123.756 132.519C123.738 132.285 123.729 131.988 123.729 131.628C123.729 131.25 123.738 130.944 123.756 130.71C123.828 129.432 124.125 128.316 124.647 127.362C125.169 126.39 125.88 125.643 126.78 125.121C127.698 124.599 128.769 124.338 129.993 124.338C131.361 124.338 132.504 124.626 133.422 125.202C134.358 125.778 135.069 126.597 135.555 127.659C136.041 128.721 136.284 129.963 136.284 131.385V131.844C136.284 132.042 136.221 132.195 136.095 132.303C135.987 132.411 135.843 132.465 135.663 132.465H126.321C126.321 132.483 126.321 132.519 126.321 132.573C126.321 132.627 126.321 132.672 126.321 132.708C126.357 133.446 126.519 134.139 126.807 134.787C127.095 135.417 127.509 135.93 128.049 136.326C128.607 136.722 129.255 136.92 129.993 136.92C130.641 136.92 131.181 136.821 131.613 136.623C132.045 136.425 132.396 136.209 132.666 135.975C132.936 135.723 133.116 135.525 133.206 135.381C133.368 135.165 133.494 135.039 133.584 135.003C133.674 134.949 133.818 134.922 134.016 134.922H135.339C135.501 134.922 135.636 134.976 135.744 135.084C135.87 135.174 135.924 135.309 135.906 135.489C135.888 135.759 135.744 136.092 135.474 136.488C135.204 136.866 134.817 137.244 134.313 137.622C133.827 138 133.215 138.315 132.477 138.567C131.757 138.801 130.938 138.918 130.02 138.918ZM126.321 130.602H133.719V130.521C133.719 129.711 133.566 128.991 133.26 128.361C132.972 127.731 132.549 127.236 131.991 126.876C131.433 126.498 130.767 126.309 129.993 126.309C129.219 126.309 128.553 126.498 127.995 126.876C127.455 127.236 127.041 127.731 126.753 128.361C126.465 128.991 126.321 129.711 126.321 130.521V130.602ZM144.915 138.648C143.907 138.648 143.088 138.459 142.458 138.081C141.828 137.685 141.369 137.136 141.081 136.434C140.793 135.714 140.649 134.868 140.649 133.896V126.768H138.543C138.363 126.768 138.21 126.714 138.084 126.606C137.976 126.48 137.922 126.327 137.922 126.147V125.229C137.922 125.049 137.976 124.905 138.084 124.797C138.21 124.671 138.363 124.608 138.543 124.608H140.649V120.099C140.649 119.919 140.703 119.775 140.811 119.667C140.937 119.541 141.09 119.478 141.27 119.478H142.539C142.719 119.478 142.863 119.541 142.971 119.667C143.097 119.775 143.16 119.919 143.16 120.099V124.608H146.508C146.706 124.608 146.859 124.671 146.967 124.797C147.075 124.905 147.129 125.049 147.129 125.229V126.147C147.129 126.327 147.075 126.48 146.967 126.606C146.859 126.714 146.706 126.768 146.508 126.768H143.16V133.707C143.16 134.553 143.304 135.219 143.592 135.705C143.88 136.191 144.393 136.434 145.131 136.434H146.778C146.958 136.434 147.102 136.497 147.21 136.623C147.336 136.731 147.399 136.875 147.399 137.055V138.027C147.399 138.207 147.336 138.36 147.21 138.486C147.102 138.594 146.958 138.648 146.778 138.648H144.915ZM163.025 138.918C161.459 138.918 160.145 138.675 159.083 138.189C158.021 137.703 157.202 137.082 156.626 136.326C156.068 135.552 155.771 134.742 155.735 133.896C155.735 133.752 155.789 133.626 155.897 133.518C156.023 133.392 156.167 133.329 156.329 133.329H157.706C157.922 133.329 158.084 133.383 158.192 133.491C158.3 133.599 158.372 133.725 158.408 133.869C158.516 134.301 158.741 134.733 159.083 135.165C159.425 135.579 159.911 135.93 160.541 136.218C161.189 136.488 162.017 136.623 163.025 136.623C164.573 136.623 165.707 136.353 166.427 135.813C167.165 135.255 167.534 134.517 167.534 133.599C167.534 132.969 167.336 132.465 166.94 132.087C166.562 131.691 165.977 131.34 165.185 131.034C164.393 130.728 163.367 130.395 162.107 130.035C160.793 129.657 159.704 129.243 158.84 128.793C157.976 128.343 157.328 127.785 156.896 127.119C156.482 126.453 156.275 125.607 156.275 124.581C156.275 123.609 156.536 122.745 157.058 121.989C157.58 121.215 158.336 120.603 159.326 120.153C160.316 119.703 161.504 119.478 162.89 119.478C164.006 119.478 164.978 119.631 165.806 119.937C166.652 120.225 167.354 120.621 167.912 121.125C168.47 121.611 168.893 122.142 169.181 122.718C169.469 123.276 169.622 123.825 169.64 124.365C169.64 124.491 169.595 124.617 169.505 124.743C169.415 124.851 169.271 124.905 169.073 124.905H167.642C167.516 124.905 167.381 124.869 167.237 124.797C167.111 124.725 167.012 124.59 166.94 124.392C166.832 123.654 166.418 123.033 165.698 122.529C164.978 122.025 164.042 121.773 162.89 121.773C161.72 121.773 160.766 121.998 160.028 122.448C159.308 122.898 158.948 123.6 158.948 124.554C158.948 125.166 159.119 125.679 159.461 126.093C159.803 126.489 160.343 126.84 161.081 127.146C161.819 127.452 162.782 127.776 163.97 128.118C165.41 128.514 166.589 128.937 167.507 129.387C168.425 129.819 169.1 130.368 169.532 131.034C169.982 131.682 170.207 132.519 170.207 133.545C170.207 134.679 169.91 135.651 169.316 136.461C168.722 137.253 167.885 137.865 166.805 138.297C165.743 138.711 164.483 138.918 163.025 138.918ZM178.632 138.918C177.48 138.918 176.499 138.666 175.689 138.162C174.897 137.64 174.294 136.92 173.88 136.002C173.466 135.084 173.259 134.031 173.259 132.843V125.229C173.259 125.049 173.313 124.905 173.421 124.797C173.547 124.671 173.7 124.608 173.88 124.608H175.23C175.41 124.608 175.554 124.671 175.662 124.797C175.788 124.905 175.851 125.049 175.851 125.229V132.708C175.851 135.39 177.021 136.731 179.361 136.731C180.477 136.731 181.368 136.38 182.034 135.678C182.718 134.958 183.06 133.968 183.06 132.708V125.229C183.06 125.049 183.114 124.905 183.222 124.797C183.348 124.671 183.501 124.608 183.681 124.608H185.031C185.211 124.608 185.355 124.671 185.463 124.797C185.571 124.905 185.625 125.049 185.625 125.229V138.027C185.625 138.207 185.571 138.36 185.463 138.486C185.355 138.594 185.211 138.648 185.031 138.648H183.762C183.582 138.648 183.429 138.594 183.303 138.486C183.195 138.36 183.141 138.207 183.141 138.027V136.839C182.655 137.469 182.061 137.973 181.359 138.351C180.675 138.729 179.766 138.918 178.632 138.918ZM195.307 138.918C194.029 138.918 192.922 138.675 191.986 138.189C191.068 137.685 190.357 136.974 189.853 136.056C189.349 135.12 189.079 134.004 189.043 132.708C189.025 132.438 189.016 132.078 189.016 131.628C189.016 131.178 189.025 130.818 189.043 130.548C189.079 129.252 189.349 128.145 189.853 127.227C190.357 126.291 191.068 125.58 191.986 125.094C192.922 124.59 194.029 124.338 195.307 124.338C196.351 124.338 197.242 124.482 197.98 124.77C198.736 125.058 199.357 125.427 199.843 125.877C200.329 126.327 200.689 126.813 200.923 127.335C201.175 127.857 201.31 128.352 201.328 128.82C201.346 129 201.292 129.144 201.166 129.252C201.04 129.36 200.887 129.414 200.707 129.414H199.411C199.231 129.414 199.096 129.378 199.006 129.306C198.916 129.216 198.826 129.072 198.736 128.874C198.412 127.992 197.971 127.371 197.413 127.011C196.855 126.651 196.162 126.471 195.334 126.471C194.254 126.471 193.372 126.804 192.688 127.47C192.022 128.136 191.662 129.207 191.608 130.683C191.59 131.331 191.59 131.961 191.608 132.573C191.662 134.067 192.022 135.147 192.688 135.813C193.372 136.461 194.254 136.785 195.334 136.785C196.162 136.785 196.855 136.605 197.413 136.245C197.971 135.885 198.412 135.264 198.736 134.382C198.826 134.184 198.916 134.04 199.006 133.95C199.096 133.86 199.231 133.815 199.411 133.815H200.707C200.887 133.815 201.04 133.878 201.166 134.004C201.292 134.112 201.346 134.256 201.328 134.436C201.31 134.814 201.229 135.201 201.085 135.597C200.941 135.993 200.707 136.398 200.383 136.812C200.077 137.208 199.69 137.568 199.222 137.892C198.754 138.198 198.196 138.45 197.548 138.648C196.9 138.828 196.153 138.918 195.307 138.918ZM210.204 138.918C208.926 138.918 207.819 138.675 206.883 138.189C205.965 137.685 205.254 136.974 204.75 136.056C204.246 135.12 203.976 134.004 203.94 132.708C203.922 132.438 203.913 132.078 203.913 131.628C203.913 131.178 203.922 130.818 203.94 130.548C203.976 129.252 204.246 128.145 204.75 127.227C205.254 126.291 205.965 125.58 206.883 125.094C207.819 124.59 208.926 124.338 210.204 124.338C211.248 124.338 212.139 124.482 212.877 124.77C213.633 125.058 214.254 125.427 214.74 125.877C215.226 126.327 215.586 126.813 215.82 127.335C216.072 127.857 216.207 128.352 216.225 128.82C216.243 129 216.189 129.144 216.063 129.252C215.937 129.36 215.784 129.414 215.604 129.414H214.308C214.128 129.414 213.993 129.378 213.903 129.306C213.813 129.216 213.723 129.072 213.633 128.874C213.309 127.992 212.868 127.371 212.31 127.011C211.752 126.651 211.059 126.471 210.231 126.471C209.151 126.471 208.269 126.804 207.585 127.47C206.919 128.136 206.559 129.207 206.505 130.683C206.487 131.331 206.487 131.961 206.505 132.573C206.559 134.067 206.919 135.147 207.585 135.813C208.269 136.461 209.151 136.785 210.231 136.785C211.059 136.785 211.752 136.605 212.31 136.245C212.868 135.885 213.309 135.264 213.633 134.382C213.723 134.184 213.813 134.04 213.903 133.95C213.993 133.86 214.128 133.815 214.308 133.815H215.604C215.784 133.815 215.937 133.878 216.063 134.004C216.189 134.112 216.243 134.256 216.225 134.436C216.207 134.814 216.126 135.201 215.982 135.597C215.838 135.993 215.604 136.398 215.28 136.812C214.974 137.208 214.587 137.568 214.119 137.892C213.651 138.198 213.093 138.45 212.445 138.648C211.797 138.828 211.05 138.918 210.204 138.918ZM225.048 138.918C223.176 138.918 221.691 138.351 220.593 137.217C219.495 136.065 218.892 134.499 218.784 132.519C218.766 132.285 218.757 131.988 218.757 131.628C218.757 131.25 218.766 130.944 218.784 130.71C218.856 129.432 219.153 128.316 219.675 127.362C220.197 126.39 220.908 125.643 221.808 125.121C222.726 124.599 223.797 124.338 225.021 124.338C226.389 124.338 227.532 124.626 228.45 125.202C229.386 125.778 230.097 126.597 230.583 127.659C231.069 128.721 231.312 129.963 231.312 131.385V131.844C231.312 132.042 231.249 132.195 231.123 132.303C231.015 132.411 230.871 132.465 230.691 132.465H221.349C221.349 132.483 221.349 132.519 221.349 132.573C221.349 132.627 221.349 132.672 221.349 132.708C221.385 133.446 221.547 134.139 221.835 134.787C222.123 135.417 222.537 135.93 223.077 136.326C223.635 136.722 224.283 136.92 225.021 136.92C225.669 136.92 226.209 136.821 226.641 136.623C227.073 136.425 227.424 136.209 227.694 135.975C227.964 135.723 228.144 135.525 228.234 135.381C228.396 135.165 228.522 135.039 228.612 135.003C228.702 134.949 228.846 134.922 229.044 134.922H230.367C230.529 134.922 230.664 134.976 230.772 135.084C230.898 135.174 230.952 135.309 230.934 135.489C230.916 135.759 230.772 136.092 230.502 136.488C230.232 136.866 229.845 137.244 229.341 137.622C228.855 138 228.243 138.315 227.505 138.567C226.785 138.801 225.966 138.918 225.048 138.918ZM221.349 130.602H228.747V130.521C228.747 129.711 228.594 128.991 228.288 128.361C228 127.731 227.577 127.236 227.019 126.876C226.461 126.498 225.795 126.309 225.021 126.309C224.247 126.309 223.581 126.498 223.023 126.876C222.483 127.236 222.069 127.731 221.781 128.361C221.493 128.991 221.349 129.711 221.349 130.521V130.602ZM239.4 138.918C238.392 138.918 237.528 138.792 236.808 138.54C236.088 138.288 235.503 137.982 235.053 137.622C234.603 137.262 234.261 136.902 234.027 136.542C233.811 136.182 233.694 135.894 233.676 135.678C233.658 135.48 233.721 135.327 233.865 135.219C234.009 135.111 234.153 135.057 234.297 135.057H235.512C235.602 135.057 235.674 135.075 235.728 135.111C235.8 135.129 235.89 135.201 235.998 135.327C236.232 135.579 236.493 135.831 236.781 136.083C237.069 136.335 237.42 136.542 237.834 136.704C238.266 136.866 238.797 136.947 239.427 136.947C240.345 136.947 241.101 136.776 241.695 136.434C242.289 136.074 242.586 135.552 242.586 134.868C242.586 134.418 242.46 134.058 242.208 133.788C241.974 133.518 241.542 133.275 240.912 133.059C240.3 132.843 239.454 132.618 238.374 132.384C237.294 132.132 236.439 131.826 235.809 131.466C235.179 131.088 234.729 130.647 234.459 130.143C234.189 129.621 234.054 129.036 234.054 128.388C234.054 127.722 234.252 127.083 234.648 126.471C235.044 125.841 235.62 125.328 236.376 124.932C237.15 124.536 238.113 124.338 239.265 124.338C240.201 124.338 241.002 124.455 241.668 124.689C242.334 124.923 242.883 125.22 243.315 125.58C243.747 125.922 244.071 126.264 244.287 126.606C244.503 126.948 244.62 127.236 244.638 127.47C244.656 127.65 244.602 127.803 244.476 127.929C244.35 128.037 244.206 128.091 244.044 128.091H242.91C242.784 128.091 242.676 128.064 242.586 128.01C242.514 127.956 242.442 127.893 242.37 127.821C242.19 127.587 241.974 127.353 241.722 127.119C241.488 126.885 241.173 126.696 240.777 126.552C240.399 126.39 239.895 126.309 239.265 126.309C238.365 126.309 237.69 126.498 237.24 126.876C236.79 127.254 236.565 127.731 236.565 128.307C236.565 128.649 236.664 128.955 236.862 129.225C237.06 129.495 237.438 129.738 237.996 129.954C238.554 130.17 239.382 130.404 240.48 130.656C241.668 130.89 242.604 131.205 243.288 131.601C243.972 131.997 244.458 132.456 244.746 132.978C245.034 133.5 245.178 134.103 245.178 134.787C245.178 135.543 244.962 136.236 244.53 136.866C244.098 137.496 243.45 138 242.586 138.378C241.722 138.738 240.66 138.918 239.4 138.918ZM253.164 138.918C252.156 138.918 251.292 138.792 250.572 138.54C249.852 138.288 249.267 137.982 248.817 137.622C248.367 137.262 248.025 136.902 247.791 136.542C247.575 136.182 247.458 135.894 247.44 135.678C247.422 135.48 247.485 135.327 247.629 135.219C247.773 135.111 247.917 135.057 248.061 135.057H249.276C249.366 135.057 249.438 135.075 249.492 135.111C249.564 135.129 249.654 135.201 249.762 135.327C249.996 135.579 250.257 135.831 250.545 136.083C250.833 136.335 251.184 136.542 251.598 136.704C252.03 136.866 252.561 136.947 253.191 136.947C254.109 136.947 254.865 136.776 255.459 136.434C256.053 136.074 256.35 135.552 256.35 134.868C256.35 134.418 256.224 134.058 255.972 133.788C255.738 133.518 255.306 133.275 254.676 133.059C254.064 132.843 253.218 132.618 252.138 132.384C251.058 132.132 250.203 131.826 249.573 131.466C248.943 131.088 248.493 130.647 248.223 130.143C247.953 129.621 247.818 129.036 247.818 128.388C247.818 127.722 248.016 127.083 248.412 126.471C248.808 125.841 249.384 125.328 250.14 124.932C250.914 124.536 251.877 124.338 253.029 124.338C253.965 124.338 254.766 124.455 255.432 124.689C256.098 124.923 256.647 125.22 257.079 125.58C257.511 125.922 257.835 126.264 258.051 126.606C258.267 126.948 258.384 127.236 258.402 127.47C258.42 127.65 258.366 127.803 258.24 127.929C258.114 128.037 257.97 128.091 257.808 128.091H256.674C256.548 128.091 256.44 128.064 256.35 128.01C256.278 127.956 256.206 127.893 256.134 127.821C255.954 127.587 255.738 127.353 255.486 127.119C255.252 126.885 254.937 126.696 254.541 126.552C254.163 126.39 253.659 126.309 253.029 126.309C252.129 126.309 251.454 126.498 251.004 126.876C250.554 127.254 250.329 127.731 250.329 128.307C250.329 128.649 250.428 128.955 250.626 129.225C250.824 129.495 251.202 129.738 251.76 129.954C252.318 130.17 253.146 130.404 254.244 130.656C255.432 130.89 256.368 131.205 257.052 131.601C257.736 131.997 258.222 132.456 258.51 132.978C258.798 133.5 258.942 134.103 258.942 134.787C258.942 135.543 258.726 136.236 258.294 136.866C257.862 137.496 257.214 138 256.35 138.378C255.486 138.738 254.424 138.918 253.164 138.918ZM264.066 138.648C263.886 138.648 263.733 138.594 263.607 138.486C263.499 138.36 263.445 138.207 263.445 138.027V126.768H261.15C260.97 126.768 260.817 126.714 260.691 126.606C260.583 126.48 260.529 126.327 260.529 126.147V125.229C260.529 125.049 260.583 124.905 260.691 124.797C260.817 124.671 260.97 124.608 261.15 124.608H263.445V123.258C263.445 122.34 263.598 121.539 263.904 120.855C264.21 120.153 264.696 119.613 265.362 119.235C266.046 118.857 266.955 118.668 268.089 118.668H269.709C269.889 118.668 270.033 118.731 270.141 118.857C270.267 118.965 270.33 119.109 270.33 119.289V120.207C270.33 120.387 270.267 120.54 270.141 120.666C270.033 120.774 269.889 120.828 269.709 120.828H268.143C267.297 120.828 266.721 121.053 266.415 121.503C266.109 121.935 265.956 122.565 265.956 123.393V124.608H269.439C269.619 124.608 269.763 124.671 269.871 124.797C269.997 124.905 270.06 125.049 270.06 125.229V126.147C270.06 126.327 269.997 126.48 269.871 126.606C269.763 126.714 269.619 126.768 269.439 126.768H265.956V138.027C265.956 138.207 265.893 138.36 265.767 138.486C265.659 138.594 265.515 138.648 265.335 138.648H264.066ZM277.668 138.918C276.516 138.918 275.535 138.666 274.725 138.162C273.933 137.64 273.33 136.92 272.916 136.002C272.502 135.084 272.295 134.031 272.295 132.843V125.229C272.295 125.049 272.349 124.905 272.457 124.797C272.583 124.671 272.736 124.608 272.916 124.608H274.266C274.446 124.608 274.59 124.671 274.698 124.797C274.824 124.905 274.887 125.049 274.887 125.229V132.708C274.887 135.39 276.057 136.731 278.397 136.731C279.513 136.731 280.404 136.38 281.07 135.678C281.754 134.958 282.096 133.968 282.096 132.708V125.229C282.096 125.049 282.15 124.905 282.258 124.797C282.384 124.671 282.537 124.608 282.717 124.608H284.067C284.247 124.608 284.391 124.671 284.499 124.797C284.607 124.905 284.661 125.049 284.661 125.229V138.027C284.661 138.207 284.607 138.36 284.499 138.486C284.391 138.594 284.247 138.648 284.067 138.648H282.798C282.618 138.648 282.465 138.594 282.339 138.486C282.231 138.36 282.177 138.207 282.177 138.027V136.839C281.691 137.469 281.097 137.973 280.395 138.351C279.711 138.729 278.802 138.918 277.668 138.918ZM289.32 138.648C289.14 138.648 288.987 138.594 288.861 138.486C288.753 138.36 288.699 138.207 288.699 138.027V120.099C288.699 119.919 288.753 119.775 288.861 119.667C288.987 119.541 289.14 119.478 289.32 119.478H290.589C290.787 119.478 290.94 119.541 291.048 119.667C291.156 119.775 291.21 119.919 291.21 120.099V138.027C291.21 138.207 291.156 138.36 291.048 138.486C290.94 138.594 290.787 138.648 290.589 138.648H289.32Z" fill="white"/>
</svg>
