<svg width="550" height="170" viewBox="0 0 550 170" fill="none" xmlns="http://www.w3.org/2000/svg">
<path d="M68.75 153.509L481.25 153.509C519.22 153.509 550 122.728 550 84.7588C550 46.7892 519.22 16.0088 481.25 16.0088L68.75 16.0088C30.7804 16.0088 0 46.7892 0 84.7588C0 122.728 30.7804 153.509 68.75 153.509Z" fill="#3E8FF8"/>
<path d="M481.25 16.0088H146.85C108.88 16.0088 78.0996 46.7892 78.0996 84.7588C78.0996 122.728 108.88 153.509 146.85 153.509H481.25C519.219 153.509 550 122.728 550 84.7588C550 46.7892 519.219 16.0088 481.25 16.0088Z" fill="#3E8FF8" fill-opacity="0.5" style="mix-blend-mode:multiply"/>
<path d="M225.894 153.509L481.25 153.509C519.22 153.509 550 122.728 550 84.7588C550 46.7892 519.22 16.0088 481.25 16.0088L225.894 16.0088C187.925 16.0088 157.144 46.7892 157.144 84.7588C157.144 122.728 187.925 153.509 225.894 153.509Z" fill="#3E8FF8" fill-opacity="0.5" style="mix-blend-mode:multiply"/>
<path d="M304.462 153.509L481.25 153.509C519.22 153.509 550 122.728 550 84.7588C550 46.7892 519.22 16.0088 481.25 16.0088L304.462 16.0088C266.492 16.0088 235.712 46.7892 235.712 84.7588C235.712 122.728 266.492 153.509 304.462 153.509Z" fill="#3E8FF8" fill-opacity="0.5" style="mix-blend-mode:multiply"/>
<path d="M78.9065 76.3333C78.7085 76.3333 78.5555 76.2793 78.4475 76.1713C78.3395 76.0453 78.2855 75.8923 78.2855 75.7123V58.0813C78.2855 57.8833 78.3395 57.7303 78.4475 57.6223C78.5555 57.4963 78.7085 57.4333 78.9065 57.4333H85.7645C87.0965 57.4333 88.2485 57.6493 89.2205 58.0813C90.2105 58.5133 90.9755 59.1613 91.5155 60.0253C92.0555 60.8713 92.3255 61.9333 92.3255 63.2113C92.3255 64.4893 92.0555 65.5513 91.5155 66.3973C90.9755 67.2433 90.2105 67.8823 89.2205 68.3143C88.2485 68.7463 87.0965 68.9623 85.7645 68.9623H80.9855V75.7123C80.9855 75.8923 80.9225 76.0453 80.7965 76.1713C80.6885 76.2793 80.5355 76.3333 80.3375 76.3333H78.9065ZM80.9585 66.6943H85.6295C86.9615 66.6943 87.9605 66.3973 88.6265 65.8033C89.2925 65.2093 89.6255 64.3453 89.6255 63.2113C89.6255 62.0953 89.3015 61.2313 88.6535 60.6193C88.0055 60.0073 86.9975 59.7013 85.6295 59.7013H80.9585V66.6943ZM98.9091 76.6033C98.0091 76.6033 97.1901 76.4233 96.4521 76.0633C95.7141 75.7033 95.1201 75.2173 94.6701 74.6053C94.2201 73.9933 93.9951 73.3003 93.9951 72.5263C93.9951 71.2843 94.4991 70.2943 95.5071 69.5563C96.5151 68.8183 97.8291 68.3323 99.4491 68.0983L103.472 67.5313V66.7483C103.472 65.8843 103.22 65.2093 102.716 64.7233C102.23 64.2373 101.429 63.9943 100.313 63.9943C99.5031 63.9943 98.8461 64.1563 98.3421 64.4803C97.8561 64.8043 97.5141 65.2183 97.3161 65.7223C97.2081 65.9923 97.0191 66.1273 96.7491 66.1273H95.5341C95.3361 66.1273 95.1831 66.0733 95.0751 65.9653C94.9851 65.8393 94.9401 65.6953 94.9401 65.5333C94.9401 65.2633 95.0391 64.9303 95.2371 64.5343C95.4531 64.1383 95.7771 63.7513 96.2091 63.3733C96.6411 62.9953 97.1901 62.6803 97.8561 62.4283C98.5401 62.1583 99.3681 62.0233 100.34 62.0233C101.42 62.0233 102.329 62.1673 103.067 62.4553C103.805 62.7253 104.381 63.0943 104.795 63.5623C105.227 64.0303 105.533 64.5613 105.713 65.1553C105.911 65.7493 106.01 66.3523 106.01 66.9643V75.7123C106.01 75.8923 105.947 76.0453 105.821 76.1713C105.713 76.2793 105.569 76.3333 105.389 76.3333H104.147C103.949 76.3333 103.796 76.2793 103.688 76.1713C103.58 76.0453 103.526 75.8923 103.526 75.7123V74.5513C103.292 74.8753 102.977 75.1993 102.581 75.5233C102.185 75.8293 101.69 76.0903 101.096 76.3063C100.502 76.5043 99.7731 76.6033 98.9091 76.6033ZM99.4761 74.5783C100.214 74.5783 100.889 74.4253 101.501 74.1193C102.113 73.7953 102.59 73.3003 102.932 72.6343C103.292 71.9683 103.472 71.1313 103.472 70.1233V69.3673L100.34 69.8263C99.0621 70.0063 98.0991 70.3123 97.4511 70.7443C96.8031 71.1583 96.4791 71.6893 96.4791 72.3373C96.4791 72.8413 96.6231 73.2643 96.9111 73.6063C97.2171 73.9303 97.5951 74.1733 98.0451 74.3353C98.5131 74.4973 98.9901 74.5783 99.4761 74.5783ZM112.059 81.4633C111.915 81.4633 111.789 81.4093 111.681 81.3013C111.573 81.1933 111.519 81.0673 111.519 80.9233C111.519 80.8513 111.528 80.7793 111.546 80.7073C111.564 80.6353 111.6 80.5453 111.654 80.4373L113.733 75.4963L108.576 63.3193C108.486 63.1033 108.441 62.9503 108.441 62.8603C108.441 62.6983 108.495 62.5633 108.603 62.4553C108.711 62.3473 108.846 62.2933 109.008 62.2933H110.331C110.511 62.2933 110.655 62.3383 110.763 62.4283C110.871 62.5183 110.943 62.6263 110.979 62.7523L115.083 72.5803L119.295 62.7523C119.349 62.6263 119.421 62.5183 119.511 62.4283C119.619 62.3383 119.772 62.2933 119.97 62.2933H121.239C121.401 62.2933 121.536 62.3473 121.644 62.4553C121.752 62.5633 121.806 62.6893 121.806 62.8333C121.806 62.9233 121.761 63.0853 121.671 63.3193L114.003 81.0043C113.949 81.1303 113.868 81.2383 113.76 81.3283C113.67 81.4183 113.526 81.4633 113.328 81.4633H112.059ZM78.9065 108.333C78.7085 108.333 78.5555 108.279 78.4475 108.171C78.3395 108.045 78.2855 107.892 78.2855 107.712V90.0813C78.2855 89.8833 78.3395 89.7303 78.4475 89.6223C78.5555 89.4963 78.7085 89.4333 78.9065 89.4333H80.1485C80.3645 89.4333 80.5265 89.4873 80.6345 89.5953C80.7425 89.6853 80.8055 89.7573 80.8235 89.8113L89.7875 103.581V90.0813C89.7875 89.8833 89.8415 89.7303 89.9495 89.6223C90.0575 89.4963 90.2105 89.4333 90.4085 89.4333H91.7045C91.9025 89.4333 92.0555 89.4963 92.1635 89.6223C92.2895 89.7303 92.3525 89.8833 92.3525 90.0813V107.685C92.3525 107.865 92.2895 108.018 92.1635 108.144C92.0555 108.27 91.9115 108.333 91.7315 108.333H90.4355C90.2375 108.333 90.0845 108.279 89.9765 108.171C89.8865 108.063 89.8235 107.991 89.7875 107.955L80.8505 94.3203V107.712C80.8505 107.892 80.7875 108.045 80.6615 108.171C80.5535 108.279 80.4005 108.333 80.2025 108.333H78.9065ZM102.433 108.603C101.065 108.603 99.9216 108.342 99.0036 107.82C98.0856 107.298 97.3836 106.578 96.8976 105.66C96.4116 104.724 96.1416 103.662 96.0876 102.474C96.0696 102.168 96.0606 101.781 96.0606 101.313C96.0606 100.827 96.0696 100.44 96.0876 100.152C96.1416 98.9463 96.4116 97.8843 96.8976 96.9663C97.4016 96.0483 98.1126 95.3283 99.0306 94.8063C99.9486 94.2843 101.083 94.0233 102.433 94.0233C103.783 94.0233 104.917 94.2843 105.835 94.8063C106.753 95.3283 107.455 96.0483 107.941 96.9663C108.445 97.8843 108.724 98.9463 108.778 100.152C108.796 100.44 108.805 100.827 108.805 101.313C108.805 101.781 108.796 102.168 108.778 102.474C108.724 103.662 108.454 104.724 107.968 105.66C107.482 106.578 106.78 107.298 105.862 107.82C104.944 108.342 103.801 108.603 102.433 108.603ZM102.433 106.524C103.549 106.524 104.44 106.173 105.106 105.471C105.772 104.751 106.132 103.707 106.186 102.339C106.204 102.069 106.213 101.727 106.213 101.313C106.213 100.899 106.204 100.557 106.186 100.287C106.132 98.9193 105.772 97.8843 105.106 97.1823C104.44 96.4623 103.549 96.1023 102.433 96.1023C101.317 96.1023 100.417 96.4623 99.7326 97.1823C99.0666 97.8843 98.7156 98.9193 98.6796 100.287C98.6616 100.557 98.6526 100.899 98.6526 101.313C98.6526 101.727 98.6616 102.069 98.6796 102.339C98.7156 103.707 99.0666 104.751 99.7326 105.471C100.417 106.173 101.317 106.524 102.433 106.524ZM115.542 108.333C115.308 108.333 115.128 108.279 115.002 108.171C114.876 108.045 114.768 107.874 114.678 107.658L110.844 95.1303C110.808 95.0403 110.79 94.9503 110.79 94.8603C110.79 94.6983 110.844 94.5633 110.952 94.4553C111.078 94.3473 111.213 94.2933 111.357 94.2933H112.545C112.743 94.2933 112.896 94.3473 113.004 94.4553C113.112 94.5633 113.184 94.6623 113.22 94.7523L116.217 104.931L119.43 94.8603C119.466 94.7343 119.538 94.6083 119.646 94.4823C119.772 94.3563 119.952 94.2933 120.186 94.2933H121.104C121.338 94.2933 121.518 94.3563 121.644 94.4823C121.77 94.6083 121.842 94.7343 121.86 94.8603L125.073 104.931L128.07 94.7523C128.088 94.6623 128.151 94.5633 128.259 94.4553C128.367 94.3473 128.52 94.2933 128.718 94.2933H129.906C130.068 94.2933 130.203 94.3473 130.311 94.4553C130.419 94.5633 130.473 94.6983 130.473 94.8603C130.473 94.9503 130.455 95.0403 130.419 95.1303L126.585 107.658C126.531 107.874 126.432 108.045 126.288 108.171C126.162 108.279 125.973 108.333 125.721 108.333H124.668C124.434 108.333 124.236 108.279 124.074 108.171C123.93 108.045 123.831 107.874 123.777 107.658L120.645 97.9923L117.513 107.658C117.441 107.874 117.333 108.045 117.189 108.171C117.045 108.279 116.847 108.333 116.595 108.333H115.542Z" fill="white"/>
<path d="M454.199 2.8544L451.293 1.14023C448.745 -0.3631 445.592 -0.381433 443.025 1.0944L323.033 70.3394C317.735 73.4011 314.472 79.0477 314.472 85.1711V160.026C314.472 162.483 315.783 164.747 317.909 165.975L321.567 168.074C321.631 168.111 321.695 168.148 321.759 168.184L321.86 168.239C323.831 169.284 326.306 169.404 328.506 168.129L449.112 98.4994C454.41 95.4377 457.673 89.7911 457.673 83.6677V8.8219C457.673 6.16357 456.216 4.00024 454.19 2.8544H454.199Z" fill="#C6C6C6"/>
<path d="M318.23 162.199V87.3436C318.23 81.2294 321.493 75.5736 326.792 72.5119L447.398 2.8819C449.662 1.57107 452.201 1.7269 454.199 2.8544L451.293 1.14023C448.745 -0.3631 445.592 -0.381433 443.025 1.0944L323.033 70.3394C317.735 73.4011 314.472 79.0477 314.472 85.1711V160.026C314.472 162.483 315.783 164.747 317.909 165.975L321.567 168.074C319.614 166.91 318.23 164.793 318.23 162.189V162.199Z" fill="#0C3B5E"/>
<path d="M321.759 168.185L321.86 168.24C321.86 168.24 321.795 168.203 321.759 168.185Z" fill="#2683BF"/>
<path d="M318.23 139.74L457.637 59.2568V79.7718L318.23 160.329V139.74Z" fill="#155D89"/>
<path d="M421.456 34.9835L448.507 19.3635V36.6427L421.456 52.2627V34.9835Z" fill="#F3AE00"/>
<path d="M425.389 35.7991L429.77 33.2691C430.632 32.765 431.714 33.3975 431.714 34.3966V40.3275L429.835 41.455V42.39L446.775 32.71V34.4791C446.775 35.0566 446.463 35.5883 445.968 35.8725L423.61 48.7791V47.0283C423.61 46.46 423.904 45.9375 424.39 45.6441L428.469 43.1875V42.2525L425.545 43.9025C424.683 44.3883 423.61 43.765 423.61 42.775V38.8883C423.61 37.6141 424.289 36.4316 425.398 35.7991H425.389Z" fill="#F6D13A"/>
<path d="M445.968 32.0962C446.463 31.812 446.774 31.2804 446.774 30.7029V28.072L434.262 35.2954C433.767 35.5795 433.455 36.1112 433.455 36.6887V39.3195L445.968 32.0962Z" fill="#F6D13A"/>
<path d="M434.253 30.6845C433.758 30.9687 433.446 31.5003 433.446 32.0778V34.7087L440.34 30.7303C440.835 30.4462 441.146 29.9145 441.146 29.337V26.7153L434.253 30.6937V30.6845Z" fill="#F6D13A"/>
<path d="M442.667 25.7802C442.163 26.0644 441.852 26.6052 441.852 27.1827V29.8502L445.967 27.4761C446.462 27.1919 446.774 26.6602 446.774 26.0827V23.4519L442.667 25.7802Z" fill="#F6D13A"/>
<path d="M327.497 89.0486V100.406L363.953 79.3503V68.002L327.497 89.0486Z" fill="white"/>
<path d="M367.593 65.7836V77.2603L416.983 48.7428V37.3853L367.593 65.7836Z" fill="white"/>
<path d="M327.497 108.986L416.982 57.3228V62.4011L327.497 114.064V108.986Z" fill="#009F5E"/>
<path d="M327.497 118.419L416.982 66.7554V71.8337L327.497 123.497V118.419Z" fill="#009F5E"/>
<path opacity="0.3" d="M340.982 64.3261L318.239 127.659V162.199C318.239 167.479 323.95 170.769 328.515 168.129L348.654 156.506L392.434 34.6169L340.982 64.3169V64.3261Z" fill="white"/>
</svg>
