<svg width="550" height="181" viewBox="0 0 550 181" fill="none" xmlns="http://www.w3.org/2000/svg">
<path d="M68.75 159.339L481.25 159.339C519.22 159.339 550 128.559 550 90.5895C550 52.6199 519.22 21.8395 481.25 21.8395L68.75 21.8395C30.7804 21.8395 0 52.6199 0 90.5895C0 128.559 30.7804 159.339 68.75 159.339Z" fill="#3E8FF8"/>
<path d="M481.25 21.8396H146.85C108.88 21.8396 78.0996 52.62 78.0996 90.5896C78.0996 128.559 108.88 159.34 146.85 159.34H481.25C519.219 159.34 550 128.559 550 90.5896C550 52.62 519.219 21.8396 481.25 21.8396Z" fill="#3E8FF8" fill-opacity="0.5" style="mix-blend-mode:multiply"/>
<path d="M225.894 159.339L481.25 159.339C519.22 159.339 550 128.559 550 90.5895C550 52.6199 519.22 21.8395 481.25 21.8395L225.894 21.8395C187.925 21.8395 157.144 52.6199 157.144 90.5895C157.144 128.559 187.925 159.339 225.894 159.339Z" fill="#3E8FF8" fill-opacity="0.5" style="mix-blend-mode:multiply"/>
<path d="M304.462 159.339L481.25 159.339C519.22 159.339 550 128.559 550 90.5895C550 52.6199 519.22 21.8395 481.25 21.8395L304.462 21.8395C266.492 21.8395 235.712 52.6199 235.712 90.5895C235.712 128.559 266.492 159.339 304.462 159.339Z" fill="#3E8FF8" fill-opacity="0.5" style="mix-blend-mode:multiply"/>
<path d="M416.809 163.666C416.809 164.427 416.524 164.995 416.103 165.252L389.895 180.478L389.73 180.588C389.785 180.56 389.84 180.533 389.868 180.478C389.419 180.844 388.74 180.844 387.979 180.395L369.994 170.028C367.281 168.442 364.971 165.316 363.954 161.869C362.909 158.395 363.477 155.544 365.393 154.472L370.389 151.621C371.663 150.888 372.341 149.394 372.341 147.359L372.396 135.607C372.396 134.846 372.68 134.278 373.102 134.021C373.129 133.994 373.157 133.966 373.212 133.966L399.474 118.685C399.896 118.456 400.519 118.456 401.225 118.887C402.554 119.648 403.654 121.545 403.654 123.094L403.627 134.874C403.627 138.403 402.417 141.061 400.208 142.271L395.065 145.269L394.955 145.351C394.561 145.8 394.754 146.625 394.845 146.992C394.983 147.414 395.386 148.459 396.367 149.054L414.352 159.449C415.736 160.21 416.809 162.108 416.809 163.684V163.666Z" fill="#939FE7"/>
<path d="M416.817 163.657C416.817 164.436 416.543 164.977 416.093 165.234L389.721 180.56C390.161 180.294 390.445 179.754 390.445 178.984C390.445 177.416 389.354 175.519 387.988 174.739L369.994 164.354C369.013 163.776 368.61 162.731 368.472 162.3C368.362 161.869 368.143 160.843 368.848 160.439L395.221 145.113C394.515 145.516 394.735 146.543 394.845 146.974C394.982 147.404 395.367 148.44 396.367 149.027L414.361 159.413C415.717 160.192 416.817 162.089 416.817 163.657Z" fill="#80C8E7"/>
<path d="M387.98 180.395C389.337 181.175 390.446 180.542 390.446 178.993C390.446 177.425 389.346 175.528 387.998 174.749L370.004 164.354C369.014 163.785 368.62 162.74 368.483 162.31C368.363 161.879 368.143 160.861 368.849 160.458L373.854 157.598C376.036 156.36 377.246 153.73 377.255 150.191L377.292 138.43C377.292 136.872 376.201 134.984 374.853 134.195C373.488 133.407 372.388 134.04 372.388 135.589L372.351 147.35C372.351 149.375 371.654 150.888 370.398 151.603L365.393 154.454C363.478 155.545 362.918 158.377 363.945 161.851C364.972 165.316 367.291 168.451 369.995 170.01L387.989 180.405L387.98 180.395Z" fill="#CFE0ED"/>
<path d="M403.655 123.095L403.609 134.855C403.609 138.385 402.399 141.034 400.217 142.271L373.845 157.58C376.036 156.342 377.236 153.711 377.236 150.182L377.282 138.421C377.282 136.872 376.191 134.975 374.844 134.195C374.147 133.792 373.524 133.755 373.084 134.012L399.456 118.685C399.896 118.438 400.52 118.465 401.216 118.869C402.564 119.648 403.655 121.545 403.655 123.095Z" fill="#80C8E7"/>
<path d="M445.72 4.8445C444.336 4.05617 442.475 4.16617 440.358 5.38533L335.363 67.9387C331.1 70.4687 328.937 74.5387 328.937 79.232L327.764 162.062C327.791 164.436 328.644 166.132 329.964 166.893L322.511 162.548C321.155 161.76 320.339 160.091 320.311 157.744L320.082 74.832C320.082 69.5887 323.941 63.9053 327.59 61.8153L432.896 1.04033C434.986 -0.169668 436.875 -0.288835 438.231 0.499499L445.711 4.8445H445.72Z" fill="#CFE0ED"/>
<path d="M320.082 74.8228L320.311 157.726C320.33 160.091 321.155 161.759 322.502 162.548L329.964 166.884C328.635 166.114 329.496 164.115 329.478 161.732L327.544 79.1861L320.082 74.8319V74.8228Z" fill="#CFE0ED"/>
<path d="M440.367 5.35775C444.529 2.95608 447.902 4.89941 447.921 9.67525L448.159 92.5694C448.168 97.3452 444.813 103.166 440.651 105.568L335.345 166.361C331.183 168.763 327.791 166.847 327.782 162.062L327.544 79.1677C327.535 74.3919 330.899 68.5527 335.061 66.1511L440.367 5.35775Z" fill="#0C3B5E"/>
<path d="M332.191 163.08C332.127 162.878 332.072 162.539 332.063 162.062L331.824 79.168C331.815 75.9321 334.373 71.5046 337.196 69.873L442.503 9.07963C442.961 8.81379 443.291 8.70379 443.502 8.65796C443.566 8.86879 443.63 9.20796 443.63 9.69379L443.868 92.588C443.878 95.8146 441.32 100.233 438.506 101.855L333.199 162.649C332.732 162.915 332.393 163.034 332.191 163.08Z" fill="white"/>
<path d="M448.131 85.5936L448.15 92.5695C448.168 97.3545 444.813 103.166 440.66 105.568L335.354 166.379C331.183 168.781 327.8 166.856 327.782 162.071L327.764 155.095L448.131 85.5936Z" fill="#0C3B5E"/>
<path d="M389.146 46.9639C389.867 45.7204 389.867 44.3724 389.144 43.9531C388.422 43.5338 387.251 44.2019 386.529 45.4454C385.808 46.689 385.808 48.0369 386.531 48.4562C387.253 48.8755 388.424 48.2074 389.146 46.9639Z" fill="#0C3B5E"/>
<path d="M380.609 129.814C381.645 129.218 382.479 129.694 382.488 130.895C382.488 132.078 381.654 133.526 380.628 134.122C379.583 134.727 378.748 134.241 378.739 133.059C378.739 131.858 379.573 130.419 380.609 129.814Z" fill="#E3E6F9"/>
<path d="M387.952 125.579C388.988 124.983 389.831 125.46 389.831 126.66C389.831 127.852 388.997 129.3 387.961 129.896C386.916 130.501 386.082 130.015 386.082 128.824C386.082 127.623 386.907 126.175 387.952 125.579Z" fill="#E3E6F9"/>
<path d="M395.286 121.344C396.331 120.739 397.165 121.225 397.174 122.416C397.174 123.599 396.34 125.047 395.304 125.652C394.268 126.248 393.434 125.771 393.425 124.58C393.425 123.379 394.259 121.94 395.286 121.344Z" fill="#E3E6F9"/>
<path d="M465.631 50.0818C465.631 52.4835 463.907 55.4443 461.817 56.6635L436.288 71.4035L427.901 85.951C427.397 86.831 426.773 87.4452 426.177 87.7843C425.362 88.261 424.564 88.2335 424.115 87.7293C424.197 87.8118 424.28 87.8943 424.399 87.9585L418.386 84.4843C417.964 84.2277 417.68 83.696 417.68 82.8985V82.1652L417.57 82.2202C416.497 82.8435 415.535 82.8985 414.829 82.4768C414.774 82.4218 414.692 82.3668 414.627 82.3393L408.834 78.9752C408.128 78.581 407.707 77.7285 407.707 76.546L407.624 45.9935C407.624 43.5918 409.347 40.6035 411.437 39.3843L455.694 13.8277C456.739 13.2318 457.702 13.1768 458.407 13.571L464.283 16.9902C464.283 16.9902 464.338 17.0177 464.366 17.0452C465.099 17.4118 465.548 18.2918 465.548 19.5293L465.631 50.0818Z" fill="#3FB4E0"/>
<path d="M424.408 87.9586L418.395 84.4661C417.973 84.2186 417.698 83.6961 417.698 82.8894L423.712 86.3819C423.712 87.1886 423.987 87.7111 424.408 87.9586Z" fill="#1F9DB2"/>
<path d="M458.398 13.5803L464.411 17.0819C463.714 16.6786 462.752 16.7336 461.707 17.3386L455.693 13.8461C456.738 13.2411 457.701 13.1861 458.398 13.5894V13.5803Z" fill="#62BB6C"/>
<path d="M423.702 86.3911L417.688 82.8986L417.67 75.1895L423.683 78.682L423.702 86.3911Z" fill="#62BB6C"/>
<path d="M414.847 82.4678L408.834 78.9753C408.147 78.572 407.716 77.7378 407.716 76.5461L413.729 80.0386C413.729 81.2303 414.16 82.0736 414.847 82.4678Z" fill="#1F9DB2"/>
<path d="M413.729 80.0386L407.715 76.5461L407.633 46.0028L413.646 49.4953L413.729 80.0386Z" fill="#62BB6C"/>
<path d="M417.468 42.8769L411.455 39.3844L455.703 13.8369L461.716 17.3294L417.468 42.8769Z" fill="#62BB6C"/>
<path d="M413.646 49.4952L407.633 46.0027C407.633 43.5827 409.347 40.6036 411.455 39.3844L417.469 42.8769C415.36 44.0961 413.637 47.0752 413.646 49.4952Z" fill="#62BB6C"/>
<path d="M461.716 17.3294C463.806 16.1194 465.539 17.1094 465.548 19.5294L465.631 50.0727C465.631 52.4744 463.916 55.4536 461.826 56.6636L436.297 71.4036L427.891 85.9602C427.387 86.8311 426.773 87.4361 426.168 87.7844C424.912 88.5086 423.711 88.0777 423.702 86.3819L423.684 78.6727L417.579 82.2019C415.471 83.4211 413.738 82.4311 413.729 80.0294L413.646 49.4861C413.646 47.0661 415.361 44.0869 417.469 42.8677L461.716 17.3202V17.3294Z" fill="#31AA4A"/>
<path d="M449.754 34.2237C450.184 33.9762 450.624 33.912 450.964 34.0954C451.624 34.4895 451.624 35.7179 450.964 36.8545L436.26 62.3287C435.958 62.8787 435.509 63.3462 435.069 63.6029C434.61 63.8687 434.179 63.9054 433.859 63.722L428.331 60.5504C427.653 60.1837 427.653 58.9554 428.331 57.7912C428.661 57.2229 429.092 56.7829 429.523 56.5354C429.954 56.2879 430.394 56.2237 430.733 56.407L435.059 58.8729L448.562 35.4887C448.892 34.9204 449.323 34.4804 449.754 34.2329V34.2237Z" fill="white"/>
<path d="M384.221 61.1096L384.083 104.239L346.784 125.918L346.922 82.7888L384.221 61.1096Z" fill="#F6D13A"/>
<path d="M370.939 68.8186L370.994 88.1328L365.494 85.4561L360.049 94.4486L359.994 75.1803L370.93 68.8186H370.939Z" fill="#F3AE00"/>
<path d="M77.08 82.2567C76.936 82.2567 76.81 82.2027 76.702 82.0947C76.594 81.9867 76.54 81.8607 76.54 81.7167C76.54 81.6267 76.549 81.5277 76.567 81.4197L83.263 63.9507C83.335 63.7707 83.434 63.6267 83.56 63.5187C83.686 63.4107 83.875 63.3567 84.127 63.3567H85.963C86.197 63.3567 86.377 63.4107 86.503 63.5187C86.647 63.6267 86.755 63.7707 86.827 63.9507L93.496 81.4197C93.532 81.5277 93.55 81.6267 93.55 81.7167C93.55 81.8607 93.496 81.9867 93.388 82.0947C93.28 82.2027 93.154 82.2567 93.01 82.2567H91.633C91.417 82.2567 91.255 82.2027 91.147 82.0947C91.057 81.9867 90.994 81.8877 90.958 81.7977L89.473 77.9637H80.617L79.132 81.7977C79.114 81.8877 79.051 81.9867 78.943 82.0947C78.835 82.2027 78.673 82.2567 78.457 82.2567H77.08ZM81.4 75.6417H88.69L85.045 66.0567L81.4 75.6417ZM101.598 82.5267C100.32 82.5267 99.2127 82.2837 98.2767 81.7977C97.3587 81.2937 96.6477 80.5827 96.1437 79.6647C95.6397 78.7287 95.3697 77.6127 95.3337 76.3167C95.3157 76.0467 95.3067 75.6867 95.3067 75.2367C95.3067 74.7867 95.3157 74.4267 95.3337 74.1567C95.3697 72.8607 95.6397 71.7537 96.1437 70.8357C96.6477 69.8997 97.3587 69.1887 98.2767 68.7027C99.2127 68.1987 100.32 67.9467 101.598 67.9467C102.642 67.9467 103.533 68.0907 104.271 68.3787C105.027 68.6667 105.648 69.0357 106.134 69.4857C106.62 69.9357 106.98 70.4217 107.214 70.9437C107.466 71.4657 107.601 71.9607 107.619 72.4287C107.637 72.6087 107.583 72.7527 107.457 72.8607C107.331 72.9687 107.178 73.0227 106.998 73.0227H105.702C105.522 73.0227 105.387 72.9867 105.297 72.9147C105.207 72.8247 105.117 72.6807 105.027 72.4827C104.703 71.6007 104.262 70.9797 103.704 70.6197C103.146 70.2597 102.453 70.0797 101.625 70.0797C100.545 70.0797 99.6627 70.4127 98.9787 71.0787C98.3127 71.7447 97.9527 72.8157 97.8987 74.2917C97.8807 74.9397 97.8807 75.5697 97.8987 76.1817C97.9527 77.6757 98.3127 78.7557 98.9787 79.4217C99.6627 80.0697 100.545 80.3937 101.625 80.3937C102.453 80.3937 103.146 80.2137 103.704 79.8537C104.262 79.4937 104.703 78.8727 105.027 77.9907C105.117 77.7927 105.207 77.6577 105.297 77.5857C105.387 77.4957 105.522 77.4507 105.702 77.4507H106.998C107.178 77.4507 107.331 77.5047 107.457 77.6127C107.583 77.7207 107.637 77.8647 107.619 78.0447C107.601 78.4227 107.52 78.8097 107.376 79.2057C107.232 79.6017 106.998 80.0067 106.674 80.4207C106.368 80.8167 105.981 81.1767 105.513 81.5007C105.045 81.8067 104.478 82.0587 103.812 82.2567C103.164 82.4367 102.426 82.5267 101.598 82.5267ZM116.306 82.2567C115.298 82.2567 114.479 82.0677 113.849 81.6897C113.219 81.2937 112.76 80.7447 112.472 80.0427C112.184 79.3227 112.04 78.4767 112.04 77.5047V70.3767H109.934C109.754 70.3767 109.601 70.3227 109.475 70.2147C109.367 70.0887 109.313 69.9357 109.313 69.7557V68.8377C109.313 68.6577 109.367 68.5137 109.475 68.4057C109.601 68.2797 109.754 68.2167 109.934 68.2167H112.04V63.7077C112.04 63.5277 112.094 63.3837 112.202 63.2757C112.328 63.1497 112.481 63.0867 112.661 63.0867H113.93C114.11 63.0867 114.254 63.1497 114.362 63.2757C114.488 63.3837 114.551 63.5277 114.551 63.7077V68.2167H117.899C118.079 68.2167 118.223 68.2797 118.331 68.4057C118.457 68.5137 118.52 68.6577 118.52 68.8377V69.7557C118.52 69.9357 118.457 70.0887 118.331 70.2147C118.223 70.3227 118.079 70.3767 117.899 70.3767H114.551V77.3157C114.551 78.1617 114.695 78.8277 114.983 79.3137C115.271 79.7997 115.784 80.0427 116.522 80.0427H118.169C118.349 80.0427 118.493 80.1057 118.601 80.2317C118.727 80.3397 118.79 80.4837 118.79 80.6637V81.6357C118.79 81.8157 118.727 81.9687 118.601 82.0947C118.493 82.2027 118.349 82.2567 118.169 82.2567H116.306ZM121.993 82.2567C121.813 82.2567 121.66 82.2027 121.534 82.0947C121.426 81.9687 121.372 81.8157 121.372 81.6357V68.8377C121.372 68.6577 121.426 68.5137 121.534 68.4057C121.66 68.2797 121.813 68.2167 121.993 68.2167H123.289C123.469 68.2167 123.613 68.2797 123.721 68.4057C123.829 68.5137 123.883 68.6577 123.883 68.8377V81.6357C123.883 81.8157 123.829 81.9687 123.721 82.0947C123.613 82.2027 123.469 82.2567 123.289 82.2567H121.993ZM121.777 65.5977C121.597 65.5977 121.444 65.5437 121.318 65.4357C121.21 65.3097 121.156 65.1567 121.156 64.9767V63.5187C121.156 63.3387 121.21 63.1947 121.318 63.0867C121.444 62.9607 121.597 62.8977 121.777 62.8977H123.478C123.658 62.8977 123.802 62.9607 123.91 63.0867C124.036 63.1947 124.099 63.3387 124.099 63.5187V64.9767C124.099 65.1567 124.036 65.3097 123.91 65.4357C123.802 65.5437 123.658 65.5977 123.478 65.5977H121.777ZM132.798 82.2567C132.528 82.2567 132.312 82.1937 132.15 82.0677C132.006 81.9417 131.889 81.7797 131.799 81.5817L126.804 69.0537C126.768 68.9637 126.75 68.8737 126.75 68.7837C126.75 68.6217 126.804 68.4867 126.912 68.3787C127.02 68.2707 127.155 68.2167 127.317 68.2167H128.613C128.811 68.2167 128.964 68.2707 129.072 68.3787C129.18 68.4867 129.243 68.5857 129.261 68.6757L133.392 79.3137L137.496 68.6757C137.532 68.5857 137.595 68.4867 137.685 68.3787C137.793 68.2707 137.946 68.2167 138.144 68.2167H139.467C139.611 68.2167 139.737 68.2707 139.845 68.3787C139.971 68.4867 140.034 68.6217 140.034 68.7837C140.034 68.8737 140.016 68.9637 139.98 69.0537L134.958 81.5817C134.886 81.7797 134.769 81.9417 134.607 82.0677C134.463 82.1937 134.247 82.2567 133.959 82.2567H132.798ZM146.249 82.5267C145.349 82.5267 144.53 82.3467 143.792 81.9867C143.054 81.6267 142.46 81.1407 142.01 80.5287C141.56 79.9167 141.335 79.2237 141.335 78.4497C141.335 77.2077 141.839 76.2177 142.847 75.4797C143.855 74.7417 145.169 74.2557 146.789 74.0217L150.812 73.4547V72.6717C150.812 71.8077 150.56 71.1327 150.056 70.6467C149.57 70.1607 148.769 69.9177 147.653 69.9177C146.843 69.9177 146.186 70.0797 145.682 70.4037C145.196 70.7277 144.854 71.1417 144.656 71.6457C144.548 71.9157 144.359 72.0507 144.089 72.0507H142.874C142.676 72.0507 142.523 71.9967 142.415 71.8887C142.325 71.7627 142.28 71.6187 142.28 71.4567C142.28 71.1867 142.379 70.8537 142.577 70.4577C142.793 70.0617 143.117 69.6747 143.549 69.2967C143.981 68.9187 144.53 68.6037 145.196 68.3517C145.88 68.0817 146.708 67.9467 147.68 67.9467C148.76 67.9467 149.669 68.0907 150.407 68.3787C151.145 68.6487 151.721 69.0177 152.135 69.4857C152.567 69.9537 152.873 70.4847 153.053 71.0787C153.251 71.6727 153.35 72.2757 153.35 72.8877V81.6357C153.35 81.8157 153.287 81.9687 153.161 82.0947C153.053 82.2027 152.909 82.2567 152.729 82.2567H151.487C151.289 82.2567 151.136 82.2027 151.028 82.0947C150.92 81.9687 150.866 81.8157 150.866 81.6357V80.4747C150.632 80.7987 150.317 81.1227 149.921 81.4467C149.525 81.7527 149.03 82.0137 148.436 82.2297C147.842 82.4277 147.113 82.5267 146.249 82.5267ZM146.816 80.5017C147.554 80.5017 148.229 80.3487 148.841 80.0427C149.453 79.7187 149.93 79.2237 150.272 78.5577C150.632 77.8917 150.812 77.0547 150.812 76.0467V75.2907L147.68 75.7497C146.402 75.9297 145.439 76.2357 144.791 76.6677C144.143 77.0817 143.819 77.6127 143.819 78.2607C143.819 78.7647 143.963 79.1877 144.251 79.5297C144.557 79.8537 144.935 80.0967 145.385 80.2587C145.853 80.4207 146.33 80.5017 146.816 80.5017ZM162.581 82.2567C161.573 82.2567 160.754 82.0677 160.124 81.6897C159.494 81.2937 159.035 80.7447 158.747 80.0427C158.459 79.3227 158.315 78.4767 158.315 77.5047V70.3767H156.209C156.029 70.3767 155.876 70.3227 155.75 70.2147C155.642 70.0887 155.588 69.9357 155.588 69.7557V68.8377C155.588 68.6577 155.642 68.5137 155.75 68.4057C155.876 68.2797 156.029 68.2167 156.209 68.2167H158.315V63.7077C158.315 63.5277 158.369 63.3837 158.477 63.2757C158.603 63.1497 158.756 63.0867 158.936 63.0867H160.205C160.385 63.0867 160.529 63.1497 160.637 63.2757C160.763 63.3837 160.826 63.5277 160.826 63.7077V68.2167H164.174C164.354 68.2167 164.498 68.2797 164.606 68.4057C164.732 68.5137 164.795 68.6577 164.795 68.8377V69.7557C164.795 69.9357 164.732 70.0887 164.606 70.2147C164.498 70.3227 164.354 70.3767 164.174 70.3767H160.826V77.3157C160.826 78.1617 160.97 78.8277 161.258 79.3137C161.546 79.7997 162.059 80.0427 162.797 80.0427H164.444C164.624 80.0427 164.768 80.1057 164.876 80.2317C165.002 80.3397 165.065 80.4837 165.065 80.6637V81.6357C165.065 81.8157 165.002 81.9687 164.876 82.0947C164.768 82.2027 164.624 82.2567 164.444 82.2567H162.581ZM168.267 82.2567C168.087 82.2567 167.934 82.2027 167.808 82.0947C167.7 81.9687 167.646 81.8157 167.646 81.6357V68.8377C167.646 68.6577 167.7 68.5137 167.808 68.4057C167.934 68.2797 168.087 68.2167 168.267 68.2167H169.563C169.743 68.2167 169.887 68.2797 169.995 68.4057C170.103 68.5137 170.157 68.6577 170.157 68.8377V81.6357C170.157 81.8157 170.103 81.9687 169.995 82.0947C169.887 82.2027 169.743 82.2567 169.563 82.2567H168.267ZM168.051 65.5977C167.871 65.5977 167.718 65.5437 167.592 65.4357C167.484 65.3097 167.43 65.1567 167.43 64.9767V63.5187C167.43 63.3387 167.484 63.1947 167.592 63.0867C167.718 62.9607 167.871 62.8977 168.051 62.8977H169.752C169.932 62.8977 170.076 62.9607 170.184 63.0867C170.31 63.1947 170.373 63.3387 170.373 63.5187V64.9767C170.373 65.1567 170.31 65.3097 170.184 65.4357C170.076 65.5437 169.932 65.5977 169.752 65.5977H168.051ZM179.937 82.5267C178.569 82.5267 177.426 82.2657 176.508 81.7437C175.59 81.2217 174.888 80.5017 174.402 79.5837C173.916 78.6477 173.646 77.5857 173.592 76.3977C173.574 76.0917 173.565 75.7047 173.565 75.2367C173.565 74.7507 173.574 74.3637 173.592 74.0757C173.646 72.8697 173.916 71.8077 174.402 70.8897C174.906 69.9717 175.617 69.2517 176.535 68.7297C177.453 68.2077 178.587 67.9467 179.937 67.9467C181.287 67.9467 182.421 68.2077 183.339 68.7297C184.257 69.2517 184.959 69.9717 185.445 70.8897C185.949 71.8077 186.228 72.8697 186.282 74.0757C186.3 74.3637 186.309 74.7507 186.309 75.2367C186.309 75.7047 186.3 76.0917 186.282 76.3977C186.228 77.5857 185.958 78.6477 185.472 79.5837C184.986 80.5017 184.284 81.2217 183.366 81.7437C182.448 82.2657 181.305 82.5267 179.937 82.5267ZM179.937 80.4477C181.053 80.4477 181.944 80.0967 182.61 79.3947C183.276 78.6747 183.636 77.6307 183.69 76.2627C183.708 75.9927 183.717 75.6507 183.717 75.2367C183.717 74.8227 183.708 74.4807 183.69 74.2107C183.636 72.8427 183.276 71.8077 182.61 71.1057C181.944 70.3857 181.053 70.0257 179.937 70.0257C178.821 70.0257 177.921 70.3857 177.237 71.1057C176.571 71.8077 176.22 72.8427 176.184 74.2107C176.166 74.4807 176.156 74.8227 176.156 75.2367C176.156 75.6507 176.166 75.9927 176.184 76.2627C176.22 77.6307 176.571 78.6747 177.237 79.3947C177.921 80.0967 178.821 80.4477 179.937 80.4477ZM190.31 82.2567C190.13 82.2567 189.977 82.2027 189.851 82.0947C189.743 81.9687 189.689 81.8157 189.689 81.6357V68.8377C189.689 68.6577 189.743 68.5137 189.851 68.4057C189.977 68.2797 190.13 68.2167 190.31 68.2167H191.579C191.759 68.2167 191.903 68.2797 192.011 68.4057C192.137 68.5137 192.2 68.6577 192.2 68.8377V70.0257C192.668 69.4137 193.253 68.9187 193.955 68.5407C194.675 68.1447 195.593 67.9467 196.709 67.9467C197.879 67.9467 198.869 68.2077 199.679 68.7297C200.507 69.2337 201.128 69.9447 201.542 70.8627C201.956 71.7627 202.163 72.8157 202.163 74.0217V81.6357C202.163 81.8157 202.109 81.9687 202.001 82.0947C201.893 82.2027 201.749 82.2567 201.569 82.2567H200.219C200.039 82.2567 199.886 82.2027 199.76 82.0947C199.652 81.9687 199.598 81.8157 199.598 81.6357V74.1567C199.598 72.8967 199.292 71.9157 198.68 71.2137C198.068 70.4937 197.168 70.1337 195.98 70.1337C194.864 70.1337 193.964 70.4937 193.28 71.2137C192.614 71.9157 192.281 72.8967 192.281 74.1567V81.6357C192.281 81.8157 192.218 81.9687 192.092 82.0947C191.984 82.2027 191.84 82.2567 191.66 82.2567H190.31ZM85.153 114.527C83.497 114.527 82.12 114.221 81.022 113.609C79.942 112.997 79.123 112.142 78.565 111.044C78.007 109.946 77.701 108.668 77.647 107.21C77.629 106.472 77.62 105.68 77.62 104.834C77.62 103.988 77.629 103.178 77.647 102.404C77.701 100.946 78.007 99.6677 78.565 98.5697C79.123 97.4717 79.942 96.6167 81.022 96.0047C82.12 95.3927 83.497 95.0867 85.153 95.0867C86.395 95.0867 87.484 95.2577 88.42 95.5997C89.356 95.9417 90.13 96.4007 90.742 96.9767C91.372 97.5527 91.849 98.2007 92.173 98.9207C92.497 99.6227 92.677 100.352 92.713 101.108C92.731 101.27 92.677 101.405 92.551 101.513C92.443 101.621 92.308 101.675 92.146 101.675H90.661C90.499 101.675 90.355 101.63 90.229 101.54C90.121 101.45 90.04 101.288 89.986 101.054C89.68 99.6497 89.104 98.6867 88.258 98.1647C87.43 97.6427 86.386 97.3817 85.126 97.3817C83.686 97.3817 82.543 97.7957 81.697 98.6237C80.851 99.4337 80.392 100.739 80.32 102.539C80.266 104.015 80.266 105.527 80.32 107.075C80.392 108.875 80.851 110.189 81.697 111.017C82.543 111.827 83.686 112.232 85.126 112.232C86.386 112.232 87.43 111.971 88.258 111.449C89.104 110.927 89.68 109.964 89.986 108.56C90.04 108.326 90.121 108.164 90.229 108.074C90.355 107.984 90.499 107.939 90.661 107.939H92.146C92.308 107.939 92.443 107.993 92.551 108.101C92.677 108.209 92.731 108.344 92.713 108.506C92.677 109.262 92.497 110 92.173 110.72C91.849 111.422 91.372 112.061 90.742 112.637C90.13 113.213 89.356 113.672 88.42 114.014C87.484 114.356 86.395 114.527 85.153 114.527ZM101.731 114.527C100.363 114.527 99.2204 114.266 98.3024 113.744C97.3844 113.222 96.6824 112.502 96.1964 111.584C95.7104 110.648 95.4404 109.586 95.3864 108.398C95.3684 108.092 95.3594 107.705 95.3594 107.237C95.3594 106.751 95.3684 106.364 95.3864 106.076C95.4404 104.87 95.7104 103.808 96.1964 102.89C96.7004 101.972 97.4114 101.252 98.3294 100.73C99.2474 100.208 100.381 99.9467 101.731 99.9467C103.081 99.9467 104.215 100.208 105.133 100.73C106.051 101.252 106.753 101.972 107.239 102.89C107.743 103.808 108.022 104.87 108.076 106.076C108.094 106.364 108.103 106.751 108.103 107.237C108.103 107.705 108.094 108.092 108.076 108.398C108.022 109.586 107.752 110.648 107.266 111.584C106.78 112.502 106.078 113.222 105.16 113.744C104.242 114.266 103.099 114.527 101.731 114.527ZM101.731 112.448C102.847 112.448 103.738 112.097 104.404 111.395C105.07 110.675 105.43 109.631 105.484 108.263C105.502 107.993 105.511 107.651 105.511 107.237C105.511 106.823 105.502 106.481 105.484 106.211C105.43 104.843 105.07 103.808 104.404 103.106C103.738 102.386 102.847 102.026 101.731 102.026C100.615 102.026 99.7154 102.386 99.0314 103.106C98.3654 103.808 98.0144 104.843 97.9784 106.211C97.9604 106.481 97.9514 106.823 97.9514 107.237C97.9514 107.651 97.9604 107.993 97.9784 108.263C98.0144 109.631 98.3654 110.675 99.0314 111.395C99.7154 112.097 100.615 112.448 101.731 112.448ZM112.105 114.257C111.925 114.257 111.772 114.203 111.646 114.095C111.538 113.969 111.484 113.816 111.484 113.636V100.838C111.484 100.658 111.538 100.514 111.646 100.406C111.772 100.28 111.925 100.217 112.105 100.217H113.32C113.5 100.217 113.644 100.28 113.752 100.406C113.878 100.514 113.941 100.658 113.941 100.838V101.783C114.355 101.225 114.877 100.784 115.507 100.46C116.137 100.118 116.893 99.9467 117.775 99.9467C119.809 99.9287 121.249 100.757 122.095 102.431C122.509 101.675 123.112 101.072 123.904 100.622C124.696 100.172 125.596 99.9467 126.604 99.9467C127.54 99.9467 128.386 100.163 129.142 100.595C129.916 101.027 130.519 101.684 130.951 102.566C131.401 103.43 131.626 104.519 131.626 105.833V113.636C131.626 113.816 131.563 113.969 131.437 114.095C131.329 114.203 131.185 114.257 131.005 114.257H129.736C129.556 114.257 129.403 114.203 129.277 114.095C129.169 113.969 129.115 113.816 129.115 113.636V106.076C129.115 105.068 128.971 104.276 128.683 103.7C128.395 103.124 128.008 102.719 127.522 102.485C127.036 102.251 126.505 102.134 125.929 102.134C125.461 102.134 124.984 102.251 124.498 102.485C124.012 102.719 123.607 103.124 123.283 103.7C122.977 104.276 122.824 105.068 122.824 106.076V113.636C122.824 113.816 122.761 113.969 122.635 114.095C122.527 114.203 122.383 114.257 122.203 114.257H120.934C120.754 114.257 120.601 114.203 120.475 114.095C120.367 113.969 120.313 113.816 120.313 113.636V106.076C120.313 105.068 120.16 104.276 119.854 103.7C119.548 103.124 119.152 102.719 118.666 102.485C118.18 102.251 117.667 102.134 117.127 102.134C116.659 102.134 116.182 102.251 115.696 102.485C115.21 102.719 114.805 103.124 114.481 103.7C114.175 104.276 114.022 105.059 114.022 106.049V113.636C114.022 113.816 113.959 113.969 113.833 114.095C113.725 114.203 113.581 114.257 113.401 114.257H112.105ZM136.126 119.387C135.946 119.387 135.793 119.324 135.667 119.198C135.559 119.09 135.505 118.946 135.505 118.766V100.838C135.505 100.658 135.559 100.514 135.667 100.406C135.793 100.28 135.946 100.217 136.126 100.217H137.368C137.548 100.217 137.692 100.28 137.8 100.406C137.926 100.514 137.989 100.658 137.989 100.838V102.026C138.421 101.432 138.997 100.937 139.717 100.541C140.437 100.145 141.337 99.9467 142.417 99.9467C143.425 99.9467 144.28 100.118 144.982 100.46C145.702 100.802 146.287 101.27 146.737 101.864C147.205 102.458 147.556 103.133 147.79 103.889C148.024 104.645 148.15 105.455 148.168 106.319C148.186 106.607 148.195 106.913 148.195 107.237C148.195 107.561 148.186 107.867 148.168 108.155C148.15 109.001 148.024 109.811 147.79 110.585C147.556 111.341 147.205 112.016 146.737 112.61C146.287 113.186 145.702 113.654 144.982 114.014C144.28 114.356 143.425 114.527 142.417 114.527C141.373 114.527 140.491 114.338 139.771 113.96C139.069 113.564 138.493 113.078 138.043 112.502V118.766C138.043 118.946 137.989 119.09 137.881 119.198C137.773 119.324 137.62 119.387 137.422 119.387H136.126ZM141.85 112.34C142.786 112.34 143.515 112.142 144.037 111.746C144.577 111.332 144.964 110.801 145.198 110.153C145.432 109.487 145.567 108.776 145.603 108.02C145.621 107.498 145.621 106.976 145.603 106.454C145.567 105.698 145.432 104.996 145.198 104.348C144.964 103.682 144.577 103.151 144.037 102.755C143.515 102.341 142.786 102.134 141.85 102.134C140.968 102.134 140.248 102.341 139.69 102.755C139.15 103.169 138.745 103.7 138.475 104.348C138.223 104.978 138.079 105.626 138.043 106.292C138.025 106.58 138.016 106.922 138.016 107.318C138.016 107.714 138.025 108.065 138.043 108.371C138.061 109.001 138.205 109.622 138.475 110.234C138.763 110.846 139.186 111.35 139.744 111.746C140.302 112.142 141.004 112.34 141.85 112.34ZM152.21 114.257C152.03 114.257 151.877 114.203 151.751 114.095C151.643 113.969 151.589 113.816 151.589 113.636V95.7077C151.589 95.5277 151.643 95.3837 151.751 95.2757C151.877 95.1497 152.03 95.0867 152.21 95.0867H153.479C153.677 95.0867 153.83 95.1497 153.938 95.2757C154.046 95.3837 154.1 95.5277 154.1 95.7077V113.636C154.1 113.816 154.046 113.969 153.938 114.095C153.83 114.203 153.677 114.257 153.479 114.257H152.21ZM163.717 114.527C161.863 114.527 160.387 113.96 159.289 112.826C158.191 111.674 157.588 110.108 157.48 108.128C157.462 107.894 157.453 107.597 157.453 107.237C157.453 106.859 157.462 106.553 157.48 106.319C157.552 105.041 157.849 103.925 158.371 102.971C158.893 101.999 159.604 101.252 160.504 100.73C161.422 100.208 162.493 99.9467 163.717 99.9467C165.085 99.9467 166.228 100.235 167.146 100.811C168.082 101.387 168.793 102.206 169.279 103.268C169.765 104.33 170.008 105.572 170.008 106.994V107.453C170.008 107.651 169.945 107.804 169.819 107.912C169.711 108.02 169.567 108.074 169.387 108.074H160.045C160.045 108.092 160.045 108.128 160.045 108.182C160.045 108.236 160.045 108.281 160.045 108.317C160.081 109.055 160.243 109.748 160.531 110.396C160.819 111.026 161.233 111.539 161.773 111.935C162.313 112.331 162.961 112.529 163.717 112.529C164.365 112.529 164.905 112.43 165.337 112.232C165.769 112.034 166.12 111.818 166.39 111.584C166.66 111.332 166.84 111.143 166.93 111.017C167.092 110.783 167.218 110.648 167.308 110.612C167.398 110.558 167.542 110.531 167.74 110.531H169.036C169.216 110.531 169.36 110.585 169.468 110.693C169.594 110.783 169.648 110.918 169.63 111.098C169.612 111.368 169.468 111.701 169.198 112.097C168.928 112.475 168.541 112.853 168.037 113.231C167.533 113.609 166.921 113.924 166.201 114.176C165.481 114.41 164.653 114.527 163.717 114.527ZM160.045 106.211H167.443V106.13C167.443 105.32 167.29 104.6 166.984 103.97C166.696 103.34 166.273 102.845 165.715 102.485C165.157 102.107 164.491 101.918 163.717 101.918C162.943 101.918 162.277 102.107 161.719 102.485C161.179 102.845 160.765 103.34 160.477 103.97C160.189 104.6 160.045 105.32 160.045 106.13V106.211ZM178.638 114.257C177.63 114.257 176.811 114.068 176.181 113.69C175.551 113.294 175.092 112.745 174.804 112.043C174.516 111.323 174.372 110.477 174.372 109.505V102.377H172.266C172.086 102.377 171.933 102.323 171.807 102.215C171.699 102.089 171.645 101.936 171.645 101.756V100.838C171.645 100.658 171.699 100.514 171.807 100.406C171.933 100.28 172.086 100.217 172.266 100.217H174.372V95.7077C174.372 95.5277 174.426 95.3837 174.534 95.2757C174.66 95.1497 174.813 95.0867 174.993 95.0867H176.262C176.442 95.0867 176.586 95.1497 176.694 95.2757C176.82 95.3837 176.883 95.5277 176.883 95.7077V100.217H180.231C180.411 100.217 180.555 100.28 180.663 100.406C180.789 100.514 180.852 100.658 180.852 100.838V101.756C180.852 101.936 180.789 102.089 180.663 102.215C180.555 102.323 180.411 102.377 180.231 102.377H176.883V109.316C176.883 110.162 177.027 110.828 177.315 111.314C177.603 111.8 178.116 112.043 178.854 112.043H180.501C180.681 112.043 180.825 112.106 180.933 112.232C181.059 112.34 181.122 112.484 181.122 112.664V113.636C181.122 113.816 181.059 113.969 180.933 114.095C180.825 114.203 180.681 114.257 180.501 114.257H178.638ZM189.293 114.527C187.439 114.527 185.963 113.96 184.865 112.826C183.767 111.674 183.164 110.108 183.056 108.128C183.038 107.894 183.029 107.597 183.029 107.237C183.029 106.859 183.038 106.553 183.056 106.319C183.128 105.041 183.425 103.925 183.947 102.971C184.469 101.999 185.18 101.252 186.08 100.73C186.998 100.208 188.069 99.9467 189.293 99.9467C190.661 99.9467 191.804 100.235 192.722 100.811C193.658 101.387 194.369 102.206 194.855 103.268C195.341 104.33 195.584 105.572 195.584 106.994V107.453C195.584 107.651 195.521 107.804 195.395 107.912C195.287 108.02 195.143 108.074 194.963 108.074H185.621C185.621 108.092 185.621 108.128 185.621 108.182C185.621 108.236 185.621 108.281 185.621 108.317C185.657 109.055 185.819 109.748 186.107 110.396C186.395 111.026 186.809 111.539 187.349 111.935C187.889 112.331 188.537 112.529 189.293 112.529C189.941 112.529 190.481 112.43 190.913 112.232C191.345 112.034 191.696 111.818 191.966 111.584C192.236 111.332 192.416 111.143 192.506 111.017C192.668 110.783 192.794 110.648 192.884 110.612C192.974 110.558 193.118 110.531 193.316 110.531H194.612C194.792 110.531 194.936 110.585 195.044 110.693C195.17 110.783 195.224 110.918 195.206 111.098C195.188 111.368 195.044 111.701 194.774 112.097C194.504 112.475 194.117 112.853 193.613 113.231C193.109 113.609 192.497 113.924 191.777 114.176C191.057 114.41 190.229 114.527 189.293 114.527ZM185.621 106.211H193.019V106.13C193.019 105.32 192.866 104.6 192.56 103.97C192.272 103.34 191.849 102.845 191.291 102.485C190.733 102.107 190.067 101.918 189.293 101.918C188.519 101.918 187.853 102.107 187.295 102.485C186.755 102.845 186.341 103.34 186.053 103.97C185.765 104.6 185.621 105.32 185.621 106.13V106.211Z" fill="white"/>
</svg>
