<svg width="550" height="223" viewBox="0 0 550 223" fill="none" xmlns="http://www.w3.org/2000/svg">
<path d="M68.75 178.884L481.25 178.884C519.22 178.884 550 148.103 550 110.134C550 72.1642 519.22 41.3838 481.25 41.3838L68.75 41.3838C30.7804 41.3838 0 72.1642 0 110.134C0 148.103 30.7804 178.884 68.75 178.884Z" fill="#3E8FF8"/>
<path d="M481.25 41.3838H146.85C108.881 41.3838 78.1001 72.1642 78.1001 110.134C78.1001 148.103 108.881 178.884 146.85 178.884H481.25C519.22 178.884 550 148.103 550 110.134C550 72.1642 519.22 41.3838 481.25 41.3838Z" fill="#3E8FF8" fill-opacity="0.5" style="mix-blend-mode:multiply"/>
<path d="M225.894 178.884L481.25 178.884C519.22 178.884 550 148.103 550 110.134C550 72.1642 519.22 41.3838 481.25 41.3838L225.894 41.3838C187.925 41.3838 157.144 72.1642 157.144 110.134C157.144 148.103 187.925 178.884 225.894 178.884Z" fill="#3E8FF8" fill-opacity="0.5" style="mix-blend-mode:multiply"/>
<path d="M304.462 178.884L481.25 178.884C519.22 178.884 550 148.103 550 110.134C550 72.1642 519.22 41.3838 481.25 41.3838L304.462 41.3838C266.492 41.3838 235.712 72.1642 235.712 110.134C235.712 148.103 266.492 178.884 304.462 178.884Z" fill="#3E8FF8" fill-opacity="0.5" style="mix-blend-mode:multiply"/>
<path d="M356.583 124.681L449.295 71.1481L417.156 52.5947L326.104 105.166C325.361 105.587 325.361 106.66 326.104 107.081L356.583 124.681Z" fill="#75A8D2"/>
<path d="M356.583 219.015V126.441C356.583 125.314 355.978 124.269 355.006 123.71L329.184 108.805C327.076 107.585 324.445 109.107 324.445 111.536V204.11C324.445 205.238 325.05 206.283 326.021 206.842L351.844 221.747C353.952 222.966 356.583 221.445 356.583 219.015Z" fill="#0C3B5E"/>
<path d="M356.583 218.951L447.727 167.352V71.084L356.583 122.683V218.951Z" fill="#0E5A8B"/>
<path d="M443.528 117.843L438.267 114.791C435.929 113.434 432.703 113.618 429.146 115.671L434.408 118.723C437.964 116.67 441.191 116.487 443.528 117.843Z" fill="#A1C5E1"/>
<path d="M434.408 118.723L429.146 115.671L351.275 160.633L356.528 163.686L434.399 118.723H434.408Z" fill="#A1C5E1"/>
<path d="M342.164 191.205L347.425 194.257C345.106 192.91 343.676 190.05 343.667 185.97C343.64 177.812 349.387 167.811 356.528 163.686L351.266 160.634C344.125 164.759 338.378 174.76 338.405 182.918C338.415 186.997 339.854 189.857 342.164 191.205Z" fill="#A1C5E1"/>
<path d="M356.528 163.686C349.387 167.811 343.64 177.812 343.667 185.97C343.695 194.184 349.47 197.475 356.62 193.35L434.49 148.387C441.585 144.29 447.333 134.344 447.305 126.13C447.278 117.972 441.503 114.626 434.408 118.724L356.537 163.686H356.528Z" fill="#0C3B5E"/>
<path d="M419.686 142.08C419.686 145.05 421.776 146.26 424.352 144.775C426.928 143.29 429.018 139.669 429.018 136.699C429.018 133.729 426.928 132.519 424.352 134.004C421.776 135.489 419.686 139.11 419.686 142.08Z" fill="#A1C5E1"/>
<path d="M400.445 153.19C400.445 156.16 402.535 157.37 405.111 155.885C407.687 154.4 409.777 150.779 409.777 147.809C409.777 144.839 407.687 143.629 405.111 145.114C402.535 146.599 400.445 150.22 400.445 153.19Z" fill="#A1C5E1"/>
<path d="M381.195 164.3C381.195 167.28 383.285 168.48 385.861 166.995C388.437 165.51 390.527 161.89 390.527 158.92C390.527 155.95 388.437 154.74 385.861 156.225C383.285 157.71 381.195 161.33 381.195 164.3Z" fill="#A1C5E1"/>
<path d="M361.955 175.41C361.955 178.389 364.045 179.59 366.62 178.105C369.196 176.62 371.286 172.999 371.286 170.029C371.286 167.059 369.196 165.849 366.62 167.334C364.045 168.819 361.955 172.44 361.955 175.41Z" fill="#A1C5E1"/>
<path d="M352.467 87.2722C356.666 87.2722 360.057 83.8714 360.057 79.6822V65.2905C360.057 48.3505 372.46 26.8822 387.127 18.4122C392.837 15.1122 398.016 14.333 401.353 16.2489C404.681 18.1739 406.596 23.0597 406.596 29.6597V71.6064C406.596 75.8047 409.988 79.1964 414.186 79.1964C418.385 79.1964 421.776 75.7955 421.776 71.6064V29.6597C421.776 17.3122 417.221 7.8797 408.943 3.10386C400.675 -1.68114 390.216 -0.911136 379.527 5.25803C360.094 16.4872 344.868 42.8505 344.868 65.2905V79.6822C344.868 83.8805 348.269 87.2722 352.458 87.2722H352.467Z" fill="#A1C5E1"/>
<path d="M358.49 123.7L444.959 73.8794C447.37 72.4861 447.37 69.0119 444.959 67.6186L419.714 53.0711C418.596 52.4294 417.211 52.4294 416.093 53.0711L326.434 104.725C325.435 105.303 325.435 106.733 326.434 107.31L354.86 123.691C355.978 124.333 357.362 124.333 358.481 123.691L358.49 123.7Z" fill="#0C3B5E"/>
<path d="M356.345 218.979V123.435C356.345 122.271 355.74 121.198 354.768 120.611L328.946 105.221C326.837 103.965 324.207 105.532 324.207 108.044V203.588C324.207 204.752 324.812 205.825 325.783 206.411L351.606 221.802C353.714 223.058 356.345 221.491 356.345 218.979Z" fill="#0C3B5E"/>
<path d="M356.483 221.71L447.718 168.259V70.6986C447.718 69.6811 446.609 69.0395 445.729 69.562L356.336 121.922V221.628C356.336 221.701 356.409 221.747 356.473 221.71H356.483Z" fill="#80C8E7"/>
<path d="M447.177 116.789L441.915 113.736C439.578 112.38 436.351 112.563 432.794 114.616L438.056 117.669C441.613 115.615 444.839 115.432 447.177 116.789Z" fill="#CFE0ED"/>
<path d="M438.047 117.669L432.785 114.616L354.915 159.579L360.167 162.631L438.038 117.669H438.047Z" fill="#CFE0ED"/>
<path d="M345.812 190.14L351.074 193.193C348.755 191.845 347.325 188.985 347.315 184.906C347.288 176.748 353.035 166.747 360.176 162.622L354.915 159.569C347.774 163.694 342.026 173.695 342.054 181.854C342.063 185.933 343.502 188.793 345.812 190.14Z" fill="#CFE0ED"/>
<path d="M360.176 162.632C353.036 166.757 347.288 176.757 347.316 184.916C347.343 193.129 353.118 196.42 360.268 192.295L438.139 147.332C445.234 143.235 450.981 133.289 450.954 125.076C450.926 116.917 445.151 113.572 438.056 117.669L360.186 162.632H360.176Z" fill="#0E5A8B"/>
<path d="M423.326 141.025C423.326 143.995 425.416 145.205 427.992 143.72C430.567 142.235 432.657 138.614 432.657 135.644C432.657 132.674 430.567 131.464 427.992 132.949C425.416 134.434 423.326 138.055 423.326 141.025Z" fill="#CFE0ED"/>
<path d="M404.084 152.127C404.084 155.097 406.174 156.307 408.75 154.822C411.326 153.337 413.416 149.716 413.416 146.746C413.416 143.776 411.326 142.566 408.75 144.051C406.174 145.536 404.084 149.157 404.084 152.127Z" fill="#CFE0ED"/>
<path d="M384.844 163.236C384.844 166.215 386.934 167.416 389.51 165.931C392.085 164.446 394.175 160.825 394.175 157.855C394.175 154.885 392.085 153.675 389.51 155.16C386.934 156.645 384.844 160.266 384.844 163.236Z" fill="#CFE0ED"/>
<path d="M365.603 174.346C365.603 177.326 367.693 178.526 370.269 177.041C372.845 175.556 374.935 171.936 374.935 168.966C374.935 165.996 372.845 164.786 370.269 166.271C367.693 167.756 365.603 171.376 365.603 174.346Z" fill="#CFE0ED"/>
<path d="M421.822 53.7492C393.076 71.8717 364.329 90.0034 335.582 108.126C331.861 110.729 329.963 114.937 329.963 119.786L328.937 205.265C328.533 206.365 328.735 207.566 329.477 208.382C330.229 209.207 331.228 209.308 331.476 209.317C329.102 208.134 326.727 206.943 324.353 205.76C323.171 204.944 322.456 203.221 322.428 200.801L322.227 115.23C322.227 109.822 325.591 103.946 328.79 101.792C357.463 84.4484 386.127 67.1051 414.801 49.7617C417.138 51.0909 419.485 52.4109 421.822 53.7401V53.7492Z" fill="#0C3B5E"/>
<path d="M352.238 87.3269C356.437 87.3269 359.828 83.926 359.828 79.7369V65.3452C359.828 48.4052 372.231 26.9369 386.897 18.4669C392.608 15.1669 397.787 14.3877 401.124 16.3035C404.452 18.2285 406.367 23.1144 406.367 29.7144V71.661C406.367 75.8594 409.759 79.251 413.957 79.251C418.156 79.251 421.547 75.8502 421.547 71.661V29.7144C421.547 17.3669 416.992 7.93438 408.714 3.15855C400.446 -1.62645 389.987 -0.856449 379.298 5.31272C359.865 16.5419 344.639 42.9052 344.639 65.3452V79.7369C344.639 83.9352 348.04 87.3269 352.229 87.3269H352.238Z" fill="#CFE0ED"/>
<path d="M78.9065 105.667C78.7085 105.667 78.5555 105.613 78.4475 105.505C78.3395 105.379 78.2855 105.226 78.2855 105.046V87.415C78.2855 87.217 78.3395 87.064 78.4475 86.956C78.5555 86.83 78.7085 86.767 78.9065 86.767H85.4945C87.5285 86.767 89.1395 87.244 90.3275 88.198C91.5155 89.152 92.1095 90.565 92.1095 92.437C92.1095 93.823 91.7585 94.957 91.0565 95.839C90.3725 96.703 89.4365 97.306 88.2485 97.648L92.4065 104.83C92.4605 104.938 92.4875 105.037 92.4875 105.127C92.4875 105.271 92.4245 105.397 92.2985 105.505C92.1905 105.613 92.0645 105.667 91.9205 105.667H90.6245C90.3185 105.667 90.0935 105.586 89.9495 105.424C89.8055 105.262 89.6795 105.1 89.5715 104.938L85.6565 98.08H80.9315V105.046C80.9315 105.226 80.8685 105.379 80.7425 105.505C80.6345 105.613 80.4815 105.667 80.2835 105.667H78.9065ZM80.9315 95.785H85.3865C86.7365 95.785 87.7445 95.506 88.4105 94.948C89.0765 94.372 89.4095 93.526 89.4095 92.41C89.4095 91.312 89.0765 90.475 88.4105 89.899C87.7625 89.323 86.7545 89.035 85.3865 89.035H80.9315V95.785ZM101.085 105.937C99.2127 105.937 97.7277 105.37 96.6297 104.236C95.5317 103.084 94.9287 101.518 94.8207 99.538C94.8027 99.304 94.7937 99.007 94.7937 98.647C94.7937 98.269 94.8027 97.963 94.8207 97.729C94.8927 96.451 95.1897 95.335 95.7117 94.381C96.2337 93.409 96.9447 92.662 97.8447 92.14C98.7627 91.618 99.8337 91.357 101.058 91.357C102.426 91.357 103.569 91.645 104.487 92.221C105.423 92.797 106.134 93.616 106.62 94.678C107.106 95.74 107.349 96.982 107.349 98.404V98.863C107.349 99.061 107.286 99.214 107.16 99.322C107.052 99.43 106.908 99.484 106.728 99.484H97.3857C97.3857 99.502 97.3857 99.538 97.3857 99.592C97.3857 99.646 97.3857 99.691 97.3857 99.727C97.4217 100.465 97.5837 101.158 97.8717 101.806C98.1597 102.436 98.5737 102.949 99.1137 103.345C99.6717 103.741 100.32 103.939 101.058 103.939C101.706 103.939 102.246 103.84 102.678 103.642C103.11 103.444 103.461 103.228 103.731 102.994C104.001 102.742 104.181 102.544 104.271 102.4C104.433 102.184 104.559 102.058 104.649 102.022C104.739 101.968 104.883 101.941 105.081 101.941H106.404C106.566 101.941 106.701 101.995 106.809 102.103C106.935 102.193 106.989 102.328 106.971 102.508C106.953 102.778 106.809 103.111 106.539 103.507C106.269 103.885 105.882 104.263 105.378 104.641C104.892 105.019 104.28 105.334 103.542 105.586C102.822 105.82 102.003 105.937 101.085 105.937ZM97.3857 97.621H104.784V97.54C104.784 96.73 104.631 96.01 104.325 95.38C104.037 94.75 103.614 94.255 103.056 93.895C102.498 93.517 101.832 93.328 101.058 93.328C100.284 93.328 99.6177 93.517 99.0597 93.895C98.5197 94.255 98.1057 94.75 97.8177 95.38C97.5297 96.01 97.3857 96.73 97.3857 97.54V97.621ZM115.437 105.937C114.429 105.937 113.565 105.811 112.845 105.559C112.125 105.307 111.54 105.001 111.09 104.641C110.64 104.281 110.298 103.921 110.064 103.561C109.848 103.201 109.731 102.913 109.713 102.697C109.695 102.499 109.758 102.346 109.902 102.238C110.046 102.13 110.19 102.076 110.334 102.076H111.549C111.639 102.076 111.711 102.094 111.765 102.13C111.837 102.148 111.927 102.22 112.035 102.346C112.269 102.598 112.53 102.85 112.818 103.102C113.106 103.354 113.457 103.561 113.871 103.723C114.303 103.885 114.834 103.966 115.464 103.966C116.382 103.966 117.138 103.795 117.732 103.453C118.326 103.093 118.623 102.571 118.623 101.887C118.623 101.437 118.497 101.077 118.245 100.807C118.011 100.537 117.579 100.294 116.949 100.078C116.337 99.862 115.491 99.637 114.411 99.403C113.331 99.151 112.476 98.845 111.846 98.485C111.216 98.107 110.766 97.666 110.496 97.162C110.226 96.64 110.091 96.055 110.091 95.407C110.091 94.741 110.289 94.102 110.685 93.49C111.081 92.86 111.657 92.347 112.413 91.951C113.187 91.555 114.15 91.357 115.302 91.357C116.238 91.357 117.039 91.474 117.705 91.708C118.371 91.942 118.92 92.239 119.352 92.599C119.784 92.941 120.108 93.283 120.324 93.625C120.54 93.967 120.657 94.255 120.675 94.489C120.693 94.669 120.639 94.822 120.513 94.948C120.387 95.056 120.243 95.11 120.081 95.11H118.947C118.821 95.11 118.713 95.083 118.623 95.029C118.551 94.975 118.479 94.912 118.407 94.84C118.227 94.606 118.011 94.372 117.759 94.138C117.525 93.904 117.21 93.715 116.814 93.571C116.436 93.409 115.932 93.328 115.302 93.328C114.402 93.328 113.727 93.517 113.277 93.895C112.827 94.273 112.602 94.75 112.602 95.326C112.602 95.668 112.701 95.974 112.899 96.244C113.097 96.514 113.475 96.757 114.033 96.973C114.591 97.189 115.419 97.423 116.517 97.675C117.705 97.909 118.641 98.224 119.325 98.62C120.009 99.016 120.495 99.475 120.783 99.997C121.071 100.519 121.215 101.122 121.215 101.806C121.215 102.562 120.999 103.255 120.567 103.885C120.135 104.515 119.487 105.019 118.623 105.397C117.759 105.757 116.697 105.937 115.437 105.937ZM129.957 105.937C128.085 105.937 126.6 105.37 125.502 104.236C124.404 103.084 123.801 101.518 123.693 99.538C123.675 99.304 123.666 99.007 123.666 98.647C123.666 98.269 123.675 97.963 123.693 97.729C123.765 96.451 124.062 95.335 124.584 94.381C125.106 93.409 125.817 92.662 126.717 92.14C127.635 91.618 128.706 91.357 129.93 91.357C131.298 91.357 132.441 91.645 133.359 92.221C134.295 92.797 135.006 93.616 135.492 94.678C135.978 95.74 136.221 96.982 136.221 98.404V98.863C136.221 99.061 136.158 99.214 136.032 99.322C135.924 99.43 135.78 99.484 135.6 99.484H126.258C126.258 99.502 126.258 99.538 126.258 99.592C126.258 99.646 126.258 99.691 126.258 99.727C126.294 100.465 126.456 101.158 126.744 101.806C127.032 102.436 127.446 102.949 127.986 103.345C128.544 103.741 129.192 103.939 129.93 103.939C130.578 103.939 131.118 103.84 131.55 103.642C131.982 103.444 132.333 103.228 132.603 102.994C132.873 102.742 133.053 102.544 133.143 102.4C133.305 102.184 133.431 102.058 133.521 102.022C133.611 101.968 133.755 101.941 133.953 101.941H135.276C135.438 101.941 135.573 101.995 135.681 102.103C135.807 102.193 135.861 102.328 135.843 102.508C135.825 102.778 135.681 103.111 135.411 103.507C135.141 103.885 134.754 104.263 134.25 104.641C133.764 105.019 133.152 105.334 132.414 105.586C131.694 105.82 130.875 105.937 129.957 105.937ZM126.258 97.621H133.656V97.54C133.656 96.73 133.503 96.01 133.197 95.38C132.909 94.75 132.486 94.255 131.928 93.895C131.37 93.517 130.704 93.328 129.93 93.328C129.156 93.328 128.49 93.517 127.932 93.895C127.392 94.255 126.978 94.75 126.69 95.38C126.402 96.01 126.258 96.73 126.258 97.54V97.621ZM144.851 105.667C143.843 105.667 143.024 105.478 142.394 105.1C141.764 104.704 141.305 104.155 141.017 103.453C140.729 102.733 140.585 101.887 140.585 100.915V93.787H138.479C138.299 93.787 138.146 93.733 138.02 93.625C137.912 93.499 137.858 93.346 137.858 93.166V92.248C137.858 92.068 137.912 91.924 138.02 91.816C138.146 91.69 138.299 91.627 138.479 91.627H140.585V87.118C140.585 86.938 140.639 86.794 140.747 86.686C140.873 86.56 141.026 86.497 141.206 86.497H142.475C142.655 86.497 142.799 86.56 142.907 86.686C143.033 86.794 143.096 86.938 143.096 87.118V91.627H146.444C146.642 91.627 146.795 91.69 146.903 91.816C147.011 91.924 147.065 92.068 147.065 92.248V93.166C147.065 93.346 147.011 93.499 146.903 93.625C146.795 93.733 146.642 93.787 146.444 93.787H143.096V100.726C143.096 101.572 143.24 102.238 143.528 102.724C143.816 103.21 144.329 103.453 145.067 103.453H146.714C146.894 103.453 147.038 103.516 147.146 103.642C147.272 103.75 147.335 103.894 147.335 104.074V105.046C147.335 105.226 147.272 105.379 147.146 105.505C147.038 105.613 146.894 105.667 146.714 105.667H144.851ZM78.9065 137.667C78.7085 137.667 78.5555 137.613 78.4475 137.505C78.3395 137.379 78.2855 137.226 78.2855 137.046V119.415C78.2855 119.217 78.3395 119.064 78.4475 118.956C78.5555 118.83 78.7085 118.767 78.9065 118.767H85.7645C87.0965 118.767 88.2485 118.983 89.2205 119.415C90.2105 119.847 90.9755 120.495 91.5155 121.359C92.0555 122.205 92.3255 123.267 92.3255 124.545C92.3255 125.823 92.0555 126.885 91.5155 127.731C90.9755 128.577 90.2105 129.216 89.2205 129.648C88.2485 130.08 87.0965 130.296 85.7645 130.296H80.9855V137.046C80.9855 137.226 80.9225 137.379 80.7965 137.505C80.6885 137.613 80.5355 137.667 80.3375 137.667H78.9065ZM80.9585 128.028H85.6295C86.9615 128.028 87.9605 127.731 88.6265 127.137C89.2925 126.543 89.6255 125.679 89.6255 124.545C89.6255 123.429 89.3015 122.565 88.6535 121.953C88.0055 121.341 86.9975 121.035 85.6295 121.035H80.9585V128.028ZM98.9091 137.937C98.0091 137.937 97.1901 137.757 96.4521 137.397C95.7141 137.037 95.1201 136.551 94.6701 135.939C94.2201 135.327 93.9951 134.634 93.9951 133.86C93.9951 132.618 94.4991 131.628 95.5071 130.89C96.5151 130.152 97.8291 129.666 99.4491 129.432L103.472 128.865V128.082C103.472 127.218 103.22 126.543 102.716 126.057C102.23 125.571 101.429 125.328 100.313 125.328C99.5211 125.328 98.8731 125.49 98.3691 125.814C97.8651 126.138 97.5141 126.552 97.3161 127.056C97.2081 127.326 97.0191 127.461 96.7491 127.461H95.5341C95.3361 127.461 95.1831 127.407 95.0751 127.299C94.9851 127.173 94.9401 127.029 94.9401 126.867C94.9401 126.597 95.0391 126.264 95.2371 125.868C95.4531 125.472 95.7771 125.085 96.2091 124.707C96.6411 124.329 97.1901 124.014 97.8561 123.762C98.5401 123.492 99.3681 123.357 100.34 123.357C101.42 123.357 102.329 123.501 103.067 123.789C103.805 124.059 104.381 124.428 104.795 124.896C105.227 125.364 105.533 125.895 105.713 126.489C105.911 127.083 106.01 127.686 106.01 128.298V137.046C106.01 137.226 105.947 137.379 105.821 137.505C105.713 137.613 105.569 137.667 105.389 137.667H104.147C103.949 137.667 103.796 137.613 103.688 137.505C103.58 137.379 103.526 137.226 103.526 137.046V135.885C103.292 136.209 102.977 136.533 102.581 136.857C102.185 137.163 101.69 137.424 101.096 137.64C100.502 137.838 99.7731 137.937 98.9091 137.937ZM99.4761 135.912C100.214 135.912 100.889 135.759 101.501 135.453C102.113 135.129 102.59 134.634 102.932 133.968C103.292 133.302 103.472 132.465 103.472 131.457V130.701L100.34 131.16C99.0621 131.34 98.0991 131.646 97.4511 132.078C96.8031 132.492 96.4791 133.023 96.4791 133.671C96.4791 134.175 96.6231 134.598 96.9111 134.94C97.2171 135.264 97.5951 135.507 98.0451 135.669C98.5131 135.831 98.9901 135.912 99.4761 135.912ZM114.752 137.937C113.744 137.937 112.88 137.811 112.16 137.559C111.44 137.307 110.855 137.001 110.405 136.641C109.955 136.281 109.613 135.921 109.379 135.561C109.163 135.201 109.046 134.913 109.028 134.697C109.01 134.499 109.073 134.346 109.217 134.238C109.361 134.13 109.505 134.076 109.649 134.076H110.864C110.954 134.076 111.026 134.094 111.08 134.13C111.152 134.148 111.242 134.22 111.35 134.346C111.584 134.598 111.845 134.85 112.133 135.102C112.421 135.354 112.772 135.561 113.186 135.723C113.618 135.885 114.149 135.966 114.779 135.966C115.697 135.966 116.453 135.795 117.047 135.453C117.641 135.093 117.938 134.571 117.938 133.887C117.938 133.437 117.812 133.077 117.56 132.807C117.326 132.537 116.894 132.294 116.264 132.078C115.652 131.862 114.806 131.637 113.726 131.403C112.646 131.151 111.791 130.845 111.161 130.485C110.531 130.107 110.081 129.666 109.811 129.162C109.541 128.64 109.406 128.055 109.406 127.407C109.406 126.741 109.604 126.102 110 125.49C110.396 124.86 110.972 124.347 111.728 123.951C112.502 123.555 113.465 123.357 114.617 123.357C115.553 123.357 116.354 123.474 117.02 123.708C117.686 123.942 118.235 124.239 118.667 124.599C119.099 124.941 119.423 125.283 119.639 125.625C119.855 125.967 119.972 126.255 119.99 126.489C120.008 126.669 119.954 126.822 119.828 126.948C119.702 127.056 119.558 127.11 119.396 127.11H118.262C118.136 127.11 118.028 127.083 117.938 127.029C117.866 126.975 117.794 126.912 117.722 126.84C117.542 126.606 117.326 126.372 117.074 126.138C116.84 125.904 116.525 125.715 116.129 125.571C115.751 125.409 115.247 125.328 114.617 125.328C113.717 125.328 113.042 125.517 112.592 125.895C112.142 126.273 111.917 126.75 111.917 127.326C111.917 127.668 112.016 127.974 112.214 128.244C112.412 128.514 112.79 128.757 113.348 128.973C113.906 129.189 114.734 129.423 115.832 129.675C117.02 129.909 117.956 130.224 118.64 130.62C119.324 131.016 119.81 131.475 120.098 131.997C120.386 132.519 120.53 133.122 120.53 133.806C120.53 134.562 120.314 135.255 119.882 135.885C119.45 136.515 118.802 137.019 117.938 137.397C117.074 137.757 116.012 137.937 114.752 137.937ZM128.515 137.937C127.507 137.937 126.643 137.811 125.923 137.559C125.203 137.307 124.618 137.001 124.168 136.641C123.718 136.281 123.376 135.921 123.142 135.561C122.926 135.201 122.809 134.913 122.791 134.697C122.773 134.499 122.836 134.346 122.98 134.238C123.124 134.13 123.268 134.076 123.412 134.076H124.627C124.717 134.076 124.789 134.094 124.843 134.13C124.915 134.148 125.005 134.22 125.113 134.346C125.347 134.598 125.608 134.85 125.896 135.102C126.184 135.354 126.535 135.561 126.949 135.723C127.381 135.885 127.912 135.966 128.542 135.966C129.46 135.966 130.216 135.795 130.81 135.453C131.404 135.093 131.701 134.571 131.701 133.887C131.701 133.437 131.575 133.077 131.323 132.807C131.089 132.537 130.657 132.294 130.027 132.078C129.415 131.862 128.569 131.637 127.489 131.403C126.409 131.151 125.554 130.845 124.924 130.485C124.294 130.107 123.844 129.666 123.574 129.162C123.304 128.64 123.169 128.055 123.169 127.407C123.169 126.741 123.367 126.102 123.763 125.49C124.159 124.86 124.735 124.347 125.491 123.951C126.265 123.555 127.228 123.357 128.38 123.357C129.316 123.357 130.117 123.474 130.783 123.708C131.449 123.942 131.998 124.239 132.43 124.599C132.862 124.941 133.186 125.283 133.402 125.625C133.618 125.967 133.735 126.255 133.753 126.489C133.771 126.669 133.717 126.822 133.591 126.948C133.465 127.056 133.321 127.11 133.159 127.11H132.025C131.899 127.11 131.791 127.083 131.701 127.029C131.629 126.975 131.557 126.912 131.485 126.84C131.305 126.606 131.089 126.372 130.837 126.138C130.603 125.904 130.288 125.715 129.892 125.571C129.514 125.409 129.01 125.328 128.38 125.328C127.48 125.328 126.805 125.517 126.355 125.895C125.905 126.273 125.68 126.75 125.68 127.326C125.68 127.668 125.779 127.974 125.977 128.244C126.175 128.514 126.553 128.757 127.111 128.973C127.669 129.189 128.497 129.423 129.595 129.675C130.783 129.909 131.719 130.224 132.403 130.62C133.087 131.016 133.573 131.475 133.861 131.997C134.149 132.519 134.293 133.122 134.293 133.806C134.293 134.562 134.077 135.255 133.645 135.885C133.213 136.515 132.565 137.019 131.701 137.397C130.837 137.757 129.775 137.937 128.515 137.937ZM140.776 137.667C140.542 137.667 140.362 137.613 140.236 137.505C140.11 137.379 140.002 137.208 139.912 136.992L136.078 124.464C136.042 124.374 136.024 124.284 136.024 124.194C136.024 124.032 136.078 123.897 136.186 123.789C136.312 123.681 136.447 123.627 136.591 123.627H137.779C137.977 123.627 138.13 123.681 138.238 123.789C138.346 123.897 138.418 123.996 138.454 124.086L141.451 134.265L144.664 124.194C144.7 124.068 144.772 123.942 144.88 123.816C145.006 123.69 145.186 123.627 145.42 123.627H146.338C146.572 123.627 146.752 123.69 146.878 123.816C147.004 123.942 147.076 124.068 147.094 124.194L150.307 134.265L153.304 124.086C153.322 123.996 153.385 123.897 153.493 123.789C153.601 123.681 153.754 123.627 153.952 123.627H155.167C155.311 123.627 155.437 123.681 155.545 123.789C155.653 123.897 155.707 124.032 155.707 124.194C155.707 124.284 155.689 124.374 155.653 124.464L151.846 136.992C151.774 137.208 151.675 137.379 151.549 137.505C151.423 137.613 151.225 137.667 150.955 137.667H149.902C149.668 137.667 149.47 137.613 149.308 137.505C149.164 137.379 149.065 137.208 149.011 136.992L145.879 127.326L142.747 136.992C142.675 137.208 142.567 137.379 142.423 137.505C142.279 137.613 142.081 137.667 141.829 137.667H140.776ZM164.079 137.937C162.711 137.937 161.568 137.676 160.65 137.154C159.732 136.632 159.03 135.912 158.544 134.994C158.058 134.058 157.788 132.996 157.734 131.808C157.716 131.502 157.707 131.115 157.707 130.647C157.707 130.161 157.716 129.774 157.734 129.486C157.788 128.28 158.058 127.218 158.544 126.3C159.048 125.382 159.759 124.662 160.677 124.14C161.595 123.618 162.729 123.357 164.079 123.357C165.429 123.357 166.563 123.618 167.481 124.14C168.399 124.662 169.101 125.382 169.587 126.3C170.091 127.218 170.37 128.28 170.424 129.486C170.442 129.774 170.451 130.161 170.451 130.647C170.451 131.115 170.442 131.502 170.424 131.808C170.37 132.996 170.1 134.058 169.614 134.994C169.128 135.912 168.426 136.632 167.508 137.154C166.59 137.676 165.447 137.937 164.079 137.937ZM164.079 135.858C165.195 135.858 166.086 135.507 166.752 134.805C167.418 134.085 167.778 133.041 167.832 131.673C167.85 131.403 167.859 131.061 167.859 130.647C167.859 130.233 167.85 129.891 167.832 129.621C167.778 128.253 167.418 127.218 166.752 126.516C166.086 125.796 165.195 125.436 164.079 125.436C162.963 125.436 162.063 125.796 161.379 126.516C160.713 127.218 160.362 128.253 160.326 129.621C160.308 129.891 160.299 130.233 160.299 130.647C160.299 131.061 160.308 131.403 160.326 131.673C160.362 133.041 160.713 134.085 161.379 134.805C162.063 135.507 162.963 135.858 164.079 135.858ZM174.453 137.667C174.273 137.667 174.12 137.613 173.994 137.505C173.886 137.379 173.832 137.226 173.832 137.046V124.275C173.832 124.095 173.886 123.942 173.994 123.816C174.12 123.69 174.273 123.627 174.453 123.627H175.695C175.875 123.627 176.028 123.69 176.154 123.816C176.28 123.942 176.343 124.095 176.343 124.275V125.463C176.703 124.851 177.198 124.392 177.828 124.086C178.458 123.78 179.223 123.627 180.123 123.627H181.176C181.356 123.627 181.5 123.69 181.608 123.816C181.734 123.924 181.797 124.068 181.797 124.248V125.355C181.797 125.535 181.734 125.679 181.608 125.787C181.5 125.895 181.356 125.949 181.176 125.949H179.556C178.584 125.949 177.819 126.237 177.261 126.813C176.703 127.371 176.424 128.136 176.424 129.108V137.046C176.424 137.226 176.361 137.379 176.235 137.505C176.109 137.613 175.956 137.667 175.776 137.667H174.453ZM188.929 137.937C187.939 137.937 187.084 137.766 186.364 137.424C185.644 137.064 185.05 136.587 184.582 135.993C184.132 135.381 183.79 134.688 183.556 133.914C183.34 133.14 183.214 132.321 183.178 131.457C183.16 131.169 183.151 130.899 183.151 130.647C183.151 130.395 183.16 130.125 183.178 129.837C183.214 128.991 183.34 128.181 183.556 127.407C183.79 126.633 184.132 125.94 184.582 125.328C185.05 124.716 185.644 124.239 186.364 123.897C187.084 123.537 187.939 123.357 188.929 123.357C189.991 123.357 190.873 123.546 191.575 123.924C192.277 124.302 192.853 124.77 193.303 125.328V119.118C193.303 118.938 193.357 118.794 193.465 118.686C193.591 118.56 193.744 118.497 193.924 118.497H195.22C195.4 118.497 195.544 118.56 195.652 118.686C195.778 118.794 195.841 118.938 195.841 119.118V137.046C195.841 137.226 195.778 137.379 195.652 137.505C195.544 137.613 195.4 137.667 195.22 137.667H194.005C193.807 137.667 193.654 137.613 193.546 137.505C193.438 137.379 193.384 137.226 193.384 137.046V135.912C192.934 136.488 192.349 136.974 191.629 137.37C190.909 137.748 190.009 137.937 188.929 137.937ZM189.496 135.75C190.396 135.75 191.116 135.543 191.656 135.129C192.196 134.715 192.601 134.193 192.871 133.563C193.141 132.915 193.285 132.258 193.303 131.592C193.321 131.304 193.33 130.962 193.33 130.566C193.33 130.152 193.321 129.801 193.303 129.513C193.285 128.883 193.132 128.262 192.844 127.65C192.574 127.038 192.16 126.534 191.602 126.138C191.062 125.742 190.36 125.544 189.496 125.544C188.578 125.544 187.849 125.751 187.309 126.165C186.769 126.561 186.382 127.092 186.148 127.758C185.914 128.406 185.779 129.108 185.743 129.864C185.725 130.386 185.725 130.908 185.743 131.43C185.779 132.186 185.914 132.897 186.148 133.563C186.382 134.211 186.769 134.742 187.309 135.156C187.849 135.552 188.578 135.75 189.496 135.75Z" fill="white"/>
<path d="M476.419 108.319C472.083 105.799 466.107 106.147 459.461 109.96C446.316 117.532 435.692 135.948 435.737 151.036C435.737 158.562 438.396 163.833 442.686 166.354L435.252 162.018C430.962 159.543 428.303 154.226 428.257 146.746C428.212 131.603 438.882 113.233 451.981 105.67C458.617 101.82 464.64 101.463 468.976 103.984L476.41 108.319H476.419Z" fill="#62BB6C"/>
<path d="M459.452 109.979C472.624 102.37 483.312 108.429 483.358 123.564C483.404 138.661 472.78 157.095 459.607 164.694C446.49 172.266 435.774 166.161 435.737 151.054C435.692 135.92 446.343 117.541 459.461 109.969L459.452 109.979Z" fill="#ADD9B4"/>
<path d="M448.956 163.521C440.825 163.521 440.165 153.969 440.156 151.045C440.119 137.616 449.964 120.557 461.661 113.81C464.704 112.05 467.647 111.124 470.167 111.124C478.042 111.124 478.913 119.832 478.922 123.582C478.958 137.029 469.095 154.107 457.389 160.872C454.383 162.613 451.458 163.53 448.956 163.53V163.521Z" fill="#31AA4A"/>
<path d="M461.725 122.968C467.94 119.292 473.018 122.253 473.037 129.568C473.055 136.874 468.013 145.811 461.798 149.487C459.461 150.871 457.206 151.357 455.299 150.908C453.429 150.459 452.018 149.157 451.211 147.122C450.945 146.444 451.303 145.307 452.008 144.574C452.164 144.409 452.329 144.28 452.485 144.189C453.035 143.859 453.558 143.95 453.768 144.473C455.024 147.635 458.242 148.35 461.78 146.26C466.492 143.483 470.305 136.709 470.287 131.172C470.268 125.635 466.428 123.399 461.725 126.176C458.929 127.826 456.344 130.961 454.758 134.555L456.702 134.28C457.114 134.225 457.188 134.83 456.821 135.343L451.908 142.291C451.807 142.429 451.706 142.53 451.596 142.594C451.358 142.74 451.119 142.685 451.055 142.41L449.662 136.351C449.579 135.975 449.854 135.435 450.193 135.242C450.258 135.205 450.322 135.178 450.395 135.169L452.137 134.921C454.172 129.806 457.783 125.287 461.716 122.959L461.725 122.968Z" fill="white"/>
</svg>
