<svg width="550" height="223" viewBox="0 0 550 223" fill="none" xmlns="http://www.w3.org/2000/svg">
<path d="M68.75 178.884L481.25 178.884C519.22 178.884 550 148.103 550 110.134C550 72.1642 519.22 41.3838 481.25 41.3838L68.75 41.3838C30.7804 41.3838 0 72.1642 0 110.134C0 148.103 30.7804 178.884 68.75 178.884Z" fill="#3E8FF8"/>
<path d="M481.25 41.3838H146.85C108.881 41.3838 78.1001 72.1642 78.1001 110.134C78.1001 148.103 108.881 178.884 146.85 178.884H481.25C519.22 178.884 550 148.103 550 110.134C550 72.1642 519.22 41.3838 481.25 41.3838Z" fill="#3E8FF8" fill-opacity="0.5" style="mix-blend-mode:multiply"/>
<path d="M225.894 178.884L481.25 178.884C519.22 178.884 550 148.103 550 110.134C550 72.1642 519.22 41.3838 481.25 41.3838L225.894 41.3838C187.925 41.3838 157.144 72.1642 157.144 110.134C157.144 148.103 187.925 178.884 225.894 178.884Z" fill="#3E8FF8" fill-opacity="0.5" style="mix-blend-mode:multiply"/>
<path d="M304.462 178.884L481.25 178.884C519.22 178.884 550 148.103 550 110.134C550 72.1642 519.22 41.3838 481.25 41.3838L304.462 41.3838C266.492 41.3838 235.712 72.1642 235.712 110.134C235.712 148.103 266.492 178.884 304.462 178.884Z" fill="#3E8FF8" fill-opacity="0.5" style="mix-blend-mode:multiply"/>
<path d="M356.583 124.681L449.295 71.1481L417.156 52.5947L326.104 105.166C325.361 105.587 325.361 106.66 326.104 107.081L356.583 124.681Z" fill="#75A8D2"/>
<path d="M356.583 219.015V126.441C356.583 125.314 355.978 124.269 355.006 123.71L329.184 108.805C327.076 107.585 324.445 109.107 324.445 111.536V204.11C324.445 205.238 325.05 206.283 326.021 206.842L351.844 221.747C353.952 222.966 356.583 221.445 356.583 219.015Z" fill="#0C3B5E"/>
<path d="M356.583 218.951L447.727 167.352V71.084L356.583 122.683V218.951Z" fill="#0E5A8B"/>
<path d="M443.528 117.843L438.267 114.791C435.929 113.434 432.703 113.618 429.146 115.671L434.408 118.723C437.964 116.67 441.191 116.487 443.528 117.843Z" fill="#A1C5E1"/>
<path d="M434.408 118.723L429.146 115.671L351.275 160.633L356.528 163.686L434.399 118.723H434.408Z" fill="#A1C5E1"/>
<path d="M342.164 191.205L347.425 194.257C345.106 192.91 343.676 190.05 343.667 185.97C343.64 177.812 349.387 167.811 356.528 163.686L351.266 160.634C344.125 164.759 338.378 174.76 338.405 182.918C338.415 186.997 339.854 189.857 342.164 191.205Z" fill="#A1C5E1"/>
<path d="M356.528 163.686C349.387 167.811 343.64 177.812 343.667 185.97C343.695 194.184 349.47 197.475 356.62 193.35L434.49 148.387C441.585 144.29 447.333 134.344 447.305 126.13C447.278 117.972 441.503 114.626 434.408 118.724L356.537 163.686H356.528Z" fill="#0C3B5E"/>
<path d="M419.686 142.08C419.686 145.05 421.776 146.26 424.352 144.775C426.928 143.29 429.018 139.669 429.018 136.699C429.018 133.729 426.928 132.519 424.352 134.004C421.776 135.489 419.686 139.11 419.686 142.08Z" fill="#A1C5E1"/>
<path d="M400.445 153.19C400.445 156.16 402.535 157.37 405.111 155.885C407.687 154.4 409.777 150.779 409.777 147.809C409.777 144.839 407.687 143.629 405.111 145.114C402.535 146.599 400.445 150.22 400.445 153.19Z" fill="#A1C5E1"/>
<path d="M381.195 164.3C381.195 167.28 383.285 168.48 385.861 166.995C388.437 165.51 390.527 161.89 390.527 158.92C390.527 155.95 388.437 154.74 385.861 156.225C383.285 157.71 381.195 161.33 381.195 164.3Z" fill="#A1C5E1"/>
<path d="M361.955 175.41C361.955 178.389 364.045 179.59 366.62 178.105C369.196 176.62 371.286 172.999 371.286 170.029C371.286 167.059 369.196 165.849 366.62 167.334C364.045 168.819 361.955 172.44 361.955 175.41Z" fill="#A1C5E1"/>
<path d="M352.467 87.2722C356.666 87.2722 360.057 83.8714 360.057 79.6822V65.2905C360.057 48.3505 372.46 26.8822 387.127 18.4122C392.837 15.1122 398.016 14.333 401.353 16.2489C404.681 18.1739 406.596 23.0597 406.596 29.6597V71.6064C406.596 75.8047 409.988 79.1964 414.186 79.1964C418.385 79.1964 421.776 75.7955 421.776 71.6064V29.6597C421.776 17.3122 417.221 7.8797 408.943 3.10386C400.675 -1.68114 390.216 -0.911136 379.527 5.25803C360.094 16.4872 344.868 42.8505 344.868 65.2905V79.6822C344.868 83.8805 348.269 87.2722 352.458 87.2722H352.467Z" fill="#A1C5E1"/>
<path d="M358.49 123.7L444.959 73.8794C447.37 72.4861 447.37 69.0119 444.959 67.6186L419.714 53.0711C418.596 52.4294 417.211 52.4294 416.093 53.0711L326.434 104.725C325.435 105.303 325.435 106.733 326.434 107.31L354.86 123.691C355.978 124.333 357.362 124.333 358.481 123.691L358.49 123.7Z" fill="#0C3B5E"/>
<path d="M356.345 218.979V123.435C356.345 122.271 355.74 121.198 354.768 120.611L328.946 105.221C326.837 103.965 324.207 105.532 324.207 108.044V203.588C324.207 204.752 324.812 205.825 325.783 206.411L351.606 221.802C353.714 223.058 356.345 221.491 356.345 218.979Z" fill="#0C3B5E"/>
<path d="M356.483 221.71L447.718 168.259V70.6986C447.718 69.6811 446.609 69.0395 445.729 69.562L356.336 121.922V221.628C356.336 221.701 356.409 221.747 356.473 221.71H356.483Z" fill="#80C8E7"/>
<path d="M459.446 109.134L454.862 105.87C452.524 104.513 449.297 104.697 445.741 106.75L451.002 109.802C454.559 107.749 457.109 107.777 459.446 109.134Z" fill="#CFE0ED"/>
<path d="M450.446 109.555L445.946 106.634L363.861 153.713L369.113 156.765L446.85 111.634L450.446 109.555Z" fill="#CFE0ED"/>
<path d="M354.758 184.274L360.02 187.326C357.701 185.979 356.271 183.119 356.262 179.04C356.234 170.881 361.982 160.881 369.123 156.756L363.861 153.703C356.72 157.828 350.973 167.829 351 175.987C351.009 180.066 352.448 182.926 354.758 184.274Z" fill="#CFE0ED"/>
<path d="M369.123 156.847C361.982 160.972 356.234 170.973 356.262 179.131C356.289 187.345 362.064 190.636 369.214 186.511L450.085 139.548C457.18 135.451 462.928 125.505 462.9 117.291C462.873 109.133 457.098 105.787 450.003 109.885L369.132 156.847H369.123Z" fill="#0E5A8B"/>
<path d="M432.272 136.241C432.272 139.211 434.362 140.421 436.938 138.936C439.514 137.451 441.604 133.83 441.604 130.86C441.604 127.89 439.514 126.68 436.938 128.165C434.362 129.65 432.272 133.271 432.272 136.241Z" fill="#CFE0ED"/>
<path d="M413.031 146.26C413.031 149.23 415.121 150.44 417.697 148.955C420.272 147.47 422.362 143.85 422.362 140.88C422.362 137.91 420.272 136.7 417.697 138.185C415.121 139.67 413.031 143.29 413.031 146.26Z" fill="#CFE0ED"/>
<path d="M393.79 157.37C393.79 160.349 395.88 161.55 398.456 160.065C401.032 158.58 403.122 154.959 403.122 151.989C403.122 149.019 401.032 147.809 398.456 149.294C395.88 150.779 393.79 154.4 393.79 157.37Z" fill="#CFE0ED"/>
<path d="M374.549 168.48C374.549 171.459 376.639 172.66 379.215 171.175C381.791 169.69 383.881 166.069 383.881 163.099C383.881 160.129 381.791 158.919 379.215 160.404C376.639 161.889 374.549 165.51 374.549 168.48Z" fill="#CFE0ED"/>
<path d="M421.822 53.7492C393.076 71.8717 364.329 90.0034 335.582 108.126C331.861 110.729 329.963 114.937 329.963 119.786L328.937 205.265C328.533 206.365 328.735 207.566 329.477 208.382C330.229 209.207 331.228 209.308 331.476 209.317C329.102 208.134 326.727 206.943 324.353 205.76C323.171 204.944 322.456 203.221 322.428 200.801L322.227 115.23C322.227 109.822 325.591 103.946 328.79 101.792C357.463 84.4484 386.127 67.1051 414.801 49.7617C417.138 51.0909 419.485 52.4109 421.822 53.7401V53.7492Z" fill="#0C3B5E"/>
<path d="M352.238 87.3269C356.437 87.3269 359.828 83.926 359.828 79.7369V65.3452C359.828 48.4052 372.231 26.9369 386.897 18.4669C392.608 15.1669 397.787 14.3877 401.124 16.3035C404.452 18.2285 406.367 23.1144 406.367 29.7144V71.661C406.367 75.8594 409.759 79.251 413.957 79.251C418.156 79.251 421.547 75.8502 421.547 71.661V29.7144C421.547 17.3669 416.992 7.93438 408.714 3.15855C400.446 -1.62645 389.987 -0.856449 379.298 5.31272C359.865 16.5419 344.639 42.9052 344.639 65.3452V79.7369C344.639 83.9352 348.04 87.3269 352.229 87.3269H352.238Z" fill="#CFE0ED"/>
<path d="M84.3605 105.937C82.7945 105.937 81.4805 105.703 80.4185 105.235C79.3565 104.749 78.5375 104.128 77.9615 103.372C77.4035 102.598 77.1065 101.779 77.0705 100.915C77.0705 100.771 77.1245 100.645 77.2325 100.537C77.3585 100.411 77.5025 100.348 77.6645 100.348H79.0415C79.2575 100.348 79.4195 100.402 79.5275 100.51C79.6355 100.618 79.7075 100.744 79.7435 100.888C79.8335 101.32 80.0495 101.752 80.3915 102.184C80.7515 102.598 81.2465 102.949 81.8765 103.237C82.5245 103.507 83.3525 103.642 84.3605 103.642C85.9085 103.642 87.0425 103.372 87.7625 102.832C88.5005 102.274 88.8695 101.536 88.8695 100.618C88.8695 99.988 88.6715 99.484 88.2755 99.106C87.8975 98.71 87.3125 98.359 86.5205 98.053C85.7285 97.747 84.7025 97.414 83.4425 97.054C82.1285 96.676 81.0395 96.262 80.1755 95.812C79.3115 95.362 78.6635 94.804 78.2315 94.138C77.8175 93.472 77.6105 92.626 77.6105 91.6C77.6105 90.628 77.8715 89.764 78.3935 89.008C78.9155 88.234 79.6625 87.622 80.6345 87.172C81.6245 86.722 82.8215 86.497 84.2255 86.497C85.3415 86.497 86.3135 86.65 87.1415 86.956C87.9875 87.244 88.6895 87.64 89.2475 88.144C89.8055 88.63 90.2285 89.161 90.5165 89.737C90.8045 90.295 90.9575 90.844 90.9755 91.384C90.9755 91.51 90.9305 91.636 90.8405 91.762C90.7505 91.87 90.6065 91.924 90.4085 91.924H88.9775C88.8515 91.924 88.7165 91.888 88.5725 91.816C88.4465 91.744 88.3475 91.609 88.2755 91.411C88.1675 90.673 87.7535 90.052 87.0335 89.548C86.3135 89.044 85.3775 88.792 84.2255 88.792C83.0555 88.792 82.1015 89.017 81.3635 89.467C80.6435 89.917 80.2835 90.619 80.2835 91.573C80.2835 92.185 80.4545 92.698 80.7965 93.112C81.1385 93.508 81.6785 93.859 82.4165 94.165C83.1545 94.471 84.1175 94.795 85.3055 95.137C86.7455 95.533 87.9245 95.956 88.8425 96.406C89.7605 96.838 90.4355 97.387 90.8675 98.053C91.3175 98.701 91.5425 99.538 91.5425 100.564C91.5425 101.698 91.2455 102.67 90.6515 103.48C90.0575 104.272 89.2205 104.884 88.1405 105.316C87.0785 105.73 85.8185 105.937 84.3605 105.937ZM100.319 105.937C98.4654 105.937 96.9894 105.37 95.8914 104.236C94.7934 103.084 94.1904 101.518 94.0824 99.538C94.0644 99.304 94.0554 99.007 94.0554 98.647C94.0554 98.269 94.0644 97.963 94.0824 97.729C94.1544 96.451 94.4514 95.335 94.9734 94.381C95.4954 93.409 96.2064 92.662 97.1064 92.14C98.0244 91.618 99.0954 91.357 100.319 91.357C101.687 91.357 102.83 91.645 103.748 92.221C104.684 92.797 105.395 93.616 105.881 94.678C106.367 95.74 106.61 96.982 106.61 98.404V98.863C106.61 99.061 106.547 99.214 106.421 99.322C106.313 99.43 106.169 99.484 105.989 99.484H96.6474C96.6474 99.502 96.6474 99.538 96.6474 99.592C96.6474 99.646 96.6474 99.691 96.6474 99.727C96.6834 100.465 96.8454 101.158 97.1334 101.806C97.4214 102.436 97.8354 102.949 98.3754 103.345C98.9154 103.741 99.5634 103.939 100.319 103.939C100.967 103.939 101.507 103.84 101.939 103.642C102.371 103.444 102.722 103.228 102.992 102.994C103.262 102.742 103.442 102.553 103.532 102.427C103.694 102.193 103.82 102.058 103.91 102.022C104 101.968 104.144 101.941 104.342 101.941H105.638C105.818 101.941 105.962 101.995 106.07 102.103C106.196 102.193 106.25 102.328 106.232 102.508C106.214 102.778 106.07 103.111 105.8 103.507C105.53 103.885 105.143 104.263 104.639 104.641C104.135 105.019 103.523 105.334 102.803 105.586C102.083 105.82 101.255 105.937 100.319 105.937ZM96.6474 97.621H104.045V97.54C104.045 96.73 103.892 96.01 103.586 95.38C103.298 94.75 102.875 94.255 102.317 93.895C101.759 93.517 101.093 93.328 100.319 93.328C99.5454 93.328 98.8794 93.517 98.3214 93.895C97.7814 94.255 97.3674 94.75 97.0794 95.38C96.7914 96.01 96.6474 96.73 96.6474 97.54V97.621ZM115.241 105.667C114.233 105.667 113.414 105.478 112.784 105.1C112.154 104.704 111.695 104.155 111.407 103.453C111.119 102.733 110.975 101.887 110.975 100.915V93.787H108.869C108.689 93.787 108.536 93.733 108.41 93.625C108.302 93.499 108.248 93.346 108.248 93.166V92.248C108.248 92.068 108.302 91.924 108.41 91.816C108.536 91.69 108.689 91.627 108.869 91.627H110.975V87.118C110.975 86.938 111.029 86.794 111.137 86.686C111.263 86.56 111.416 86.497 111.596 86.497H112.865C113.045 86.497 113.189 86.56 113.297 86.686C113.423 86.794 113.486 86.938 113.486 87.118V91.627H116.834C117.014 91.627 117.158 91.69 117.266 91.816C117.392 91.924 117.455 92.068 117.455 92.248V93.166C117.455 93.346 117.392 93.499 117.266 93.625C117.158 93.733 117.014 93.787 116.834 93.787H113.486V100.726C113.486 101.572 113.63 102.238 113.918 102.724C114.206 103.21 114.719 103.453 115.457 103.453H117.104C117.284 103.453 117.428 103.516 117.536 103.642C117.662 103.75 117.725 103.894 117.725 104.074V105.046C117.725 105.226 117.662 105.379 117.536 105.505C117.428 105.613 117.284 105.667 117.104 105.667H115.241ZM125.545 105.937C124.393 105.937 123.412 105.685 122.602 105.181C121.81 104.659 121.207 103.939 120.793 103.021C120.379 102.103 120.172 101.05 120.172 99.862V92.248C120.172 92.068 120.226 91.924 120.334 91.816C120.46 91.69 120.613 91.627 120.793 91.627H122.143C122.323 91.627 122.467 91.69 122.575 91.816C122.701 91.924 122.764 92.068 122.764 92.248V99.727C122.764 102.409 123.934 103.75 126.274 103.75C127.39 103.75 128.281 103.399 128.947 102.697C129.631 101.977 129.973 100.987 129.973 99.727V92.248C129.973 92.068 130.027 91.924 130.135 91.816C130.261 91.69 130.414 91.627 130.594 91.627H131.917C132.115 91.627 132.268 91.69 132.376 91.816C132.484 91.924 132.538 92.068 132.538 92.248V105.046C132.538 105.226 132.484 105.379 132.376 105.505C132.268 105.613 132.115 105.667 131.917 105.667H130.675C130.495 105.667 130.342 105.613 130.216 105.505C130.108 105.379 130.054 105.226 130.054 105.046V103.858C129.568 104.488 128.974 104.992 128.272 105.37C127.588 105.748 126.679 105.937 125.545 105.937ZM137.197 110.797C137.017 110.797 136.864 110.734 136.738 110.608C136.63 110.5 136.576 110.356 136.576 110.176V92.248C136.576 92.068 136.63 91.924 136.738 91.816C136.864 91.69 137.017 91.627 137.197 91.627H138.439C138.619 91.627 138.763 91.69 138.871 91.816C138.997 91.924 139.06 92.068 139.06 92.248V93.436C139.492 92.842 140.068 92.347 140.788 91.951C141.508 91.555 142.408 91.357 143.488 91.357C144.496 91.357 145.351 91.528 146.053 91.87C146.773 92.212 147.358 92.68 147.808 93.274C148.276 93.868 148.627 94.543 148.861 95.299C149.095 96.055 149.221 96.865 149.239 97.729C149.257 98.017 149.266 98.323 149.266 98.647C149.266 98.971 149.257 99.277 149.239 99.565C149.221 100.411 149.095 101.221 148.861 101.995C148.627 102.751 148.276 103.426 147.808 104.02C147.358 104.596 146.773 105.064 146.053 105.424C145.351 105.766 144.496 105.937 143.488 105.937C142.444 105.937 141.562 105.748 140.842 105.37C140.14 104.974 139.564 104.488 139.114 103.912V110.176C139.114 110.356 139.06 110.5 138.952 110.608C138.844 110.734 138.691 110.797 138.493 110.797H137.197ZM142.921 103.75C143.857 103.75 144.586 103.552 145.108 103.156C145.648 102.742 146.035 102.211 146.269 101.563C146.503 100.897 146.638 100.186 146.674 99.43C146.692 98.908 146.692 98.386 146.674 97.864C146.638 97.108 146.503 96.406 146.269 95.758C146.035 95.092 145.648 94.561 145.108 94.165C144.586 93.751 143.857 93.544 142.921 93.544C142.039 93.544 141.319 93.751 140.761 94.165C140.221 94.579 139.816 95.11 139.546 95.758C139.294 96.388 139.15 97.036 139.114 97.702C139.096 97.99 139.087 98.332 139.087 98.728C139.087 99.124 139.096 99.475 139.114 99.781C139.132 100.411 139.276 101.032 139.546 101.644C139.834 102.256 140.257 102.76 140.815 103.156C141.373 103.552 142.075 103.75 142.921 103.75ZM78.9065 137.667C78.7085 137.667 78.5555 137.613 78.4475 137.505C78.3395 137.379 78.2855 137.226 78.2855 137.046V119.415C78.2855 119.217 78.3395 119.064 78.4475 118.956C78.5555 118.83 78.7085 118.767 78.9065 118.767H85.7645C87.0965 118.767 88.2485 118.983 89.2205 119.415C90.2105 119.847 90.9755 120.495 91.5155 121.359C92.0555 122.205 92.3255 123.267 92.3255 124.545C92.3255 125.823 92.0555 126.885 91.5155 127.731C90.9755 128.577 90.2105 129.216 89.2205 129.648C88.2485 130.08 87.0965 130.296 85.7645 130.296H80.9855V137.046C80.9855 137.226 80.9225 137.379 80.7965 137.505C80.6885 137.613 80.5355 137.667 80.3375 137.667H78.9065ZM80.9585 128.028H85.6295C86.9615 128.028 87.9605 127.731 88.6265 127.137C89.2925 126.543 89.6255 125.679 89.6255 124.545C89.6255 123.429 89.3015 122.565 88.6535 121.953C88.0055 121.341 86.9975 121.035 85.6295 121.035H80.9585V128.028ZM98.9091 137.937C98.0091 137.937 97.1901 137.757 96.4521 137.397C95.7141 137.037 95.1201 136.551 94.6701 135.939C94.2201 135.327 93.9951 134.634 93.9951 133.86C93.9951 132.618 94.4991 131.628 95.5071 130.89C96.5151 130.152 97.8291 129.666 99.4491 129.432L103.472 128.865V128.082C103.472 127.218 103.22 126.543 102.716 126.057C102.23 125.571 101.429 125.328 100.313 125.328C99.5031 125.328 98.8461 125.49 98.3421 125.814C97.8561 126.138 97.5141 126.552 97.3161 127.056C97.2081 127.326 97.0191 127.461 96.7491 127.461H95.5341C95.3361 127.461 95.1831 127.407 95.0751 127.299C94.9851 127.173 94.9401 127.029 94.9401 126.867C94.9401 126.597 95.0391 126.264 95.2371 125.868C95.4531 125.472 95.7771 125.085 96.2091 124.707C96.6411 124.329 97.1901 124.014 97.8561 123.762C98.5401 123.492 99.3681 123.357 100.34 123.357C101.42 123.357 102.329 123.501 103.067 123.789C103.805 124.059 104.381 124.428 104.795 124.896C105.227 125.364 105.533 125.895 105.713 126.489C105.911 127.083 106.01 127.686 106.01 128.298V137.046C106.01 137.226 105.947 137.379 105.821 137.505C105.713 137.613 105.569 137.667 105.389 137.667H104.147C103.949 137.667 103.796 137.613 103.688 137.505C103.58 137.379 103.526 137.226 103.526 137.046V135.885C103.292 136.209 102.977 136.533 102.581 136.857C102.185 137.163 101.69 137.424 101.096 137.64C100.502 137.838 99.7731 137.937 98.9091 137.937ZM99.4761 135.912C100.214 135.912 100.889 135.759 101.501 135.453C102.113 135.129 102.59 134.634 102.932 133.968C103.292 133.302 103.472 132.465 103.472 131.457V130.701L100.34 131.16C99.0621 131.34 98.0991 131.646 97.4511 132.078C96.8031 132.492 96.4791 133.023 96.4791 133.671C96.4791 134.175 96.6231 134.598 96.9111 134.94C97.2171 135.264 97.5951 135.507 98.0451 135.669C98.5131 135.831 98.9901 135.912 99.4761 135.912ZM114.752 137.937C113.744 137.937 112.88 137.811 112.16 137.559C111.44 137.307 110.855 137.001 110.405 136.641C109.955 136.281 109.613 135.921 109.379 135.561C109.163 135.201 109.046 134.913 109.028 134.697C109.01 134.499 109.073 134.346 109.217 134.238C109.361 134.13 109.505 134.076 109.649 134.076H110.837C110.945 134.076 111.026 134.094 111.08 134.13C111.152 134.148 111.242 134.22 111.35 134.346C111.584 134.598 111.845 134.85 112.133 135.102C112.421 135.354 112.772 135.561 113.186 135.723C113.618 135.885 114.149 135.966 114.779 135.966C115.697 135.966 116.453 135.795 117.047 135.453C117.641 135.093 117.938 134.571 117.938 133.887C117.938 133.437 117.812 133.077 117.56 132.807C117.326 132.537 116.894 132.294 116.264 132.078C115.652 131.862 114.806 131.637 113.726 131.403C112.646 131.151 111.791 130.845 111.161 130.485C110.531 130.107 110.081 129.666 109.811 129.162C109.541 128.64 109.406 128.055 109.406 127.407C109.406 126.741 109.604 126.102 110 125.49C110.396 124.86 110.972 124.347 111.728 123.951C112.502 123.555 113.465 123.357 114.617 123.357C115.553 123.357 116.354 123.474 117.02 123.708C117.686 123.942 118.235 124.239 118.667 124.599C119.099 124.941 119.423 125.283 119.639 125.625C119.855 125.967 119.972 126.255 119.99 126.489C120.008 126.669 119.954 126.822 119.828 126.948C119.702 127.056 119.558 127.11 119.396 127.11H118.262C118.136 127.11 118.028 127.083 117.938 127.029C117.866 126.975 117.794 126.912 117.722 126.84C117.542 126.606 117.326 126.372 117.074 126.138C116.84 125.904 116.525 125.715 116.129 125.571C115.751 125.409 115.247 125.328 114.617 125.328C113.717 125.328 113.042 125.517 112.592 125.895C112.142 126.273 111.917 126.75 111.917 127.326C111.917 127.668 112.016 127.974 112.214 128.244C112.412 128.514 112.79 128.757 113.348 128.973C113.906 129.189 114.734 129.423 115.832 129.675C117.02 129.909 117.956 130.224 118.64 130.62C119.324 131.016 119.81 131.475 120.098 131.997C120.386 132.519 120.53 133.122 120.53 133.806C120.53 134.562 120.305 135.255 119.855 135.885C119.423 136.515 118.775 137.019 117.911 137.397C117.065 137.757 116.012 137.937 114.752 137.937ZM128.515 137.937C127.507 137.937 126.643 137.811 125.923 137.559C125.203 137.307 124.618 137.001 124.168 136.641C123.718 136.281 123.376 135.921 123.142 135.561C122.926 135.201 122.809 134.913 122.791 134.697C122.773 134.499 122.836 134.346 122.98 134.238C123.124 134.13 123.268 134.076 123.412 134.076H124.6C124.708 134.076 124.789 134.094 124.843 134.13C124.915 134.148 125.005 134.22 125.113 134.346C125.347 134.598 125.608 134.85 125.896 135.102C126.184 135.354 126.535 135.561 126.949 135.723C127.381 135.885 127.912 135.966 128.542 135.966C129.46 135.966 130.216 135.795 130.81 135.453C131.404 135.093 131.701 134.571 131.701 133.887C131.701 133.437 131.575 133.077 131.323 132.807C131.089 132.537 130.657 132.294 130.027 132.078C129.415 131.862 128.569 131.637 127.489 131.403C126.409 131.151 125.554 130.845 124.924 130.485C124.294 130.107 123.844 129.666 123.574 129.162C123.304 128.64 123.169 128.055 123.169 127.407C123.169 126.741 123.367 126.102 123.763 125.49C124.159 124.86 124.735 124.347 125.491 123.951C126.265 123.555 127.228 123.357 128.38 123.357C129.316 123.357 130.117 123.474 130.783 123.708C131.449 123.942 131.998 124.239 132.43 124.599C132.862 124.941 133.186 125.283 133.402 125.625C133.618 125.967 133.735 126.255 133.753 126.489C133.771 126.669 133.717 126.822 133.591 126.948C133.465 127.056 133.321 127.11 133.159 127.11H132.025C131.899 127.11 131.791 127.083 131.701 127.029C131.629 126.975 131.557 126.912 131.485 126.84C131.305 126.606 131.089 126.372 130.837 126.138C130.603 125.904 130.288 125.715 129.892 125.571C129.514 125.409 129.01 125.328 128.38 125.328C127.48 125.328 126.805 125.517 126.355 125.895C125.905 126.273 125.68 126.75 125.68 127.326C125.68 127.668 125.779 127.974 125.977 128.244C126.175 128.514 126.553 128.757 127.111 128.973C127.669 129.189 128.497 129.423 129.595 129.675C130.783 129.909 131.719 130.224 132.403 130.62C133.087 131.016 133.573 131.475 133.861 131.997C134.149 132.519 134.293 133.122 134.293 133.806C134.293 134.562 134.068 135.255 133.618 135.885C133.186 136.515 132.538 137.019 131.674 137.397C130.828 137.757 129.775 137.937 128.515 137.937ZM140.776 137.667C140.542 137.667 140.362 137.613 140.236 137.505C140.11 137.379 140.002 137.208 139.912 136.992L136.078 124.464C136.042 124.374 136.024 124.284 136.024 124.194C136.024 124.032 136.078 123.897 136.186 123.789C136.312 123.681 136.447 123.627 136.591 123.627H137.779C137.977 123.627 138.13 123.681 138.238 123.789C138.346 123.897 138.418 123.996 138.454 124.086L141.451 134.265L144.664 124.194C144.7 124.068 144.772 123.942 144.88 123.816C145.006 123.69 145.186 123.627 145.42 123.627H146.338C146.572 123.627 146.752 123.69 146.878 123.816C147.004 123.942 147.076 124.068 147.094 124.194L150.307 134.265L153.304 124.086C153.322 123.996 153.385 123.897 153.493 123.789C153.601 123.681 153.754 123.627 153.952 123.627H155.14C155.302 123.627 155.437 123.681 155.545 123.789C155.653 123.897 155.707 124.032 155.707 124.194C155.707 124.284 155.689 124.374 155.653 124.464L151.819 136.992C151.765 137.208 151.666 137.379 151.522 137.505C151.396 137.613 151.207 137.667 150.955 137.667H149.902C149.668 137.667 149.47 137.613 149.308 137.505C149.164 137.379 149.065 137.208 149.011 136.992L145.879 127.326L142.747 136.992C142.675 137.208 142.567 137.379 142.423 137.505C142.279 137.613 142.081 137.667 141.829 137.667H140.776ZM164.079 137.937C162.711 137.937 161.568 137.676 160.65 137.154C159.732 136.632 159.03 135.912 158.544 134.994C158.058 134.058 157.788 132.996 157.734 131.808C157.716 131.502 157.707 131.115 157.707 130.647C157.707 130.161 157.716 129.774 157.734 129.486C157.788 128.28 158.058 127.218 158.544 126.3C159.048 125.382 159.759 124.662 160.677 124.14C161.595 123.618 162.729 123.357 164.079 123.357C165.429 123.357 166.563 123.618 167.481 124.14C168.399 124.662 169.101 125.382 169.587 126.3C170.091 127.218 170.37 128.28 170.424 129.486C170.442 129.774 170.451 130.161 170.451 130.647C170.451 131.115 170.442 131.502 170.424 131.808C170.37 132.996 170.1 134.058 169.614 134.994C169.128 135.912 168.426 136.632 167.508 137.154C166.59 137.676 165.447 137.937 164.079 137.937ZM164.079 135.858C165.195 135.858 166.086 135.507 166.752 134.805C167.418 134.085 167.778 133.041 167.832 131.673C167.85 131.403 167.859 131.061 167.859 130.647C167.859 130.233 167.85 129.891 167.832 129.621C167.778 128.253 167.418 127.218 166.752 126.516C166.086 125.796 165.195 125.436 164.079 125.436C162.963 125.436 162.063 125.796 161.379 126.516C160.713 127.218 160.362 128.253 160.326 129.621C160.308 129.891 160.299 130.233 160.299 130.647C160.299 131.061 160.308 131.403 160.326 131.673C160.362 133.041 160.713 134.085 161.379 134.805C162.063 135.507 162.963 135.858 164.079 135.858ZM174.453 137.667C174.273 137.667 174.12 137.613 173.994 137.505C173.886 137.379 173.832 137.226 173.832 137.046V124.275C173.832 124.095 173.886 123.942 173.994 123.816C174.12 123.69 174.273 123.627 174.453 123.627H175.695C175.875 123.627 176.028 123.69 176.154 123.816C176.28 123.942 176.343 124.095 176.343 124.275V125.463C176.703 124.851 177.198 124.392 177.828 124.086C178.458 123.78 179.214 123.627 180.096 123.627H181.176C181.356 123.627 181.5 123.69 181.608 123.816C181.716 123.924 181.77 124.068 181.77 124.248V125.355C181.77 125.535 181.716 125.679 181.608 125.787C181.5 125.895 181.356 125.949 181.176 125.949H179.556C178.584 125.949 177.819 126.237 177.261 126.813C176.703 127.371 176.424 128.136 176.424 129.108V137.046C176.424 137.226 176.361 137.379 176.235 137.505C176.109 137.613 175.956 137.667 175.776 137.667H174.453ZM188.929 137.937C187.939 137.937 187.084 137.766 186.364 137.424C185.644 137.064 185.05 136.587 184.582 135.993C184.132 135.381 183.79 134.688 183.556 133.914C183.34 133.14 183.214 132.321 183.178 131.457C183.16 131.169 183.151 130.899 183.151 130.647C183.151 130.395 183.16 130.125 183.178 129.837C183.214 128.991 183.34 128.181 183.556 127.407C183.79 126.633 184.132 125.94 184.582 125.328C185.05 124.716 185.644 124.239 186.364 123.897C187.084 123.537 187.939 123.357 188.929 123.357C189.991 123.357 190.873 123.546 191.575 123.924C192.277 124.302 192.853 124.77 193.303 125.328V119.118C193.303 118.938 193.357 118.794 193.465 118.686C193.591 118.56 193.744 118.497 193.924 118.497H195.22C195.4 118.497 195.544 118.56 195.652 118.686C195.778 118.794 195.841 118.938 195.841 119.118V137.046C195.841 137.226 195.778 137.379 195.652 137.505C195.544 137.613 195.4 137.667 195.22 137.667H194.005C193.807 137.667 193.654 137.613 193.546 137.505C193.438 137.379 193.384 137.226 193.384 137.046V135.912C192.934 136.488 192.349 136.974 191.629 137.37C190.909 137.748 190.009 137.937 188.929 137.937ZM189.496 135.75C190.396 135.75 191.116 135.543 191.656 135.129C192.196 134.715 192.601 134.193 192.871 133.563C193.141 132.915 193.285 132.258 193.303 131.592C193.321 131.304 193.33 130.962 193.33 130.566C193.33 130.152 193.321 129.801 193.303 129.513C193.285 128.883 193.132 128.262 192.844 127.65C192.574 127.038 192.16 126.534 191.602 126.138C191.062 125.742 190.36 125.544 189.496 125.544C188.578 125.544 187.849 125.751 187.309 126.165C186.769 126.561 186.382 127.092 186.148 127.758C185.914 128.406 185.779 129.108 185.743 129.864C185.725 130.386 185.725 130.908 185.743 131.43C185.779 132.186 185.914 132.897 186.148 133.563C186.382 134.211 186.769 134.742 187.309 135.156C187.849 135.552 188.578 135.75 189.496 135.75Z" fill="white"/>
</svg>
