<svg width="550" height="181" viewBox="0 0 550 181" fill="none" xmlns="http://www.w3.org/2000/svg">
<path d="M68.75 159.34L481.25 159.34C519.22 159.34 550 128.559 550 90.5895C550 52.62 519.22 21.8395 481.25 21.8395L68.75 21.8395C30.7804 21.8395 0 52.62 0 90.5895C0 128.559 30.7804 159.34 68.75 159.34Z" fill="#3E8FF8"/>
<path d="M481.25 21.8395H146.85C108.881 21.8395 78.1001 52.62 78.1001 90.5895C78.1001 128.559 108.881 159.34 146.85 159.34H481.25C519.22 159.34 550 128.559 550 90.5895C550 52.62 519.22 21.8395 481.25 21.8395Z" fill="#3E8FF8" fill-opacity="0.5" style="mix-blend-mode:multiply"/>
<path d="M225.894 159.34L481.25 159.34C519.22 159.34 550 128.559 550 90.5895C550 52.62 519.22 21.8395 481.25 21.8395L225.894 21.8395C187.925 21.8395 157.144 52.62 157.144 90.5895C157.144 128.559 187.925 159.34 225.894 159.34Z" fill="#3E8FF8" fill-opacity="0.5" style="mix-blend-mode:multiply"/>
<path d="M304.462 159.34L481.25 159.34C519.22 159.34 550 128.559 550 90.5895C550 52.62 519.22 21.8395 481.25 21.8395L304.462 21.8395C266.492 21.8395 235.712 52.62 235.712 90.5895C235.712 128.559 266.492 159.34 304.462 159.34Z" fill="#3E8FF8" fill-opacity="0.5" style="mix-blend-mode:multiply"/>
<path d="M416.808 163.666C416.808 164.427 416.524 164.995 416.102 165.252L389.895 180.478L389.73 180.588C389.785 180.56 389.84 180.533 389.867 180.478C389.418 180.845 388.74 180.845 387.979 180.395L369.994 170.028C367.281 168.442 364.971 165.316 363.953 161.87C362.908 158.395 363.476 155.545 365.392 154.472L370.388 151.621C371.662 150.888 372.341 149.394 372.341 147.359L372.396 135.607C372.396 134.846 372.68 134.278 373.101 134.021C373.129 133.994 373.156 133.966 373.211 133.966L399.474 118.685C399.896 118.456 400.519 118.456 401.225 118.887C402.554 119.648 403.654 121.545 403.654 123.095L403.626 134.874C403.626 138.403 402.416 141.061 400.207 142.271L395.065 145.269L394.955 145.351C394.561 145.8 394.753 146.625 394.845 146.992C394.982 147.414 395.386 148.459 396.366 149.055L414.351 159.45C415.736 160.21 416.808 162.108 416.808 163.685V163.666Z" fill="#939FE7"/>
<path d="M416.817 163.657C416.817 164.436 416.543 164.977 416.093 165.234L389.721 180.56C390.161 180.295 390.445 179.754 390.445 178.984C390.445 177.416 389.354 175.519 387.988 174.74L369.994 164.354C369.013 163.776 368.61 162.731 368.472 162.3C368.362 161.87 368.143 160.843 368.848 160.44L395.221 145.113C394.515 145.516 394.735 146.543 394.845 146.974C394.982 147.405 395.367 148.44 396.367 149.027L414.361 159.413C415.717 160.192 416.817 162.09 416.817 163.657Z" fill="#80C8E7"/>
<path d="M387.979 180.395C389.336 181.175 390.445 180.542 390.445 178.993C390.445 177.425 389.345 175.528 387.997 174.749L370.003 164.354C369.013 163.785 368.619 162.74 368.482 162.31C368.362 161.879 368.142 160.861 368.848 160.458L373.853 157.598C376.035 156.36 377.245 153.73 377.254 150.191L377.291 138.43C377.291 136.872 376.2 134.984 374.852 134.195C373.487 133.407 372.387 134.04 372.387 135.589L372.35 147.35C372.35 149.375 371.653 150.888 370.397 151.603L365.392 154.454C363.477 155.545 362.917 158.377 363.944 161.851C364.971 165.316 367.29 168.451 369.994 170.01L387.988 180.405L387.979 180.395Z" fill="#CFE0ED"/>
<path d="M403.654 123.094L403.608 134.855C403.608 138.384 402.398 141.034 400.216 142.271L373.844 157.579C376.035 156.342 377.236 153.711 377.236 150.182L377.281 138.421C377.281 136.872 376.191 134.974 374.843 134.195C374.146 133.792 373.523 133.755 373.083 134.012L399.455 118.685C399.895 118.438 400.519 118.465 401.216 118.869C402.563 119.648 403.654 121.545 403.654 123.094Z" fill="#80C8E7"/>
<path d="M445.72 4.8445C444.336 4.05617 442.475 4.16617 440.357 5.38533L335.362 67.9387C331.1 70.4687 328.937 74.5387 328.937 79.232L327.763 162.062C327.791 164.436 328.643 166.132 329.963 166.893L322.511 162.548C321.154 161.76 320.338 160.091 320.311 157.744L320.082 74.832C320.082 69.5887 323.941 63.9053 327.589 61.8153L432.896 1.04033C434.986 -0.169668 436.874 -0.288835 438.231 0.499499L445.711 4.8445H445.72Z" fill="#CFE0ED"/>
<path d="M320.082 74.8229L320.311 157.726C320.329 160.091 321.154 161.76 322.502 162.548L329.963 166.884C328.634 166.114 329.496 164.115 329.477 161.732L327.543 79.1862L320.082 74.8321V74.8229Z" fill="#CFE0ED"/>
<path d="M440.366 5.35787C444.528 2.9562 447.901 4.89953 447.92 9.67537L448.158 92.5695C448.167 97.3454 444.812 103.166 440.65 105.568L335.344 166.361C331.182 168.763 327.79 166.847 327.781 162.062L327.543 79.1679C327.534 74.392 330.898 68.5529 335.06 66.1512L440.366 5.35787Z" fill="#0C3B5E"/>
<path d="M332.191 163.079C332.127 162.878 332.072 162.539 332.063 162.062L331.824 79.1678C331.815 75.9319 334.373 71.5044 337.196 69.8728L442.503 9.07942C442.961 8.81359 443.291 8.70359 443.502 8.65775C443.566 8.86859 443.63 9.20775 443.63 9.69359L443.868 92.5878C443.878 95.8144 441.32 100.233 438.506 101.855L333.199 162.649C332.732 162.914 332.393 163.034 332.191 163.079Z" fill="white"/>
<path d="M448.131 85.5938L448.149 92.5696C448.167 97.3546 444.812 103.166 440.66 105.568L335.353 166.38C331.182 168.781 327.8 166.856 327.782 162.071L327.763 155.095L448.131 85.5938Z" fill="#0C3B5E"/>
<path d="M389.145 46.9637C389.867 45.7202 389.866 44.3722 389.144 43.9529C388.421 43.5336 387.251 44.2018 386.529 45.4453C385.807 46.6888 385.808 48.0368 386.53 48.4561C387.253 48.8754 388.424 48.2073 389.145 46.9637Z" fill="#0C3B5E"/>
<path d="M380.609 129.814C381.645 129.218 382.479 129.694 382.488 130.895C382.488 132.078 381.654 133.526 380.628 134.122C379.583 134.727 378.748 134.241 378.739 133.059C378.739 131.858 379.573 130.419 380.609 129.814Z" fill="#E3E6F9"/>
<path d="M387.952 125.579C388.987 124.983 389.831 125.46 389.831 126.66C389.831 127.852 388.997 129.3 387.961 129.896C386.916 130.501 386.082 130.015 386.082 128.824C386.082 127.623 386.907 126.175 387.952 125.579Z" fill="#E3E6F9"/>
<path d="M395.285 121.344C396.33 120.739 397.164 121.224 397.173 122.416C397.173 123.599 396.339 125.047 395.303 125.652C394.267 126.248 393.433 125.771 393.424 124.579C393.424 123.379 394.258 121.939 395.285 121.344Z" fill="#E3E6F9"/>
<path d="M382.448 84.3184C386.681 77.0236 386.688 69.1221 382.463 66.6698C378.237 64.2175 371.38 68.143 367.146 75.4378C362.913 82.7325 362.906 90.634 367.131 93.0863C371.356 95.5386 378.214 91.6131 382.448 84.3184Z" fill="#F3F1FC"/>
<path d="M382.607 84.0628C380.838 87.1978 378.418 89.9937 375.723 91.8087L375.329 87.4728L375.815 86.1987L375.952 86.382C376.805 85.4287 377.547 84.1912 377.932 82.9995C377.951 82.9353 377.969 82.8712 377.987 82.807C378.042 82.6145 378.097 82.422 378.125 82.2295C378.162 82.0462 378.189 81.872 378.198 81.6978L380.297 80.4878C381.572 79.7545 382.607 80.3412 382.607 81.8078V84.0628Z" fill="#F45170"/>
<path d="M374.431 87.9862C374.367 88.8204 374.037 93.0462 374.055 92.7804C371.369 94.1187 368.949 94.1737 367.152 93.1471V90.7271C367.143 89.2604 368.17 87.4821 369.435 86.7487L371.534 85.5387C371.672 86.9229 372.634 87.6562 373.807 87.6104L373.945 87.2712L374.431 87.9771V87.9862Z" fill="#F45170"/>
<path d="M373.294 83.0549C373.432 84.054 373.918 84.6957 374.871 84.9249C374.779 85.1449 373.725 87.8307 373.808 87.6107C372.634 87.6565 371.672 86.9232 371.534 85.539L373.285 83.0549H373.294Z" fill="#DF3260"/>
<path d="M374.898 84.8788C375.063 84.6497 375.081 84.6222 374.898 84.8788V84.8788Z" fill="#438AC4"/>
<path d="M374.898 84.8789C374.898 84.8789 374.88 84.9064 374.871 84.9247L375.806 86.1989L375.32 87.473L374.431 87.9864L373.945 87.2714L374.871 84.9247C374.871 84.9247 374.852 84.9247 374.843 84.9247H374.871L374.898 84.888V84.8789Z" fill="#F3F1FC"/>
<path d="M374.834 84.9156C374.834 84.9156 374.779 84.8972 374.751 84.8972L374.834 84.9156Z" fill="#438AC4"/>
<path d="M376.429 81.2397L378.189 81.6889C378.061 83.2289 377.107 85.0622 375.934 86.3822C375.778 86.1622 374.706 84.7139 374.862 84.9247C375.65 83.8156 376.273 82.5872 376.42 81.2397H376.429Z" fill="#DF3260"/>
<path d="M377.025 73.0446C378.024 72.2746 378.299 75.5746 378.363 76.8213C378.171 78.7005 376.951 81.038 374.852 82.2755C373.037 83.3205 371.561 82.6055 371.314 80.7996C371.791 73.5946 372.286 76.6838 377.025 73.0446Z" fill="#F4D6D4"/>
<path d="M373.294 82.7706C373.844 82.7706 374.376 82.5597 374.852 82.2847C375.457 81.9272 375.87 81.6247 376.42 81.0197C376.356 81.2397 376.557 82.5231 374.861 84.9247C374.861 84.9247 374.742 84.8881 374.751 84.8972C373.981 84.6681 373.441 84.1364 373.294 83.0914V82.7706Z" fill="#F5C9C6"/>
<path d="M371.341 70.9087C371.882 71.3762 372.515 71.6512 373.046 71.7429C373.001 71.3579 372.845 70.0379 373.12 70.3129C374.192 71.4496 377.758 68.4704 377.923 70.5146C377.951 70.8354 379.344 68.9287 378.886 73.2646C378.84 73.6862 379.005 72.2929 378.363 76.8212C378.29 75.5654 378.015 72.2837 377.025 73.0537C372.185 76.7846 371.8 73.5854 371.314 80.8087L371.259 80.6346L370.654 78.5354L370.608 78.3887C370.48 77.8846 370.397 77.3346 370.406 76.7387C370.425 74.3279 371.442 74.4196 371.396 74.0896C371.296 73.4571 370.92 70.5512 371.341 70.9179V70.9087Z" fill="#1D2943"/>
<path d="M375.714 91.8086C375.421 92.0103 375.118 92.1936 374.816 92.3678C374.559 92.5144 374.302 92.6519 374.055 92.7803L374.431 87.9861L375.32 87.4728L375.714 91.8086Z" fill="#DEDFFB"/>
<path d="M378.794 73.8237C378.794 73.8237 378.821 73.8145 378.831 73.8053C379.848 73.3837 379.316 76.7845 378.381 76.647C378.491 75.8312 378.684 74.5295 378.794 73.8237Z" fill="#F5C9C6"/>
<path d="M370.654 78.5353L371.259 80.6344C370.856 81.4044 370.232 81.2119 370.122 80.2769C370.04 79.5986 370.278 78.8194 370.654 78.5353Z" fill="#F5C9C6"/>
<path d="M417.413 51.8969L395.395 64.6111V66.9119L417.413 54.2986V51.8969Z" fill="#F3F1FC"/>
<path d="M417.413 45.6822L395.376 58.4055V60.7064L417.413 48.0839V45.6822Z" fill="#F3F1FC"/>
<path d="M383.075 92.9821L383.13 108.556L366.841 117.961L366.786 102.387L383.075 92.9821Z" fill="#F3F1FC"/>
<path d="M379.161 98.7112C380.261 99.1421 379.161 101.03 379.161 101.03C379.152 101.049 379.472 100.554 373.404 109.968C373.202 110.28 372.781 110.637 372.478 110.463L370.132 109.106C369.857 108.95 369.857 108.455 370.132 107.979C370.324 107.649 370.764 107.245 371.094 107.42L372.927 108.465L377.309 99.9579C377.694 99.2154 378.519 98.4454 379.17 98.7021L379.161 98.7112Z" fill="#31AA4A"/>
<path d="M393.607 96.4288L385.999 100.82V101.91L393.607 97.5197V96.4288Z" fill="#DEDFFB"/>
<path d="M391.398 93.4313L385.981 96.5571V97.6388L391.398 94.5588V93.4313Z" fill="#DEDFFB"/>
<path d="M395.808 99.4263L385.981 105.1V106.182L395.808 100.554V99.4263Z" fill="#DEDFFB"/>
<path d="M388.685 90.7087L385.972 92.2762V93.3579L388.685 91.8362V90.7087Z" fill="#DEDFFB"/>
<path d="M408.32 63.4377C410.932 64.2261 415.561 62.6952 418.366 61.6411C419.274 76.5919 415.57 87.0236 408.402 93.5869C401.215 95.3194 397.475 89.1777 398.273 73.2461C401.078 71.0644 405.707 67.2419 408.32 63.4377Z" fill="#FFD06C"/>
<path d="M400.06 74.1628C404.14 70.9269 407.119 68.0669 409.126 65.4361C411.491 65.6652 414.379 64.9136 416.652 64.1803C416.982 76.5003 413.92 85.8228 407.531 91.9003C400.097 93.3028 399.758 81.7069 400.07 74.1628H400.06Z" fill="#FEBC1F"/>
<path d="M408.31 72.0086C411.253 70.3128 413.627 71.6786 413.636 75.0428C413.645 78.4161 411.28 82.5136 408.347 84.2094C405.414 85.9053 403.039 84.5394 403.03 81.1661C403.021 77.7928 405.386 73.6953 408.319 71.9994L408.31 72.0086Z" fill="white"/>
<path d="M411.482 73.5119C411.885 73.6677 411.94 74.3277 411.601 74.9785C411.766 74.7494 409.429 78.3702 407.339 81.6152C407.192 81.8352 406.889 82.0919 406.669 81.9727L404.983 81.001C404.79 80.891 404.781 80.5335 404.983 80.1944C405.12 79.956 405.432 79.6719 405.679 79.791L406.999 80.5427L410.153 74.4194C410.419 73.8969 411.014 73.3285 411.491 73.5119H411.482Z" fill="#F45170"/>
<path d="M70.037 82.7129C69.893 82.7129 69.767 82.6589 69.659 82.5509C69.551 82.4429 69.497 82.3169 69.497 82.1729C69.497 82.0829 69.506 81.9839 69.524 81.8759L76.22 64.4069C76.292 64.2269 76.391 64.0829 76.517 63.9749C76.643 63.8669 76.832 63.8129 77.084 63.8129H78.92C79.172 63.8129 79.361 63.8669 79.487 63.9749C79.613 64.0829 79.712 64.2269 79.784 64.4069L86.453 81.8759C86.489 81.9839 86.507 82.0829 86.507 82.1729C86.507 82.3169 86.453 82.4429 86.345 82.5509C86.237 82.6589 86.111 82.7129 85.967 82.7129H84.59C84.374 82.7129 84.212 82.6589 84.104 82.5509C84.014 82.4429 83.951 82.3439 83.915 82.2539L82.43 78.4199H73.574L72.089 82.2539C72.071 82.3439 72.008 82.4429 71.9 82.5509C71.792 82.6589 71.63 82.7129 71.414 82.7129H70.037ZM74.357 76.0979H81.647L78.002 66.5129L74.357 76.0979ZM94.5547 82.9829C93.2767 82.9829 92.1697 82.7399 91.2337 82.2539C90.3157 81.7499 89.6047 81.0389 89.1007 80.1209C88.5967 79.1849 88.3267 78.0689 88.2907 76.7729C88.2727 76.5029 88.2637 76.1429 88.2637 75.6929C88.2637 75.2429 88.2727 74.8829 88.2907 74.6129C88.3267 73.3169 88.5967 72.2099 89.1007 71.2919C89.6047 70.3559 90.3157 69.6449 91.2337 69.1589C92.1697 68.6549 93.2767 68.4029 94.5547 68.4029C95.5987 68.4029 96.4897 68.5469 97.2277 68.8349C97.9837 69.1229 98.6047 69.4919 99.0907 69.9419C99.5767 70.3919 99.9367 70.8779 100.171 71.3999C100.423 71.9219 100.558 72.4169 100.576 72.8849C100.594 73.0649 100.54 73.2089 100.414 73.3169C100.288 73.4249 100.135 73.4789 99.9547 73.4789H98.6587C98.4787 73.4789 98.3437 73.4429 98.2537 73.3709C98.1637 73.2809 98.0737 73.1369 97.9837 72.9389C97.6597 72.0569 97.2187 71.4359 96.6607 71.0759C96.1027 70.7159 95.4097 70.5359 94.5817 70.5359C93.5017 70.5359 92.6197 70.8689 91.9357 71.5349C91.2697 72.2009 90.9097 73.2719 90.8557 74.7479C90.8377 75.3959 90.8377 76.0259 90.8557 76.6379C90.9097 78.1319 91.2697 79.2119 91.9357 79.8779C92.6197 80.5259 93.5017 80.8499 94.5817 80.8499C95.4097 80.8499 96.1027 80.6699 96.6607 80.3099C97.2187 79.9499 97.6597 79.3289 97.9837 78.4469C98.0737 78.2489 98.1637 78.1049 98.2537 78.0149C98.3437 77.9249 98.4787 77.8799 98.6587 77.8799H99.9547C100.135 77.8799 100.288 77.9429 100.414 78.0689C100.54 78.1769 100.594 78.3209 100.576 78.5009C100.558 78.8789 100.477 79.2659 100.333 79.6619C100.189 80.0579 99.9547 80.4629 99.6307 80.8769C99.3247 81.2729 98.9377 81.6329 98.4697 81.9569C98.0017 82.2629 97.4437 82.5149 96.7957 82.7129C96.1477 82.8929 95.4007 82.9829 94.5547 82.9829ZM109.263 82.7129C108.255 82.7129 107.436 82.5239 106.806 82.1459C106.176 81.7499 105.717 81.2009 105.429 80.4989C105.141 79.7789 104.997 78.9329 104.997 77.9609V70.8329H102.891C102.711 70.8329 102.558 70.7789 102.432 70.6709C102.324 70.5449 102.27 70.3919 102.27 70.2119V69.2939C102.27 69.1139 102.324 68.9699 102.432 68.8619C102.558 68.7359 102.711 68.6729 102.891 68.6729H104.997V64.1639C104.997 63.9839 105.051 63.8399 105.159 63.7319C105.285 63.6059 105.438 63.5429 105.618 63.5429H106.887C107.067 63.5429 107.211 63.6059 107.319 63.7319C107.445 63.8399 107.508 63.9839 107.508 64.1639V68.6729H110.856C111.054 68.6729 111.207 68.7359 111.315 68.8619C111.423 68.9699 111.477 69.1139 111.477 69.2939V70.2119C111.477 70.3919 111.423 70.5449 111.315 70.6709C111.207 70.7789 111.054 70.8329 110.856 70.8329H107.508V77.7719C107.508 78.6179 107.652 79.2839 107.94 79.7699C108.228 80.2559 108.741 80.4989 109.479 80.4989H111.126C111.306 80.4989 111.45 80.5619 111.558 80.6879C111.684 80.7959 111.747 80.9399 111.747 81.1199V82.0919C111.747 82.2719 111.684 82.4249 111.558 82.5509C111.45 82.6589 111.306 82.7129 111.126 82.7129H109.263ZM114.95 82.7129C114.77 82.7129 114.617 82.6589 114.491 82.5509C114.383 82.4249 114.329 82.2719 114.329 82.0919V69.2939C114.329 69.1139 114.383 68.9699 114.491 68.8619C114.617 68.7359 114.77 68.6729 114.95 68.6729H116.246C116.426 68.6729 116.57 68.7359 116.678 68.8619C116.804 68.9699 116.867 69.1139 116.867 69.2939V82.0919C116.867 82.2719 116.804 82.4249 116.678 82.5509C116.57 82.6589 116.426 82.7129 116.246 82.7129H114.95ZM114.734 66.0539C114.554 66.0539 114.401 65.9999 114.275 65.8919C114.167 65.7659 114.113 65.6129 114.113 65.4329V63.9749C114.113 63.7949 114.167 63.6419 114.275 63.5159C114.401 63.3899 114.554 63.3269 114.734 63.3269H116.435C116.615 63.3269 116.768 63.3899 116.894 63.5159C117.02 63.6419 117.083 63.7949 117.083 63.9749V65.4329C117.083 65.6129 117.02 65.7659 116.894 65.8919C116.768 65.9999 116.615 66.0539 116.435 66.0539H114.734ZM125.755 82.7129C125.485 82.7129 125.269 82.6499 125.107 82.5239C124.963 82.3979 124.846 82.2359 124.756 82.0379L119.761 69.5099C119.725 69.4199 119.707 69.3299 119.707 69.2399C119.707 69.0779 119.761 68.9429 119.869 68.8349C119.977 68.7269 120.112 68.6729 120.274 68.6729H121.57C121.768 68.6729 121.921 68.7269 122.029 68.8349C122.137 68.9429 122.209 69.0419 122.245 69.1319L126.349 79.7699L130.453 69.1319C130.489 69.0419 130.552 68.9429 130.642 68.8349C130.75 68.7269 130.903 68.6729 131.101 68.6729H132.424C132.568 68.6729 132.694 68.7269 132.802 68.8349C132.928 68.9429 132.991 69.0779 132.991 69.2399C132.991 69.3299 132.973 69.4199 132.937 69.5099L127.915 82.0379C127.843 82.2359 127.726 82.3979 127.564 82.5239C127.42 82.6499 127.204 82.7129 126.916 82.7129H125.755ZM139.206 82.9829C138.306 82.9829 137.487 82.8029 136.749 82.4429C136.011 82.0829 135.417 81.5969 134.967 80.9849C134.517 80.3729 134.292 79.6799 134.292 78.9059C134.292 77.6639 134.796 76.6739 135.804 75.9359C136.812 75.1979 138.126 74.7119 139.746 74.4779L143.769 73.9109V73.1279C143.769 72.2639 143.517 71.5889 143.013 71.1029C142.527 70.6169 141.726 70.3739 140.61 70.3739C139.818 70.3739 139.17 70.5359 138.666 70.8599C138.162 71.1839 137.811 71.5979 137.613 72.1019C137.505 72.3719 137.316 72.5069 137.046 72.5069H135.831C135.633 72.5069 135.48 72.4529 135.372 72.3449C135.282 72.2189 135.237 72.0749 135.237 71.9129C135.237 71.6429 135.336 71.3099 135.534 70.9139C135.75 70.5179 136.074 70.1309 136.506 69.7529C136.938 69.3749 137.487 69.0599 138.153 68.8079C138.837 68.5379 139.665 68.4029 140.637 68.4029C141.717 68.4029 142.626 68.5469 143.364 68.8349C144.102 69.1049 144.678 69.4739 145.092 69.9419C145.524 70.4099 145.83 70.9409 146.01 71.5349C146.208 72.1289 146.307 72.7319 146.307 73.3439V82.0919C146.307 82.2719 146.244 82.4249 146.118 82.5509C146.01 82.6589 145.866 82.7129 145.686 82.7129H144.444C144.246 82.7129 144.093 82.6589 143.985 82.5509C143.877 82.4249 143.823 82.2719 143.823 82.0919V80.9309C143.589 81.2549 143.274 81.5789 142.878 81.9029C142.482 82.2089 141.987 82.4699 141.393 82.6859C140.799 82.8839 140.07 82.9829 139.206 82.9829ZM139.773 80.9579C140.511 80.9579 141.186 80.8049 141.798 80.4989C142.41 80.1749 142.887 79.6799 143.229 79.0139C143.589 78.3479 143.769 77.5109 143.769 76.5029V75.7469L140.637 76.2059C139.359 76.3859 138.396 76.6919 137.748 77.1239C137.1 77.5379 136.776 78.0689 136.776 78.7169C136.776 79.2209 136.92 79.6439 137.208 79.9859C137.514 80.3099 137.892 80.5529 138.342 80.7149C138.81 80.8769 139.287 80.9579 139.773 80.9579ZM155.538 82.7129C154.53 82.7129 153.711 82.5239 153.081 82.1459C152.451 81.7499 151.992 81.2009 151.704 80.4989C151.416 79.7789 151.272 78.9329 151.272 77.9609V70.8329H149.166C148.986 70.8329 148.833 70.7789 148.707 70.6709C148.599 70.5449 148.545 70.3919 148.545 70.2119V69.2939C148.545 69.1139 148.599 68.9699 148.707 68.8619C148.833 68.7359 148.986 68.6729 149.166 68.6729H151.272V64.1639C151.272 63.9839 151.326 63.8399 151.434 63.7319C151.56 63.6059 151.713 63.5429 151.893 63.5429H153.162C153.342 63.5429 153.486 63.6059 153.594 63.7319C153.72 63.8399 153.783 63.9839 153.783 64.1639V68.6729H157.131C157.329 68.6729 157.482 68.7359 157.59 68.8619C157.698 68.9699 157.752 69.1139 157.752 69.2939V70.2119C157.752 70.3919 157.698 70.5449 157.59 70.6709C157.482 70.7789 157.329 70.8329 157.131 70.8329H153.783V77.7719C153.783 78.6179 153.927 79.2839 154.215 79.7699C154.503 80.2559 155.016 80.4989 155.754 80.4989H157.401C157.581 80.4989 157.725 80.5619 157.833 80.6879C157.959 80.7959 158.022 80.9399 158.022 81.1199V82.0919C158.022 82.2719 157.959 82.4249 157.833 82.5509C157.725 82.6589 157.581 82.7129 157.401 82.7129H155.538ZM166.219 82.9829C164.347 82.9829 162.862 82.4159 161.764 81.2819C160.666 80.1299 160.063 78.5639 159.955 76.5839C159.937 76.3499 159.928 76.0529 159.928 75.6929C159.928 75.3149 159.937 75.0089 159.955 74.7749C160.027 73.4969 160.324 72.3809 160.846 71.4269C161.368 70.4549 162.079 69.7079 162.979 69.1859C163.897 68.6639 164.968 68.4029 166.192 68.4029C167.56 68.4029 168.703 68.6909 169.621 69.2669C170.557 69.8429 171.268 70.6619 171.754 71.7239C172.24 72.7859 172.483 74.0279 172.483 75.4499V75.9089C172.483 76.1069 172.42 76.2599 172.294 76.3679C172.186 76.4759 172.042 76.5299 171.862 76.5299H162.52C162.52 76.5479 162.52 76.5839 162.52 76.6379C162.52 76.6919 162.52 76.7369 162.52 76.7729C162.556 77.5109 162.718 78.2039 163.006 78.8519C163.294 79.4819 163.708 79.9949 164.248 80.3909C164.806 80.7869 165.454 80.9849 166.192 80.9849C166.84 80.9849 167.38 80.8859 167.812 80.6879C168.244 80.4899 168.595 80.2739 168.865 80.0399C169.135 79.7879 169.315 79.5899 169.405 79.4459C169.567 79.2299 169.693 79.1039 169.783 79.0679C169.873 79.0139 170.017 78.9869 170.215 78.9869H171.538C171.7 78.9869 171.835 79.0409 171.943 79.1489C172.069 79.2389 172.123 79.3739 172.105 79.5539C172.087 79.8239 171.943 80.1569 171.673 80.5529C171.403 80.9309 171.016 81.3089 170.512 81.6869C170.026 82.0649 169.414 82.3799 168.676 82.6319C167.956 82.8659 167.137 82.9829 166.219 82.9829ZM162.52 74.6669H169.918V74.5859C169.918 73.7759 169.765 73.0559 169.459 72.4259C169.171 71.7959 168.748 71.3009 168.19 70.9409C167.632 70.5629 166.966 70.3739 166.192 70.3739C165.418 70.3739 164.752 70.5629 164.194 70.9409C163.654 71.3009 163.24 71.7959 162.952 72.4259C162.664 73.0559 162.52 73.7759 162.52 74.5859V74.6669ZM70.037 114.713C69.893 114.713 69.767 114.659 69.659 114.551C69.551 114.443 69.497 114.317 69.497 114.173C69.497 114.083 69.506 113.984 69.524 113.876L76.22 96.4069C76.292 96.2269 76.391 96.0829 76.517 95.9749C76.643 95.8669 76.832 95.8129 77.084 95.8129H78.92C79.172 95.8129 79.361 95.8669 79.487 95.9749C79.613 96.0829 79.712 96.2269 79.784 96.4069L86.453 113.876C86.489 113.984 86.507 114.083 86.507 114.173C86.507 114.317 86.453 114.443 86.345 114.551C86.237 114.659 86.111 114.713 85.967 114.713H84.59C84.374 114.713 84.212 114.659 84.104 114.551C84.014 114.443 83.951 114.344 83.915 114.254L82.43 110.42H73.574L72.089 114.254C72.071 114.344 72.008 114.443 71.9 114.551C71.792 114.659 71.63 114.713 71.414 114.713H70.037ZM74.357 108.098H81.647L78.002 98.5129L74.357 108.098ZM94.5547 114.983C93.2767 114.983 92.1697 114.74 91.2337 114.254C90.3157 113.75 89.6047 113.039 89.1007 112.121C88.5967 111.185 88.3267 110.069 88.2907 108.773C88.2727 108.503 88.2637 108.143 88.2637 107.693C88.2637 107.243 88.2727 106.883 88.2907 106.613C88.3267 105.317 88.5967 104.21 89.1007 103.292C89.6047 102.356 90.3157 101.645 91.2337 101.159C92.1697 100.655 93.2767 100.403 94.5547 100.403C95.5987 100.403 96.4897 100.547 97.2277 100.835C97.9837 101.123 98.6047 101.492 99.0907 101.942C99.5767 102.392 99.9367 102.878 100.171 103.4C100.423 103.922 100.558 104.417 100.576 104.885C100.594 105.065 100.54 105.209 100.414 105.317C100.288 105.425 100.135 105.479 99.9547 105.479H98.6587C98.4787 105.479 98.3437 105.443 98.2537 105.371C98.1637 105.281 98.0737 105.137 97.9837 104.939C97.6597 104.057 97.2187 103.436 96.6607 103.076C96.1027 102.716 95.4097 102.536 94.5817 102.536C93.5017 102.536 92.6197 102.869 91.9357 103.535C91.2697 104.201 90.9097 105.272 90.8557 106.748C90.8377 107.396 90.8377 108.026 90.8557 108.638C90.9097 110.132 91.2697 111.212 91.9357 111.878C92.6197 112.526 93.5017 112.85 94.5817 112.85C95.4097 112.85 96.1027 112.67 96.6607 112.31C97.2187 111.95 97.6597 111.329 97.9837 110.447C98.0737 110.249 98.1637 110.105 98.2537 110.015C98.3437 109.925 98.4787 109.88 98.6587 109.88H99.9547C100.135 109.88 100.288 109.943 100.414 110.069C100.54 110.177 100.594 110.321 100.576 110.501C100.558 110.879 100.477 111.266 100.333 111.662C100.189 112.058 99.9547 112.463 99.6307 112.877C99.3247 113.273 98.9377 113.633 98.4697 113.957C98.0017 114.263 97.4437 114.515 96.7957 114.713C96.1477 114.893 95.4007 114.983 94.5547 114.983ZM109.452 114.983C108.174 114.983 107.067 114.74 106.131 114.254C105.213 113.75 104.502 113.039 103.998 112.121C103.494 111.185 103.224 110.069 103.188 108.773C103.17 108.503 103.161 108.143 103.161 107.693C103.161 107.243 103.17 106.883 103.188 106.613C103.224 105.317 103.494 104.21 103.998 103.292C104.502 102.356 105.213 101.645 106.131 101.159C107.067 100.655 108.174 100.403 109.452 100.403C110.496 100.403 111.387 100.547 112.125 100.835C112.881 101.123 113.502 101.492 113.988 101.942C114.474 102.392 114.834 102.878 115.068 103.4C115.32 103.922 115.455 104.417 115.473 104.885C115.491 105.065 115.437 105.209 115.311 105.317C115.185 105.425 115.032 105.479 114.852 105.479H113.556C113.376 105.479 113.241 105.443 113.151 105.371C113.061 105.281 112.971 105.137 112.881 104.939C112.557 104.057 112.116 103.436 111.558 103.076C111 102.716 110.307 102.536 109.479 102.536C108.399 102.536 107.517 102.869 106.833 103.535C106.167 104.201 105.807 105.272 105.753 106.748C105.735 107.396 105.735 108.026 105.753 108.638C105.807 110.132 106.167 111.212 106.833 111.878C107.517 112.526 108.399 112.85 109.479 112.85C110.307 112.85 111 112.67 111.558 112.31C112.116 111.95 112.557 111.329 112.881 110.447C112.971 110.249 113.061 110.105 113.151 110.015C113.241 109.925 113.376 109.88 113.556 109.88H114.852C115.032 109.88 115.185 109.943 115.311 110.069C115.437 110.177 115.491 110.321 115.473 110.501C115.455 110.879 115.374 111.266 115.23 111.662C115.086 112.058 114.852 112.463 114.528 112.877C114.222 113.273 113.835 113.633 113.367 113.957C112.899 114.263 112.341 114.515 111.693 114.713C111.045 114.893 110.298 114.983 109.452 114.983ZM124.431 114.983C123.063 114.983 121.92 114.722 121.002 114.2C120.084 113.678 119.382 112.958 118.896 112.04C118.41 111.104 118.14 110.042 118.086 108.854C118.068 108.548 118.059 108.161 118.059 107.693C118.059 107.207 118.068 106.82 118.086 106.532C118.14 105.326 118.41 104.264 118.896 103.346C119.4 102.428 120.111 101.708 121.029 101.186C121.947 100.664 123.081 100.403 124.431 100.403C125.781 100.403 126.915 100.664 127.833 101.186C128.751 101.708 129.453 102.428 129.939 103.346C130.443 104.264 130.722 105.326 130.776 106.532C130.794 106.82 130.803 107.207 130.803 107.693C130.803 108.161 130.794 108.548 130.776 108.854C130.722 110.042 130.452 111.104 129.966 112.04C129.48 112.958 128.778 113.678 127.86 114.2C126.942 114.722 125.799 114.983 124.431 114.983ZM124.431 112.904C125.547 112.904 126.438 112.553 127.104 111.851C127.77 111.131 128.13 110.087 128.184 108.719C128.202 108.449 128.211 108.107 128.211 107.693C128.211 107.279 128.202 106.937 128.184 106.667C128.13 105.299 127.77 104.264 127.104 103.562C126.438 102.842 125.547 102.482 124.431 102.482C123.315 102.482 122.415 102.842 121.731 103.562C121.065 104.264 120.714 105.299 120.678 106.667C120.66 106.937 120.651 107.279 120.651 107.693C120.651 108.107 120.66 108.449 120.678 108.719C120.714 110.087 121.065 111.131 121.731 111.851C122.415 112.553 123.315 112.904 124.431 112.904ZM139.422 114.983C138.27 114.983 137.289 114.731 136.479 114.227C135.687 113.705 135.084 112.985 134.67 112.067C134.256 111.149 134.049 110.096 134.049 108.908V101.294C134.049 101.114 134.103 100.97 134.211 100.862C134.337 100.736 134.49 100.673 134.67 100.673H136.02C136.2 100.673 136.344 100.736 136.452 100.862C136.578 100.97 136.641 101.114 136.641 101.294V108.773C136.641 111.455 137.811 112.796 140.151 112.796C141.267 112.796 142.158 112.445 142.824 111.743C143.508 111.023 143.85 110.033 143.85 108.773V101.294C143.85 101.114 143.904 100.97 144.012 100.862C144.138 100.736 144.291 100.673 144.471 100.673H145.821C146.001 100.673 146.145 100.736 146.253 100.862C146.361 100.97 146.415 101.114 146.415 101.294V114.092C146.415 114.272 146.361 114.425 146.253 114.551C146.145 114.659 146.001 114.713 145.821 114.713H144.552C144.372 114.713 144.219 114.659 144.093 114.551C143.985 114.425 143.931 114.272 143.931 114.092V112.904C143.445 113.534 142.851 114.038 142.149 114.416C141.465 114.794 140.556 114.983 139.422 114.983ZM151.047 114.713C150.867 114.713 150.714 114.659 150.588 114.551C150.48 114.425 150.426 114.272 150.426 114.092V101.294C150.426 101.114 150.48 100.97 150.588 100.862C150.714 100.736 150.867 100.673 151.047 100.673H152.316C152.496 100.673 152.64 100.736 152.748 100.862C152.874 100.97 152.937 101.114 152.937 101.294V102.482C153.405 101.87 153.99 101.375 154.692 100.997C155.412 100.601 156.33 100.403 157.446 100.403C158.616 100.403 159.606 100.664 160.416 101.186C161.244 101.69 161.865 102.401 162.279 103.319C162.711 104.219 162.927 105.272 162.927 106.478V114.092C162.927 114.272 162.864 114.425 162.738 114.551C162.63 114.659 162.486 114.713 162.306 114.713H160.956C160.776 114.713 160.623 114.659 160.497 114.551C160.389 114.425 160.335 114.272 160.335 114.092V106.613C160.335 105.353 160.029 104.372 159.417 103.67C158.805 102.95 157.905 102.59 156.717 102.59C155.601 102.59 154.701 102.95 154.017 103.67C153.351 104.372 153.018 105.353 153.018 106.613V114.092C153.018 114.272 152.955 114.425 152.829 114.551C152.721 114.659 152.577 114.713 152.397 114.713H151.047ZM172.096 114.713C171.088 114.713 170.269 114.524 169.639 114.146C169.009 113.75 168.55 113.201 168.262 112.499C167.974 111.779 167.83 110.933 167.83 109.961V102.833H165.724C165.544 102.833 165.391 102.779 165.265 102.671C165.157 102.545 165.103 102.392 165.103 102.212V101.294C165.103 101.114 165.157 100.97 165.265 100.862C165.391 100.736 165.544 100.673 165.724 100.673H167.83V96.1639C167.83 95.9839 167.884 95.8399 167.992 95.7319C168.118 95.6059 168.271 95.5429 168.451 95.5429H169.72C169.9 95.5429 170.044 95.6059 170.152 95.7319C170.278 95.8399 170.341 95.9839 170.341 96.1639V100.673H173.689C173.887 100.673 174.04 100.736 174.148 100.862C174.256 100.97 174.31 101.114 174.31 101.294V102.212C174.31 102.392 174.256 102.545 174.148 102.671C174.04 102.779 173.887 102.833 173.689 102.833H170.341V109.772C170.341 110.618 170.485 111.284 170.773 111.77C171.061 112.256 171.574 112.499 172.312 112.499H173.959C174.139 112.499 174.283 112.562 174.391 112.688C174.517 112.796 174.58 112.94 174.58 113.12V114.092C174.58 114.272 174.517 114.425 174.391 114.551C174.283 114.659 174.139 114.713 173.959 114.713H172.096Z" fill="white"/>
</svg>
