<svg width="25" height="25" viewBox="0 0 25 25" fill="none" xmlns="http://www.w3.org/2000/svg">
<path d="M21 0H4C1.79086 0 0 1.79086 0 4V21C0 23.2091 1.79086 25 4 25H21C23.2091 25 25 23.2091 25 21V4C25 1.79086 23.2091 0 21 0Z" fill="#002444"/>
<path d="M18.5282 6.00004H7.02821C6.62841 5.9909 6.23088 6.06282 5.85963 6.2115C5.48839 6.36018 5.15111 6.58253 4.86815 6.86512C4.58518 7.14772 4.36238 7.48471 4.21321 7.85575C4.06404 8.2268 3.99159 8.62421 4.0002 9.02403V15.3C3.9916 15.6995 4.06395 16.0966 4.21288 16.4674C4.3618 16.8381 4.58424 17.1749 4.86678 17.4575C5.14931 17.74 5.48612 17.9624 5.85689 18.1113C6.22766 18.2603 6.62471 18.3326 7.02419 18.324H18.5242C18.9237 18.3326 19.3208 18.2603 19.6915 18.1113C20.0623 17.9624 20.3991 17.74 20.6816 17.4575C20.9642 17.1749 21.1866 16.8381 21.3355 16.4674C21.4845 16.0966 21.5568 15.6995 21.5482 15.3V9.02702C21.5572 8.62764 21.4853 8.23057 21.3368 7.85972C21.1883 7.48887 20.9663 7.15192 20.6841 6.86912C20.402 6.58632 20.0655 6.36351 19.695 6.21415C19.3245 6.0648 18.9276 5.99198 18.5282 6.00004ZM10.4382 15.537V8.78404L16.1842 12.164L10.4382 15.537Z" fill="white"/>
</svg>
